<svg width="283" height="102" viewBox="0 0 283 102" fill="none" xmlns="http://www.w3.org/2000/svg">
<g clip-path="url(#clip0)">
<rect x="0.263306" width="102" height="102" rx="51" fill="#F4F5F7"/>
<path fill-rule="evenodd" clip-rule="evenodd" d="M45.8573 59.3782C55.0912 59.3782 67.368 60.418 67.368 69.4138C67.368 78.89 53.0628 79.4585 46.9267 79.4927L44.6988 79.4927C38.1562 79.4587 24.3467 78.8934 24.3467 69.4705C24.3467 59.9837 38.6519 59.4145 44.788 59.3803L45.5253 59.3782C45.6402 59.3782 45.7509 59.3782 45.8573 59.3782ZM45.8573 63.6282C37.9835 63.6282 28.5967 64.6397 28.5967 69.4705C28.5967 73.3012 34.405 75.2448 45.8573 75.2448C57.3097 75.2448 63.118 73.2813 63.118 69.4138C63.118 65.5747 57.3097 63.6282 45.8573 63.6282ZM71.6823 58.0547C79.3493 59.2022 80.9558 62.7524 80.9558 65.5262C80.9558 67.5917 80.0633 70.3882 75.8048 72.0004C75.5583 72.0939 75.3033 72.1392 75.0512 72.1392C74.1927 72.1392 73.3852 71.615 73.065 70.7679C72.6485 69.6714 73.201 68.4417 74.2975 68.028C76.7058 67.1157 76.7058 66.0022 76.7058 65.5262C76.7058 63.9197 74.8047 62.8204 71.0562 62.2622C69.8945 62.0865 69.0927 61.0042 69.2655 59.8454C69.4412 58.6837 70.5433 57.9045 71.6823 58.0547ZM45.8573 25.5C53.8785 25.5 60.4067 32.028 60.4067 40.0492C60.4235 43.9138 58.9247 47.5632 56.1933 50.3115C53.4677 53.0627 49.8268 54.5842 45.9537 54.5983H45.8573C37.8333 54.5983 31.3053 48.0703 31.3053 40.0492C31.3053 32.028 37.8333 25.5 45.8573 25.5ZM65.9389 28.6841C71.5064 29.5964 75.5467 34.3593 75.5467 40.0061C75.5354 45.6869 71.2939 50.5659 65.6782 51.3536C65.579 51.3678 65.4799 51.3734 65.3807 51.3734C64.338 51.3734 63.4285 50.6056 63.2784 49.5431C63.1169 48.3814 63.9244 47.3048 65.086 47.1433C68.622 46.6474 71.291 43.5789 71.2967 40.0033C71.2967 36.4503 68.7524 33.4526 65.2532 32.8803C64.0944 32.6876 63.3095 31.5968 63.4994 30.4379C63.6892 29.2791 64.7857 28.4999 65.9389 28.6841ZM45.8573 29.75C40.1765 29.75 35.5553 34.3712 35.5553 40.0492C35.5553 45.7272 40.1765 50.3483 45.8573 50.3483H45.9452C48.6765 50.337 51.2492 49.2632 53.1787 47.3167C55.111 45.3758 56.1678 42.7947 56.1566 40.0577C56.1566 34.3712 51.5353 29.75 45.8573 29.75Z" fill="#6D7BBA"/>
<path d="M118.263 86.243C118.263 86.243 167.027 93.8915 202.288 87.674C237.55 81.4564 280.757 62.5911 280.757 62.5911" stroke="#D9DBE1" stroke-width="2" stroke-linecap="round" stroke-dasharray="2 6"/>
</g>
<defs>
<clipPath id="clip0">
<rect width="282.417" height="102" fill="white" transform="translate(0.263306)"/>
</clipPath>
</defs>
</svg>
