<svg width="277" height="92" viewBox="0 0 277 92" fill="none" xmlns="http://www.w3.org/2000/svg">
<rect width="92" height="92" rx="46" fill="#F4F5F7"/>
<g clip-path="url(#clip0)">
<path d="M14.5834 42.2432C14.5834 42.2432 63.3469 49.8917 98.6084 43.6741C133.87 37.4566 177.077 18.5912 177.077 18.5912" stroke="#D9DBE1" stroke-width="2" stroke-linecap="round" stroke-dasharray="2 6"/>
<path d="M71.8355 52.3886H61.0401C57.0762 52.3862 53.8633 49.1757 53.8609 45.2119C53.8609 41.248 57.0762 38.0376 61.0401 38.0352H71.8355" stroke="#6D7BBA" stroke-width="3.5" stroke-linecap="round" stroke-linejoin="round"/>
<path d="M62.2613 45.0476H61.4301" stroke="#6D7BBA" stroke-width="3.5" stroke-linecap="round" stroke-linejoin="round"/>
<path fill-rule="evenodd" clip-rule="evenodd" d="M34.7922 22H57.8413C65.5697 22 71.8351 28.2654 71.8351 35.9938V55.1325C71.8351 62.8609 65.5697 69.1263 57.8413 69.1263H34.7922C27.0637 69.1263 20.7984 62.8609 20.7984 55.1325V35.9938C20.7984 28.2654 27.0637 22 34.7922 22Z" stroke="#6D7BBA" stroke-width="3.5" stroke-linecap="round" stroke-linejoin="round"/>
<path opacity="0.4" d="M32.8934 34.1018H47.2906" stroke="#6D7BBA" stroke-width="3.5" stroke-linecap="round" stroke-linejoin="round"/>
</g>
<defs>
<clipPath id="clip0">
<rect width="64" height="64" fill="white" transform="translate(14.1317 14)"/>
</clipPath>
</defs>
</svg>
