<svg width="246" height="308" viewBox="0 0 246 308" fill="none" xmlns="http://www.w3.org/2000/svg">
<g clip-path="url(#clip0)">
<path d="M91.8966 145.498L72.7791 135.626C71.2034 134.813 69.3494 135.377 68.5688 136.813C67.7613 138.299 68.4027 140.088 69.9258 140.875L89.0433 150.747C90.6189 151.56 92.4729 150.996 93.2535 149.56C94.0341 148.124 93.4722 146.312 91.8966 145.498Z" fill="#FCB621"/>
<path d="M81.0079 232.716L61.8904 222.844C60.3148 222.03 58.4608 222.595 57.6802 224.031C56.8727 225.516 57.514 227.306 59.0371 228.092L78.1547 237.964C79.7303 238.778 81.5843 238.213 82.3649 236.777C83.198 235.368 82.5835 233.529 81.0079 232.716Z" fill="#FCB621"/>
<path d="M66.1667 243.189L50.0954 234.89C48.5198 234.076 46.6658 234.641 45.8851 236.077C45.0776 237.562 45.719 239.352 47.2421 240.138L63.3134 248.437C64.889 249.251 66.743 248.686 67.5237 247.25C68.3043 245.814 67.6898 243.975 66.1667 243.189Z" fill="#45B878"/>
<path d="M164.476 178.284L145.359 168.412C143.783 167.599 141.929 168.163 141.149 169.599C140.341 171.085 140.982 172.874 142.506 173.661L161.623 183.533C163.199 184.346 165.053 183.782 165.833 182.346C166.666 180.937 166.052 179.098 164.476 178.284Z" fill="#45B878"/>
<path d="M154.187 192.756L119.734 174.965C118.158 174.152 116.304 174.716 115.523 176.152C114.716 177.638 115.357 179.428 116.88 180.214L151.334 198.005C152.91 198.819 154.764 198.254 155.544 196.818C156.377 195.409 155.763 193.57 154.187 192.756Z" fill="#FCB621"/>
<path d="M135.342 204.904L100.888 187.113C99.3127 186.299 97.4587 186.863 96.6781 188.299C95.8706 189.785 96.512 191.575 98.0351 192.361L132.489 210.152C134.064 210.966 135.918 210.401 136.699 208.965C137.479 207.529 136.865 205.69 135.342 204.904Z" fill="#ED4294"/>
<path d="M92.1366 162.998L70.6032 151.879C69.0276 151.065 67.1736 151.63 66.393 153.065C65.5854 154.551 66.2268 156.341 67.7499 157.127L89.2834 168.247C90.859 169.06 92.713 168.496 93.4936 167.06C94.3267 165.651 93.7123 163.812 92.1366 162.998Z" fill="#45B878"/>
<path d="M172.63 176.153C170.792 175.204 168.542 175.754 167.442 177.406C161.489 186.254 151.851 193.96 140.261 199.073C130.526 203.368 119.09 206.341 105.395 208.147C101.694 208.646 97.8885 208.964 93.8719 209.299C75.506 210.913 54.7621 212.694 44.2183 231.348C37.2519 243.668 39.1602 260.697 48.6099 271.03C54.8487 277.867 64.3923 281.717 74.7698 281.558C85.4907 281.387 95.3581 276.97 101.216 269.658C108.145 260.997 109.155 247.631 104.001 232.984L102.901 229.562C102.263 227.52 100.004 226.354 97.8863 226.909C95.7684 227.464 94.6109 229.593 95.2497 231.635L96.4005 235.21C98.4514 241.089 102.419 255.567 94.8232 264.962C90.4094 270.483 82.7702 273.894 74.4259 274.024C66.4775 274.169 59.2205 271.309 54.6006 266.197C47.4218 258.368 45.9533 244.736 51.3329 235.212C59.8605 220.02 76.8517 218.584 94.8474 217.032C98.7845 216.719 102.828 216.334 106.741 215.818C121.229 213.913 133.38 210.739 143.831 206.116C156.855 200.222 167.425 191.792 174.237 181.612C175.39 179.861 174.86 177.495 172.945 176.316C172.84 176.261 172.735 176.207 172.63 176.153Z" fill="#FCB621"/>
<path d="M55.882 280.049C61.5017 282.951 68.0071 284.471 74.8729 284.338C86.4649 284.173 97.1819 279.307 103.522 271.356C111.038 261.984 112.244 247.64 106.756 232.123L105.656 228.702C105.12 226.966 103.92 225.585 102.266 224.668C102.213 224.641 102.213 224.641 102.161 224.614C100.533 223.773 98.6866 223.581 96.9659 224.024C95.2183 224.517 93.7549 225.6 92.841 227.157C92.0066 228.692 91.7767 230.476 92.3131 232.212L93.4895 235.863C95.4137 241.232 99.0756 254.665 92.3613 263.056C88.4294 267.938 81.6397 270.901 74.2191 271.064C67.1688 271.165 60.779 268.69 56.733 264.254C50.3892 257.364 49.1459 244.926 53.8539 236.513C61.6547 222.659 77.1406 221.27 95.1362 219.718C99.1003 219.355 103.196 218.997 107.162 218.508C121.94 216.564 134.33 213.323 145.046 208.583C158.679 202.559 169.621 193.814 176.728 183.215C177.72 181.762 178.029 179.956 177.625 178.225C177.221 176.494 176.101 174.965 174.554 173.975C174.396 173.894 174.186 173.786 174.029 173.704C170.825 172.05 166.908 172.945 165.004 175.829C159.345 184.259 150.107 191.601 139.047 196.48C129.578 200.659 118.38 203.564 104.976 205.33C101.354 205.807 97.601 206.152 93.6639 206.465C74.5843 208.154 52.9948 210.006 41.7512 229.947C34.2733 243.208 36.3247 261.706 46.5313 272.874C49.1147 275.794 52.3106 278.205 55.882 280.049ZM99.4947 229.642C99.4947 229.642 99.5472 229.669 99.4947 229.642C99.6523 229.723 99.888 229.909 100.043 230.242L101.168 233.74C106.015 247.468 105.173 259.906 98.8325 267.857C93.4562 274.529 84.4639 278.574 74.6143 278.751C65.1349 278.866 56.4585 275.4 50.7935 269.241C42.1532 259.769 40.4419 244.11 46.8174 232.753C56.5819 215.41 75.7141 213.748 94.212 212.138C98.308 211.78 102.113 211.462 105.815 210.964C119.8 209.117 131.475 206.077 141.554 201.643C153.648 196.347 163.686 188.276 169.961 178.96C170.282 178.492 170.891 178.362 171.389 178.683C171.73 178.922 171.807 179.152 171.858 179.306C171.909 179.459 171.932 179.788 171.718 180.058C165.201 189.819 155.111 197.863 142.459 203.442C132.274 207.949 120.361 211.056 106.164 212.92C102.383 213.441 98.3664 213.776 94.4818 214.117C76.4861 215.668 57.9613 217.327 48.7082 233.73C42.8172 244.195 44.4031 259.219 52.3914 267.91C57.612 273.65 65.6837 276.866 74.5828 276.706C83.7982 276.581 92.2601 272.77 97.2083 266.637C105.608 256.136 101.414 240.589 99.2347 234.327L98.1095 230.829C98.034 230.473 98.116 230.198 98.1968 230.05C98.2775 229.901 98.4647 229.681 98.7824 229.591C99.0476 229.475 99.3897 229.588 99.4947 229.642Z" fill="#FCB621"/>
<path d="M75.054 127.606C73.1633 126.63 70.8865 127.229 69.8124 128.958C65.1097 136.866 51.9712 166.355 82.3495 212.925C83.5187 214.734 85.9681 215.301 87.7749 214.205C89.6341 213.136 90.16 210.807 88.9639 209.048C83.9489 201.322 59.6275 161.304 76.6362 132.862C77.6846 131.057 77.0485 128.763 75.1322 127.71C75.1591 127.66 75.1066 127.633 75.054 127.606Z" fill="#FCB621"/>
<path d="M82.547 216.769C84.6478 217.853 87.2614 217.871 89.3859 216.685C90.953 215.782 91.9975 214.356 92.4118 212.604C92.7992 210.902 92.5011 209.099 91.4868 207.624C89.3302 204.291 81.9564 192.366 77.407 177.968C71.8616 160.328 72.5164 145.637 79.2878 134.295C80.1747 132.787 80.4045 131.003 79.9207 129.295C79.4369 127.586 78.2637 126.156 76.6625 125.266C76.5574 125.211 76.5049 125.184 76.3999 125.13C73.0911 123.421 69.0936 124.465 67.2402 127.503C62.2965 135.731 48.644 166.413 79.8264 214.349C80.5808 215.436 81.4966 216.226 82.547 216.769ZM73.7081 130.082L73.7606 130.109C74.0758 130.271 74.2051 130.528 74.2038 130.655C74.255 130.808 74.3049 131.087 74.0908 131.357C56.2491 161.208 81.2965 202.489 86.4678 210.422C86.6496 210.707 86.6201 211.008 86.6188 211.135C86.5905 211.31 86.4559 211.558 86.1638 211.724C85.6859 211.985 85.0799 211.862 84.7943 211.397C55.3522 166.199 67.8178 137.947 72.359 130.336C72.6794 129.994 73.2354 129.838 73.7081 130.082Z" fill="#FCB621"/>
<path d="M79.0548 240.268C76.6762 239.04 75.7363 236.226 76.9553 233.984C78.1743 231.741 81.0907 230.919 83.4692 232.147C85.8478 233.376 86.7877 236.189 85.5687 238.432C84.3497 240.674 81.4333 241.496 79.0548 240.268Z" fill="#FCB621"/>
<path d="M95.4688 192.875C93.0903 191.647 92.1503 188.833 93.3693 186.591C94.5883 184.348 97.5047 183.526 99.8832 184.754C102.262 185.983 103.202 188.796 101.983 191.039C100.764 193.281 97.8473 194.103 95.4688 192.875Z" fill="#ED4294"/>
<path d="M90.1566 170.6C87.7781 169.372 86.8381 166.558 88.0571 164.316C89.2761 162.073 92.1925 161.251 94.5711 162.479C96.9496 163.708 97.8895 166.521 96.6705 168.764C95.4515 171.006 92.5351 171.828 90.1566 170.6Z" fill="#45B878"/>
<path d="M113.316 180.213C110.938 178.985 109.998 176.171 111.217 173.929C112.436 171.686 115.352 170.864 117.731 172.092C120.109 173.32 121.049 176.134 119.83 178.376C118.611 180.619 115.695 181.441 113.316 180.213Z" fill="#FCB621"/>
<path d="M89.9689 153.127C87.5904 151.899 86.6504 149.086 87.8695 146.843C89.0885 144.601 92.0049 143.779 94.3834 145.007C96.7619 146.235 97.7019 149.049 96.4829 151.291C95.2639 153.533 92.3475 154.356 89.9689 153.127Z" fill="#FCB621"/>
<path d="M138.914 173.709C136.536 172.481 135.596 169.667 136.815 167.425C138.034 165.182 140.95 164.36 143.329 165.588C145.707 166.817 146.647 169.63 145.428 171.873C144.209 174.115 141.293 174.937 138.914 173.709Z" fill="#45B878"/>
<path d="M66.2617 251.799C63.8832 250.571 62.9432 247.757 64.1623 245.515C65.3813 243.272 68.2978 242.45 70.6763 243.678C73.0548 244.906 73.9947 247.72 72.7757 249.962C71.5566 252.205 68.6402 253.027 66.2617 251.799Z" fill="#45B878"/>
<path d="M153.794 162.051L172.912 171.923C174.488 172.736 176.342 172.172 177.122 170.736C177.93 169.25 177.288 167.461 175.765 166.674L156.648 156.802C155.072 155.989 153.218 156.553 152.437 157.989C151.657 159.425 152.219 161.237 153.794 162.051Z" fill="#FCB621"/>
<path d="M164.656 74.8831L183.774 84.755C185.349 85.5686 187.203 85.004 187.984 83.5681C188.791 82.0826 188.15 80.2928 186.627 79.5063L167.509 69.6345C165.934 68.8209 164.08 69.3855 163.299 70.8214C162.519 72.2574 163.133 74.0966 164.656 74.8831Z" fill="#FCB621"/>
<path d="M179.55 64.4372L195.621 72.7361C197.197 73.5497 199.051 72.9851 199.831 71.5491C200.639 70.0637 199.998 68.2739 198.474 67.4874L182.403 59.1885C180.828 58.3749 178.974 58.9395 178.193 60.3755C177.412 61.8114 177.974 63.6236 179.55 64.4372Z" fill="#45B878"/>
<path d="M81.2147 129.265L100.332 139.137C101.908 139.951 103.762 139.386 104.542 137.95C105.323 136.514 104.709 134.675 103.185 133.888L84.0679 124.017C82.4923 123.203 80.6383 123.768 79.8577 125.203C79.0246 126.612 79.639 128.452 81.2147 129.265Z" fill="#45B878"/>
<path d="M91.5038 114.793L125.957 132.584C127.533 133.397 129.387 132.833 130.168 131.397C130.948 129.961 130.334 128.122 128.811 127.335L94.357 109.544C92.7814 108.73 90.9274 109.295 90.1468 110.731C89.3662 112.167 89.9807 114.006 91.5038 114.793Z" fill="#FCB621"/>
<path d="M110.349 102.646L144.803 120.437C146.378 121.25 148.232 120.686 149.013 119.25C149.793 117.814 149.179 115.975 147.656 115.188L113.202 97.3971C111.627 96.5834 109.773 97.148 108.992 98.584C108.211 100.02 108.826 101.859 110.349 102.646Z" fill="#ED4294"/>
<path d="M153.554 144.551L175.088 155.671C176.663 156.484 178.517 155.92 179.298 154.484C180.106 152.998 179.464 151.208 177.941 150.422L156.408 139.303C154.832 138.489 152.978 139.054 152.197 140.49C151.417 141.925 151.979 143.738 153.554 144.551Z" fill="#45B878"/>
<path d="M73.0339 131.446C74.8721 132.395 77.122 131.844 78.2216 130.193C84.175 121.345 93.8127 113.639 105.404 108.526C115.138 104.231 126.574 101.258 140.269 99.4515C143.97 98.9531 147.776 98.635 151.792 98.2993C170.158 96.6854 190.902 94.9043 201.446 76.251C208.412 63.9311 206.504 46.9016 197.054 36.5683C190.815 29.7321 181.272 25.882 170.894 26.0404C160.173 26.2118 150.306 30.6288 144.448 37.9404C137.52 46.602 136.509 59.9681 141.663 74.6151L142.763 78.0366C143.401 80.0786 145.66 81.2448 147.778 80.6896C149.896 80.1345 151.053 78.0053 150.414 75.9633L149.264 72.3885C147.213 66.5099 143.245 52.0316 150.841 42.6368C155.255 37.1159 162.894 33.7044 171.238 33.5742C179.187 33.4297 186.444 36.2893 191.063 41.4017C198.242 49.2307 199.711 62.8623 194.331 72.387C185.804 87.5788 168.812 89.0148 150.817 90.5663C146.88 90.8796 142.836 91.2648 138.923 91.7809C124.435 93.6852 112.284 96.8593 101.833 101.483C88.7307 107.273 78.1614 115.703 71.3762 125.834C70.2227 127.584 70.7525 129.951 72.6675 131.13C72.8507 131.288 72.9288 131.391 73.0339 131.446Z" fill="#FCB621"/>
<path d="M71.688 133.922C74.8918 135.576 78.8085 134.681 80.7131 131.796C86.3717 123.367 95.6096 116.025 106.697 111.096C116.166 106.918 127.364 104.012 140.768 102.246C144.39 101.77 148.143 101.425 152.08 101.111C171.159 99.4219 192.801 97.5972 203.992 77.6295C211.47 64.3687 209.419 45.8702 199.212 34.7021C192.373 27.2386 182.014 23.0312 170.766 23.1837C159.174 23.3491 148.457 28.2152 142.117 36.1659C134.6 45.5383 133.395 59.8818 138.883 75.3989L139.982 78.8204C140.519 80.5559 141.719 81.9366 143.373 82.854C145.001 83.6947 146.872 83.9636 148.673 83.4981C150.42 83.0054 151.884 81.922 152.798 80.3646C153.632 78.8296 153.862 77.0458 153.325 75.3103L152.149 71.6589C150.225 66.2897 146.563 52.8572 153.277 44.4656C157.209 39.5837 163.999 36.6214 171.419 36.458C178.47 36.3571 184.859 38.8323 188.906 43.2679C195.222 50.2079 196.518 62.6723 191.81 71.0852C184.009 84.9401 168.524 86.3291 150.528 87.8805C146.564 88.2434 142.468 88.6015 138.503 89.0905C123.724 91.0348 111.334 94.2761 100.618 99.016C87.012 104.99 76.0429 113.785 68.9886 124.41C67.9965 125.864 67.6873 127.67 68.0917 129.401C68.4961 131.132 69.6154 132.661 71.1628 133.65C71.3473 133.682 71.5305 133.84 71.688 133.922ZM187.117 32.4517C190.058 33.9705 192.73 35.9844 194.871 38.3578C203.511 47.8293 205.222 63.4888 198.847 74.8455C189.082 92.1889 169.95 93.8511 151.452 95.4603C147.356 95.8184 143.551 96.1365 139.85 96.6349C125.864 98.4814 114.189 101.521 104.11 105.956C92.0159 111.252 81.9515 119.372 75.7033 128.639C75.3816 129.107 74.773 129.236 74.2747 128.916C73.934 128.676 73.8572 128.446 73.806 128.293C73.7548 128.14 73.7318 127.811 73.9458 127.541C80.4632 117.779 90.5532 109.736 103.205 104.157C113.39 99.6501 125.303 96.5431 139.5 94.679C143.334 94.1852 147.35 93.8495 151.235 93.5091C169.178 91.9305 187.755 90.2989 197.035 73.8468C202.926 63.3813 201.34 48.3573 193.352 39.6664C188.132 33.9267 180.06 30.7099 171.161 30.8708C161.945 30.9951 153.51 34.7566 148.535 40.9389C140.136 51.4407 144.33 66.9872 146.509 73.249L147.634 76.7471C147.71 77.1032 147.628 77.3779 147.547 77.5264C147.466 77.675 147.279 77.8954 146.961 77.985C146.591 78.0475 146.301 77.9614 146.144 77.88C145.986 77.7986 145.751 77.6135 145.648 77.307L144.523 73.8088C139.676 60.0815 140.519 47.6432 146.859 39.6926C152.208 33.0694 161.227 28.9754 171.05 28.8476C176.886 28.7537 182.39 30.0109 187.117 32.4517Z" fill="#FCB621"/>
<path d="M170.637 179.943C172.528 180.92 174.804 180.32 175.879 178.591C180.581 170.683 193.72 141.194 163.342 94.624C162.172 92.8154 159.723 92.2481 157.916 93.3444C156.057 94.4136 155.531 96.7421 156.727 98.5012C161.742 106.228 186.063 146.245 169.055 174.687C168.006 176.492 168.642 178.787 170.559 179.84C170.532 179.889 170.584 179.916 170.637 179.943Z" fill="#FCB621"/>
<path d="M169.291 182.419C172.6 184.128 176.597 183.085 178.451 180.046C183.394 171.819 197.047 141.136 165.865 93.2C163.812 90.0472 159.571 89.0625 156.358 90.8909C154.79 91.7939 153.746 93.2204 153.332 94.9723C152.917 96.7243 153.242 98.4774 154.257 99.9524C156.413 103.286 163.787 115.21 168.336 129.609C173.882 147.248 173.227 161.939 166.456 173.282C165.569 174.79 165.339 176.573 165.823 178.282C166.307 179.99 167.48 181.42 169.081 182.311L169.291 182.419ZM160.452 95.7321C160.61 95.8135 160.74 95.9443 160.871 96.0752C190.313 141.274 177.821 169.575 173.306 177.136C173.064 177.582 172.456 177.712 171.983 177.468L171.878 177.413C171.615 177.278 171.486 177.021 171.435 176.867C171.383 176.714 171.334 176.435 171.548 176.165C189.389 146.314 164.342 105.033 159.145 97.023C158.963 96.7388 158.993 96.437 158.994 96.3109C159.022 96.1352 159.157 95.8876 159.449 95.7214C159.794 95.5823 160.137 95.5694 160.452 95.7321Z" fill="#FCB621"/>
<path d="M162.222 75.4018C159.843 74.1736 158.903 71.3601 160.122 69.1177C161.341 66.8752 164.258 66.053 166.636 67.2812C169.015 68.5095 169.955 71.323 168.736 73.5654C167.517 75.8078 164.6 76.63 162.222 75.4018Z" fill="#FCB621"/>
<path d="M145.86 122.822C143.482 121.594 142.542 118.78 143.761 116.538C144.98 114.295 147.896 113.473 150.275 114.701C152.653 115.93 153.593 118.743 152.374 120.986C151.155 123.228 148.239 124.05 145.86 122.822Z" fill="#ED4294"/>
<path d="M151.093 145.119C148.715 143.891 147.775 141.078 148.994 138.835C150.213 136.593 153.129 135.771 155.508 136.999C157.886 138.227 158.826 141.041 157.607 143.283C156.388 145.525 153.472 146.348 151.093 145.119Z" fill="#45B878"/>
<path d="M127.96 135.457C125.582 134.229 124.642 131.415 125.861 129.173C127.08 126.93 129.996 126.108 132.375 127.336C134.753 128.565 135.693 131.378 134.474 133.621C133.255 135.863 130.339 136.685 127.96 135.457Z" fill="#FCB621"/>
<path d="M151.281 162.592C148.902 161.364 147.962 158.55 149.181 156.308C150.4 154.065 153.317 153.243 155.695 154.471C158.074 155.7 159.014 158.513 157.795 160.756C156.575 162.998 153.659 163.82 151.281 162.592Z" fill="#FCB621"/>
<path d="M102.388 142.037C100.009 140.809 99.0692 137.996 100.288 135.753C101.507 133.511 104.424 132.689 106.802 133.917C109.181 135.145 110.121 137.959 108.902 140.201C107.683 142.443 104.766 143.266 102.388 142.037Z" fill="#45B878"/>
<path d="M175.067 63.898C172.689 62.6698 171.749 59.8563 172.968 57.6139C174.187 55.3714 177.103 54.5492 179.482 55.7775C181.86 57.0057 182.8 59.8192 181.581 62.0616C180.362 64.3041 177.446 65.1262 175.067 63.898Z" fill="#45B878"/>
</g>
<defs>
<clipPath id="clip0">
<rect width="123.345" height="285.261" fill="white" transform="matrix(-0.884821 -0.456902 -0.478695 0.880572 245.691 56.3564)"/>
</clipPath>
</defs>
</svg>
