<svg width="177" height="269" viewBox="0 0 177 269" fill="none" xmlns="http://www.w3.org/2000/svg">
<g clip-path="url(#clip0)">
<path d="M134.334 153.872L149.844 163.863C151.1 164.672 151.47 166.315 150.667 167.527C149.865 168.739 148.192 169.066 146.936 168.256L131.426 158.265C130.17 157.455 129.801 155.813 130.603 154.601C131.405 153.389 133.078 153.062 134.334 153.872Z" fill="#FCB621"/>
<path d="M71.4197 199.076L86.9294 209.068C88.1859 209.877 88.555 211.52 87.7527 212.732C86.9505 213.944 85.2777 214.271 84.0212 213.461L68.5115 203.47C67.255 202.66 66.886 201.018 67.6882 199.806C68.4905 198.594 70.1632 198.267 71.4197 199.076Z" fill="#FCB621"/>
<path d="M69.434 214.598L82.47 222.996C83.7265 223.806 84.0956 225.448 83.2933 226.66C82.4911 227.872 80.8183 228.199 79.5618 227.39L66.5258 218.992C65.2693 218.182 64.9003 216.54 65.7025 215.328C66.5048 214.116 68.1775 213.789 69.434 214.598Z" fill="#45B878"/>
<path d="M79.0913 113.962L94.601 123.953C95.8575 124.763 96.2266 126.405 95.4243 127.617C94.622 128.829 92.9493 129.156 91.6928 128.346L76.1831 118.355C74.9266 117.545 74.5575 115.903 75.3598 114.691C76.1621 113.479 77.8348 113.152 79.0913 113.962Z" fill="#45B878"/>
<path d="M72.1487 127.749L100.106 145.759C101.362 146.569 101.731 148.211 100.929 149.423C100.127 150.635 98.4538 150.962 97.1973 150.152L69.2405 132.142C67.984 131.333 67.615 129.69 68.4172 128.479C69.2588 127.292 70.8922 126.94 72.1487 127.749Z" fill="#FCB621"/>
<path d="M70.5467 146.922L98.5035 164.932C99.76 165.741 100.129 167.384 99.3268 168.596C98.5245 169.807 96.8518 170.135 95.5953 169.325L67.6385 151.315C66.382 150.506 66.013 148.863 66.8152 147.651C67.6175 146.439 69.2902 146.112 70.5467 146.922Z" fill="#ED4294"/>
<path d="M120.724 161.148L138.197 172.405C139.453 173.214 139.822 174.856 139.02 176.068C138.218 177.28 136.545 177.607 135.288 176.798L117.815 165.542C116.559 164.732 116.19 163.09 116.992 161.878C117.794 160.666 119.467 160.339 120.724 161.148Z" fill="#45B878"/>
<path d="M77.4263 107.001C78.9184 107.962 79.4478 109.869 78.6129 111.385C74.2052 119.566 72.2202 130.01 73.0324 140.798C73.7329 149.893 76.1261 159.646 80.3647 170.588C81.4964 173.532 82.8353 176.501 84.1775 179.635C90.5119 193.926 97.6472 210.138 87.5537 225.893C80.8915 236.296 66.9293 242.157 55.0563 239.533C47.1802 237.809 40.314 232.359 36.1526 224.6C31.8701 216.601 31.2699 207.354 34.4652 199.905C38.2914 191.079 48.224 184.62 61.6877 182.218L64.8009 181.577C66.6274 181.187 68.4979 182.338 68.9096 184.17C69.3463 185.964 68.2072 187.769 66.3415 188.134L63.1389 188.826C57.7455 189.781 44.9451 193.042 40.7603 202.663C38.3039 208.32 38.8217 215.407 42.1779 221.674C45.3595 227.614 50.534 231.812 56.3598 233.079C65.4039 235.07 76.4951 230.33 81.6422 222.301C89.8445 209.487 83.9837 196.258 77.8097 182.232C76.4817 179.161 75.0359 176.015 73.8365 172.919C69.3524 161.333 66.7922 150.986 66.0784 141.234C65.147 129.019 67.3193 117.615 72.4005 108.247C73.2463 106.631 75.3268 106.026 77.037 106.912C77.23 106.874 77.3085 106.925 77.4263 107.001Z" fill="#ED4294"/>
<path d="M44.6276 238.703C39.9551 235.693 35.992 231.357 33.1596 226.075C28.4069 217.179 27.7333 206.859 31.3481 198.437C35.644 188.563 46.4532 181.372 61.0499 178.782L64.0988 178.153C65.9002 177.801 67.7541 178.131 69.3105 179.08C70.8669 180.028 71.9829 181.558 72.4197 183.352C72.8171 185.12 72.5177 186.926 71.5792 188.429C70.6407 189.931 69.0991 190.991 67.2726 191.381L63.9664 192.06C59.1913 192.928 47.6743 195.773 44.1314 203.917C42.0695 208.639 42.5783 214.639 45.4249 219.985C48.1362 225.027 52.4185 228.542 57.2192 229.581C64.7845 231.268 74.492 227.095 78.8368 220.278C86.1007 208.966 80.8487 197.101 74.7708 183.354C73.4035 180.258 71.9828 177.074 70.73 173.889C66.1105 162 63.4794 151.337 62.7197 141.231C61.7499 128.397 64.0518 116.374 69.4055 106.425C70.2655 104.873 71.7144 103.699 73.4482 103.195C75.1819 102.691 77.0718 102.883 78.7427 103.743C78.8998 103.844 79.1212 103.933 79.2782 104.034C82.3016 105.981 83.3605 109.797 81.7049 112.89C77.609 120.516 75.7786 130.304 76.5525 140.472C77.2071 149.214 79.5292 158.651 83.6969 169.277C84.8144 172.158 86.0998 175.039 87.4671 178.135C93.8157 192.489 101.681 210.305 90.649 227.563C83.2347 239.102 67.7351 245.594 54.4869 242.678C50.9611 242.081 47.651 240.651 44.6276 238.703Z" fill="#ED4294"/>
<path d="M155.076 158.752C156.607 159.738 157.086 161.722 156.148 163.224C151.985 170.105 134.557 192.371 86.0985 189.678C84.2228 189.551 82.7709 188.021 82.8631 186.19C82.9302 184.396 84.4903 182.97 86.366 183.098C94.4227 183.534 135.341 184.503 150.368 159.771C151.293 158.205 153.402 157.727 154.997 158.701C154.997 158.701 155.037 158.726 155.076 158.752Z" fill="#ED4294"/>
<path d="M82.579 191.949C80.5765 190.659 79.3043 188.435 79.4225 185.972C79.4896 184.178 80.2568 182.512 81.6022 181.326C82.9475 180.139 84.6922 179.534 86.5286 179.637C89.9299 179.829 102.107 180.218 114.956 177.476C130.597 174.154 141.509 167.57 147.334 157.924C148.233 156.397 149.736 155.312 151.523 154.896C153.31 154.481 155.15 154.748 156.746 155.722C156.824 155.772 156.903 155.823 156.981 155.873C160.122 157.897 161.081 161.864 159.193 164.97C154.755 172.267 136.409 195.834 85.9861 193.063C84.732 193.012 83.5999 192.607 82.579 191.949ZM121.565 182.976C115.746 184.575 109.913 185.517 104.652 186.018C111.035 185.43 116.671 184.361 121.565 182.976Z" fill="#ED4294"/>
<path d="M66.3993 203.784C68.3293 205.027 70.8929 204.526 72.1252 202.664C73.3575 200.803 72.7919 198.286 70.8619 197.042C68.9319 195.799 66.3683 196.3 65.136 198.162C63.9037 200.023 64.4693 202.54 66.3993 203.784Z" fill="#FCB621"/>
<path d="M96.271 171.435C98.201 172.678 100.765 172.177 101.997 170.316C103.229 168.454 102.664 165.937 100.734 164.694C98.8035 163.45 96.24 163.951 95.0077 165.813C93.7753 167.675 94.3409 170.192 96.271 171.435Z" fill="#ED4294"/>
<path d="M115.664 165.83C117.594 167.074 120.157 166.572 121.39 164.711C122.622 162.849 122.057 160.332 120.127 159.089C118.196 157.846 115.633 158.347 114.401 160.208C113.168 162.07 113.734 164.587 115.664 165.83Z" fill="#45B878"/>
<path d="M98.6975 152.793C100.627 154.037 103.191 153.536 104.423 151.674C105.656 149.812 105.09 147.295 103.16 146.052C101.23 144.809 98.6665 145.31 97.4342 147.172C96.2019 149.033 96.7675 151.55 98.6975 152.793Z" fill="#FCB621"/>
<path d="M129.274 158.553C131.205 159.797 133.768 159.296 135 157.434C136.233 155.573 135.667 153.055 133.737 151.812C131.807 150.569 129.243 151.07 128.011 152.932C126.779 154.793 127.344 157.31 129.274 158.553Z" fill="#FCB621"/>
<path d="M93.193 130.988C95.123 132.231 97.6866 131.73 98.9189 129.868C100.151 128.007 99.5856 125.49 97.6556 124.246C95.7256 123.003 93.162 123.504 91.9297 125.366C90.6974 127.227 91.263 129.744 93.193 130.988Z" fill="#45B878"/>
<path d="M62.7252 218.218C64.6552 219.461 67.2188 218.96 68.4511 217.099C69.6834 215.237 69.1178 212.72 67.1878 211.477C65.2578 210.233 62.6942 210.735 61.4619 212.596C60.2296 214.458 60.7952 216.975 62.7252 218.218Z" fill="#45B878"/>
<path d="M96.0728 114.961L80.5631 104.969C79.3066 104.16 78.9375 102.518 79.7398 101.306C80.5421 100.094 82.2148 99.7668 83.4713 100.576L98.981 110.568C100.238 111.377 100.607 113.02 99.8043 114.231C99.002 115.443 97.3293 115.77 96.0728 114.961Z" fill="#FCB621"/>
<path d="M158.987 69.756L143.478 59.7645C142.221 58.9551 141.852 57.3127 142.654 56.1008C143.456 54.8889 145.129 54.5618 146.386 55.3713L161.895 65.3628C163.152 66.1722 163.521 67.8146 162.719 69.0265C161.916 70.2384 160.244 70.5654 158.987 69.756Z" fill="#FCB621"/>
<path d="M160.948 54.2719L147.912 45.874C146.655 45.0646 146.286 43.4222 147.089 42.2103C147.891 40.9984 149.564 40.6713 150.82 41.4808L163.856 49.8787C165.113 50.6881 165.482 52.3305 164.679 53.5424C163.877 54.7543 162.204 55.0814 160.948 54.2719Z" fill="#45B878"/>
<path d="M151.291 154.909L135.781 144.917C134.525 144.108 134.155 142.465 134.958 141.253C135.76 140.042 137.433 139.715 138.689 140.524L154.199 150.516C155.455 151.325 155.825 152.967 155.022 154.179C154.22 155.391 152.547 155.718 151.291 154.909Z" fill="#45B878"/>
<path d="M158.233 141.121L130.276 123.111C129.02 122.302 128.651 120.66 129.453 119.448C130.255 118.236 131.928 117.909 133.185 118.718L161.141 136.728C162.398 137.538 162.767 139.18 161.965 140.392C161.162 141.604 159.49 141.931 158.233 141.121Z" fill="#FCB621"/>
<path d="M159.86 121.911L131.903 103.901C130.647 103.091 130.278 101.449 131.08 100.237C131.882 99.0251 133.555 98.6981 134.812 99.5075L162.768 117.518C164.025 118.327 164.394 119.969 163.592 121.181C162.789 122.393 161.117 122.72 159.86 121.911Z" fill="#ED4294"/>
<path d="M109.683 107.684L92.2105 96.428C90.954 95.6185 90.5849 93.9762 91.3872 92.7642C92.1895 91.5523 93.8622 91.2253 95.1187 92.0347L112.592 103.291C113.848 104.1 114.217 105.743 113.415 106.955C112.613 108.167 110.979 108.519 109.683 107.684Z" fill="#45B878"/>
<path d="M152.995 161.895C151.503 160.934 150.973 159.026 151.808 157.511C156.216 149.33 158.201 138.886 157.389 128.098C156.688 119.003 154.295 109.25 150.057 98.3076C148.925 95.3636 147.586 92.3942 146.244 89.2605C139.87 74.9441 132.71 58.7703 142.803 43.0151C149.465 32.6126 163.428 26.7508 175.301 29.3753C183.177 31.0997 190.043 36.5494 194.204 44.3084C198.487 52.3075 199.087 61.554 195.892 69.0037C192.066 77.8296 182.133 84.2885 168.669 86.6898L165.556 87.3314C163.73 87.7215 161.859 86.5705 161.447 84.7386C161.011 82.9446 162.15 81.1393 164.015 80.7746L167.218 80.0825C172.611 79.1271 185.412 75.8663 189.597 66.2448C192.053 60.5881 191.535 53.5016 188.179 47.2338C184.997 41.2945 179.823 37.0967 173.997 35.8287C164.953 33.8381 153.862 38.5782 148.715 46.6073C140.512 59.421 146.373 72.6507 152.547 86.6764C153.875 89.7469 155.321 92.8932 156.52 95.9888C161.005 107.575 163.565 117.922 164.279 127.674C165.21 139.889 163.038 151.293 157.956 160.661C157.111 162.277 155.03 162.882 153.32 161.996C153.152 161.996 153.074 161.946 152.995 161.895Z" fill="#ED4294"/>
<path d="M151.115 164.736C148.091 162.788 147.032 158.972 148.688 155.879C152.784 148.253 154.614 138.466 153.84 128.297C153.186 119.556 150.864 110.118 146.696 99.4921C145.579 96.6113 144.279 93.6671 142.951 90.5967C136.642 76.2677 128.737 58.426 139.808 41.1937C147.248 29.6172 162.747 23.1251 175.956 26.016C184.857 27.9686 192.577 34.0758 197.247 42.7573C202 51.6536 202.674 61.9738 199.059 70.3957C194.763 80.2697 183.954 87.4604 169.357 90.0503L166.308 90.6793C164.507 91.0315 162.653 90.7015 161.097 89.7529C159.565 88.7664 158.424 87.2749 157.987 85.481C157.59 83.7123 157.889 81.9063 158.828 80.4039C159.791 78.8637 161.308 77.8419 163.134 77.4518L166.441 76.7725C171.216 75.905 182.733 73.0599 186.276 64.9158C188.338 60.1935 187.829 54.1933 184.982 48.8479C182.271 43.8059 177.989 40.2908 173.188 39.2511C165.623 37.5648 155.915 41.7376 151.57 48.5548C144.306 59.8663 149.558 71.7313 155.636 85.479C157.004 88.5748 158.424 91.759 159.677 94.9431C164.297 106.833 166.928 117.496 167.687 127.601C168.657 140.435 166.355 152.458 161.002 162.407C160.142 163.96 158.693 165.133 156.959 165.637C155.225 166.141 153.335 165.95 151.664 165.09C151.454 164.9 151.272 164.837 151.115 164.736Z" fill="#ED4294"/>
<path d="M75.3062 110.119C73.7749 109.132 73.2956 107.149 74.2341 105.646C78.3968 98.7658 95.8254 76.499 144.284 79.192C146.159 79.3198 147.611 80.8494 147.519 82.6808C147.452 84.4744 145.892 85.9004 144.016 85.7725C135.959 85.3364 95.0413 84.3676 80.0136 109.099C79.0893 110.665 76.9805 111.143 75.3848 110.169C75.3848 110.169 75.3455 110.144 75.3062 110.119Z" fill="#ED4294"/>
<path d="M73.4259 112.959C70.2847 110.935 69.3261 106.968 71.214 103.863C75.6524 96.5657 93.9977 72.9987 144.421 75.769C148.197 75.9869 151.194 79.1598 151.049 82.848C150.982 84.6416 150.215 86.3082 148.869 87.4944C147.524 88.6806 145.779 89.2855 143.943 89.1829C140.542 88.9906 128.365 88.6015 115.515 91.3444C99.874 94.666 88.9622 101.25 83.1373 110.896C82.2381 112.423 80.7357 113.508 78.9484 113.924C77.1612 114.339 75.3215 114.072 73.7258 113.098C73.5437 113.035 73.5044 113.01 73.4259 112.959ZM125.755 82.8143C119.372 83.4026 113.736 84.4716 108.817 85.8948C114.701 84.2829 120.509 83.3783 125.755 82.8143Z" fill="#ED4294"/>
<path d="M159.545 71.7902C161.475 73.0335 164.039 72.5323 165.271 70.6708C166.503 68.8092 165.938 66.2922 164.008 65.0489C162.078 63.8055 159.514 64.3067 158.282 66.1683C157.05 68.0298 157.615 70.5468 159.545 71.7902Z" fill="#FCB621"/>
<path d="M129.673 104.139C131.604 105.382 134.167 104.881 135.399 103.019C136.632 101.158 136.066 98.6408 134.136 97.3975C132.206 96.1542 129.642 96.6553 128.41 98.5169C127.178 100.378 127.743 102.895 129.673 104.139Z" fill="#ED4294"/>
<path d="M110.281 109.744C112.211 110.987 114.774 110.486 116.006 108.624C117.239 106.763 116.673 104.246 114.743 103.002C112.813 101.759 110.25 102.26 109.017 104.122C107.785 105.983 108.351 108.5 110.281 109.744Z" fill="#45B878"/>
<path d="M127.261 122.843C129.191 124.087 131.755 123.586 132.987 121.724C134.219 119.863 133.654 117.346 131.724 116.102C129.794 114.859 127.23 115.36 125.998 117.222C124.766 119.083 125.331 121.6 127.261 122.843Z" fill="#FCB621"/>
<path d="M96.7092 117.046C98.6392 118.289 101.203 117.788 102.435 115.926C103.667 114.065 103.102 111.548 101.172 110.304C99.2418 109.061 96.6782 109.562 95.4459 111.424C94.2136 113.285 94.7792 115.802 96.7092 117.046Z" fill="#FCB621"/>
<path d="M132.726 144.624C134.656 145.867 137.22 145.366 138.452 143.505C139.685 141.643 139.119 139.126 137.189 137.883C135.259 136.64 132.695 137.141 131.463 139.002C130.231 140.864 130.796 143.381 132.726 144.624Z" fill="#45B878"/>
<path d="M163.194 57.3937C165.124 58.637 167.688 58.1358 168.92 56.2743C170.152 54.4127 169.587 51.8957 167.657 50.6524C165.727 49.409 163.163 49.9102 161.931 51.7718C160.699 53.6333 161.264 56.1503 163.194 57.3937Z" fill="#45B878"/>
</g>
<defs>
<clipPath id="clip0">
<rect width="107.281" height="251.787" fill="white" transform="matrix(0.839977 0.541121 -0.552022 0.833898 139.643 0.407837)"/>
</clipPath>
</defs>
</svg>
