<svg width="414" height="508" viewBox="0 0 414 508" fill="none" xmlns="http://www.w3.org/2000/svg">
<g filter="url(#filter0_d)">
<path d="M159.599 236.488L131.752 217.429C129.487 215.879 126.48 216.514 125.026 218.797C123.554 221.107 124.216 224.213 126.454 225.745L154.301 244.804C156.566 246.355 159.573 245.72 161.027 243.437C162.481 241.154 161.837 238.02 159.599 236.488Z" fill="#FCB621"/>
<path d="M127.832 380.607L99.9847 361.548C97.7197 359.998 94.713 360.633 93.2588 362.916C91.7873 365.226 92.4487 368.333 94.6871 369.865L122.534 388.924C124.799 390.474 127.806 389.839 129.26 387.556C130.714 385.273 130.07 382.139 127.832 380.607Z" fill="#FCB621"/>
<path d="M103.099 396.119L79.6738 380.076C77.4086 378.525 74.4012 379.16 72.946 381.443C71.4736 383.753 72.1344 386.861 74.3729 388.394L97.7977 404.436C100.063 405.987 103.07 405.353 104.525 403.07C106.007 400.805 105.364 397.67 103.099 396.119Z" fill="#45B878"/>
<path d="M265.942 300.6L238.095 281.541C235.83 279.99 232.823 280.625 231.369 282.908C229.898 285.219 230.559 288.325 232.797 289.857L260.644 308.916C262.909 310.467 265.916 309.831 267.37 307.548C268.824 305.265 268.18 302.132 265.942 300.6Z" fill="#45B878"/>
<path d="M247.586 323.389L197.445 289.132C195.181 287.585 192.177 288.222 190.726 290.505C189.275 292.788 189.921 295.919 192.159 297.448L242.3 331.705C244.565 333.252 247.569 332.615 249.02 330.332C250.471 328.049 249.824 324.918 247.586 323.389Z" fill="#FCB621"/>
<path d="M216.402 341.218L166.261 306.961C163.997 305.414 160.993 306.052 159.542 308.334C158.091 310.617 158.737 313.748 160.975 315.277L211.117 349.534C213.381 351.082 216.385 350.444 217.836 348.161C219.287 345.878 218.64 342.747 216.402 341.218Z" fill="#ED4294"/>
<path d="M156.941 265.709L125.578 244.252C123.313 242.702 120.307 243.338 118.853 245.621C117.4 247.903 118.044 251.037 120.283 252.568L151.646 274.025C153.911 275.574 156.917 274.939 158.37 272.656C159.851 270.391 159.206 267.258 156.941 265.709Z" fill="#45B878"/>
<path d="M278.871 299.361C276.198 297.511 272.632 298.039 270.637 300.639C260.018 314.53 243.793 325.922 225.005 332.743C209.185 338.465 191.047 341.717 169.55 342.685C163.772 342.942 157.849 342.943 151.573 342.895C122.931 342.82 90.5234 342.74 71.1609 372.293C58.4035 391.798 58.4794 420.536 71.3383 439.126C79.8659 451.449 93.9471 459.26 110.006 460.559C126.551 461.88 142.599 455.921 152.85 444.612C165.013 431.197 168.803 409.035 163.251 383.837L162.115 377.929C161.448 374.433 158.178 372.131 154.817 372.761C151.456 373.391 149.293 376.741 149.96 380.237L151.133 386.328C153.36 396.459 157.058 421.123 143.76 435.722C135.98 444.288 123.628 448.785 110.746 447.753C98.4207 446.752 87.7125 440.958 81.3859 431.774C71.5821 417.583 71.616 394.674 81.471 379.623C97.1828 355.582 123.694 355.681 151.761 355.753C157.897 355.781 164.235 355.793 170.304 355.5C193.029 354.476 212.313 350.993 229.27 344.875C250.496 337.179 268.177 324.706 280.39 308.726C282.49 305.962 282.011 301.927 279.325 299.675C279.174 299.61 279.031 299.472 278.871 299.361Z" fill="#6D7BBA"/>
<path d="M81.8581 454.113C89.8492 459.642 99.4518 463.055 109.812 463.879C127.312 465.27 144.275 458.96 155.18 446.923C168.076 432.718 172.138 409.524 166.363 383.228L165.236 377.366C164.739 374.815 163.344 372.589 161.25 371.101C161.223 371.083 161.17 371.046 161.143 371.027C159.085 369.604 156.613 369.075 154.205 369.537C151.753 370.007 149.629 371.415 148.23 373.559C146.831 375.704 146.348 378.285 146.845 380.835L148.037 387.018C150.132 396.506 153.658 419.984 141.433 433.433C134.291 441.297 122.899 445.432 110.946 444.452C99.5597 443.548 89.75 438.219 83.9638 429.881C79.6061 423.596 77.2395 415.143 77.2527 406.09C77.2566 396.991 79.7219 388.256 84.1276 381.493C90.8276 371.235 99.933 365.006 112.785 361.841C124.527 358.972 137.778 358.999 151.833 359.031C158.012 359.05 164.377 359.081 170.517 358.798C193.541 357.785 213.116 354.268 230.362 347.997C252.125 340.123 270.322 327.26 282.902 310.826C284.444 308.82 285.14 306.268 284.819 303.682C284.525 301.114 283.27 298.789 281.281 297.136C281.084 296.961 280.844 296.794 280.603 296.628C276.487 293.78 271.122 294.599 268.1 298.576C257.82 311.991 242.121 323.036 223.88 329.604C208.359 335.217 190.53 338.405 169.335 339.383C163.628 339.651 157.75 339.642 151.544 339.604C136.773 339.549 121.551 339.538 107.052 343.297C90.2006 347.674 77.5982 356.567 68.5076 370.411C55.0288 390.99 55.1401 421.365 68.7437 441.021C72.3196 446.174 76.7535 450.582 81.8581 454.113ZM157.695 376.522L157.722 376.541C158.39 377.003 158.858 377.72 159 378.528L160.154 384.527C165.49 408.668 161.979 429.721 150.523 442.322C140.91 452.929 125.822 458.526 110.206 457.257C95.1301 456.046 81.9129 448.753 73.9431 437.251C61.8308 419.73 61.765 392.616 73.8448 374.182C82.0133 361.67 93.4412 353.659 108.724 349.694C122.438 346.141 137.271 346.159 151.627 346.201C157.965 346.213 163.887 346.213 169.736 345.965C191.55 344.981 209.996 341.668 226.071 335.848C245.395 328.848 262.12 317.094 273.123 302.721C274.063 301.481 275.819 301.198 277.129 302.104C277.209 302.16 277.289 302.215 277.343 302.252C278.003 302.788 278.382 303.523 278.48 304.339C278.577 305.155 278.357 305.988 277.869 306.635C266.013 322.112 248.815 334.247 228.161 341.707C211.487 347.743 192.512 351.163 170.106 352.17C164.099 352.427 157.787 352.433 151.723 352.414C137.297 352.362 123.657 352.342 111.202 355.427C96.9476 358.922 86.343 366.241 78.8171 377.74C73.7073 385.552 70.8852 395.577 70.8693 405.968C70.8627 416.404 73.669 426.226 78.7911 433.67C85.6918 443.645 97.2721 450.003 110.543 451.028C124.38 452.13 137.664 447.255 146.081 437.988C160.366 422.261 156.564 396.188 154.236 385.673L153.072 379.627C152.903 378.802 153.08 377.978 153.514 377.294C153.948 376.609 154.633 376.137 155.409 376.004C156.239 375.908 157.027 376.06 157.695 376.522Z" fill="#6D7BBA"/>
<path d="M136.448 204.382C133.724 202.498 130.047 203.143 128.151 205.886C119.522 218.381 94.3876 265.516 133.518 347.576C135.01 350.734 138.7 352.066 141.696 350.556C144.719 349.065 145.941 345.265 144.432 342.134C137.94 328.511 107.11 258.255 138.118 213.371C140.067 210.546 139.423 206.598 136.662 204.53C136.582 204.475 136.528 204.438 136.448 204.382Z" fill="#6D7BBA"/>
<path d="M133.892 352.785C136.562 354.632 140.065 355.048 143.105 353.529C145.337 352.436 147.004 350.479 147.772 348.058C148.541 345.638 148.398 343.02 147.286 340.716C140.922 327.378 110.756 258.689 140.72 215.333C142.155 213.256 142.72 210.733 142.295 208.196C141.869 205.658 140.52 203.426 138.489 201.903L138.462 201.884C138.356 201.81 138.276 201.755 138.195 201.7C134.003 198.8 128.448 199.799 125.56 203.982C116.662 216.839 90.7909 265.309 130.67 349.022C131.42 350.564 132.556 351.862 133.892 352.785ZM134.712 207.123C134.738 207.142 134.792 207.178 134.818 207.197C135.442 207.668 135.882 208.366 135.997 209.154C136.138 209.96 135.952 210.737 135.491 211.402C103.457 257.774 134.93 329.611 141.548 343.517C141.9 344.233 141.953 345.057 141.696 345.824C141.44 346.591 140.943 347.192 140.231 347.526C138.772 348.249 137.033 347.598 136.31 346.074C98.0215 265.666 122.332 219.895 130.717 207.784C131.675 206.518 133.403 206.218 134.712 207.123Z" fill="#6D7BBA"/>
<path d="M123.525 392.752C120.076 390.369 119.101 385.577 121.346 382.049C123.591 378.521 128.207 377.592 131.655 379.975C135.104 382.358 136.079 387.149 133.834 390.678C131.589 394.206 126.973 395.134 123.525 392.752Z" fill="#FCB621"/>
<path d="M156.938 315.764C153.49 313.381 152.514 308.589 154.759 305.061C157.005 301.533 161.62 300.604 165.068 302.987C168.517 305.37 169.492 310.161 167.247 313.69C165.002 317.218 160.387 318.146 156.938 315.764Z" fill="#ED4294"/>
<path d="M152.644 277.898C149.195 275.516 148.22 270.724 150.465 267.195C152.71 263.667 157.326 262.739 160.774 265.121C164.222 267.504 165.198 272.296 162.953 275.824C160.708 279.352 156.092 280.281 152.644 277.898Z" fill="#45B878"/>
<path d="M186.684 296.953C183.236 294.571 182.261 289.779 184.506 286.251C186.751 282.723 191.367 281.794 194.815 284.177C198.264 286.559 199.239 291.351 196.994 294.879C194.749 298.407 190.133 299.336 186.684 296.953Z" fill="#FCB621"/>
<path d="M155.345 248.67C151.897 246.287 150.921 241.496 153.166 237.967C155.412 234.439 160.027 233.51 163.476 235.893C166.924 238.276 167.899 243.068 165.654 246.596C163.409 250.124 158.794 251.053 155.345 248.67Z" fill="#FCB621"/>
<path d="M227.295 289.339C223.847 286.956 222.871 282.165 225.117 278.636C227.362 275.108 231.977 274.179 235.426 276.562C238.874 278.945 239.85 283.736 237.604 287.265C235.359 290.793 230.744 291.722 227.295 289.339Z" fill="#45B878"/>
<path d="M101.782 410.345C98.3339 407.962 97.3584 403.171 99.6037 399.642C101.849 396.114 106.465 395.186 109.913 397.568C113.361 399.951 114.337 404.743 112.092 408.271C109.846 411.799 105.231 412.728 101.782 410.345Z" fill="#45B878"/>
<path d="M252.207 271.858L280.053 290.917C282.319 292.468 285.325 291.833 286.779 289.55C288.251 287.239 287.589 284.133 285.351 282.601L257.504 263.542C255.239 261.991 252.232 262.626 250.778 264.909C249.324 267.192 249.942 270.308 252.207 271.858Z" fill="#FCB621"/>
<path d="M283.974 127.739L311.821 146.798C314.086 148.348 317.092 147.713 318.547 145.43C320.018 143.12 319.357 140.014 317.118 138.482L289.271 119.422C287.006 117.872 284 118.507 282.545 120.79C281.091 123.073 281.709 126.189 283.974 127.739Z" fill="#FCB621"/>
<path d="M308.697 112.18L332.122 128.222C334.387 129.773 337.395 129.139 338.85 126.856C340.322 124.545 339.661 121.438 337.423 119.905L313.998 103.862C311.733 102.311 308.726 102.945 307.27 105.229C305.815 107.512 306.459 110.647 308.697 112.18Z" fill="#45B878"/>
<path d="M145.863 207.747L173.71 226.806C175.975 228.356 178.982 227.721 180.436 225.438C181.89 223.155 181.246 220.021 179.008 218.489L151.161 199.43C148.896 197.88 145.889 198.515 144.435 200.798C142.981 203.081 143.598 206.196 145.863 207.747Z" fill="#45B878"/>
<path d="M164.219 184.959L214.36 219.215C216.625 220.763 219.628 220.125 221.079 217.842C222.547 215.532 221.884 212.428 219.646 210.899L169.505 176.643C167.24 175.095 164.237 175.733 162.786 178.016C161.335 180.298 161.954 183.411 164.219 184.959Z" fill="#FCB621"/>
<path d="M195.403 167.128L245.544 201.386C247.809 202.933 250.812 202.295 252.263 200.013C253.714 197.73 253.068 194.599 250.83 193.07L200.689 158.812C198.424 157.265 195.421 157.903 193.97 160.185C192.519 162.468 193.138 165.581 195.403 167.128Z" fill="#ED4294"/>
<path d="M254.855 242.592L286.218 264.049C288.483 265.599 291.489 264.963 292.943 262.68C294.414 260.37 293.752 257.264 291.513 255.733L260.15 234.276C257.885 232.726 254.879 233.362 253.426 235.645C251.955 237.955 252.617 241.061 254.855 242.592Z" fill="#45B878"/>
<path d="M132.925 208.937C135.598 210.786 139.163 210.258 141.158 207.659C151.778 193.768 168.003 182.376 186.791 175.554C202.611 169.832 220.749 166.581 242.246 165.613C248.024 165.355 253.947 165.355 260.223 165.403C288.865 165.478 321.273 165.558 340.635 136.004C353.392 116.5 353.317 87.7616 340.458 69.1717C331.903 56.8305 317.822 49.0189 301.79 47.7383C285.245 46.4179 269.197 52.3766 258.946 63.6859C246.783 77.1003 242.993 99.2626 248.545 124.461L249.681 130.369C250.348 133.864 253.618 136.166 256.979 135.536C260.34 134.906 262.503 131.557 261.836 128.061L260.663 121.969C258.436 111.839 254.738 87.1744 268.036 72.5757C275.816 64.0095 288.168 59.5126 301.05 60.5448C313.375 61.546 324.083 67.3392 330.41 76.5235C340.214 90.7143 340.18 113.624 330.325 128.674C314.613 152.715 288.102 152.616 260.034 152.545C253.899 152.516 247.561 152.505 241.491 152.797C218.767 153.822 199.482 157.305 182.553 163.441C161.326 171.137 143.646 183.61 131.432 199.59C129.333 202.354 129.811 206.389 132.498 208.641C132.631 208.734 132.792 208.845 132.925 208.937Z" fill="#6D7BBA"/>
<path d="M131.19 211.663C135.306 214.511 140.671 213.692 143.694 209.715C153.973 196.3 169.672 185.255 187.914 178.688C203.434 173.075 221.263 169.886 242.458 168.908C248.165 168.641 254.07 168.668 260.293 168.679C275.038 168.715 290.269 168.772 304.741 164.994C321.593 160.618 334.195 151.725 343.286 137.881C356.764 117.301 356.653 86.9258 343.049 67.27C333.965 54.1294 319.004 45.8272 302.008 44.4305C284.508 43.0398 267.545 49.3493 256.64 61.3863C243.743 75.5917 239.681 98.7855 245.457 125.082L246.584 130.944C247.081 133.494 248.476 135.72 250.57 137.208C252.637 138.678 255.163 139.243 257.615 138.773C260.067 138.302 262.19 136.895 263.589 134.751C264.988 132.606 265.472 130.025 264.975 127.475L263.783 121.292C261.688 111.804 258.162 88.3254 270.386 74.8763C277.529 67.0127 288.92 62.8772 300.874 63.858C312.26 64.762 322.07 70.0911 327.856 78.4284C332.214 84.7135 334.58 93.1671 334.567 102.22C334.563 111.319 332.098 120.054 327.692 126.817C320.992 137.074 311.887 143.304 299.035 146.469C287.293 149.337 274.042 149.311 260.014 149.298C253.835 149.278 247.453 149.275 241.33 149.531C218.279 150.525 198.686 154.069 181.458 160.313C159.678 168.214 141.498 181.05 128.918 197.484C127.376 199.49 126.68 202.042 127.001 204.628C127.295 207.195 128.549 209.521 130.539 211.174C130.736 211.349 130.949 211.497 131.19 211.663ZM326.443 59.6815C330.907 62.7695 334.759 66.5775 337.85 71.0405C349.989 88.5798 350.011 115.702 337.975 134.128C329.807 146.64 318.379 154.651 303.096 158.616C289.381 162.169 274.549 162.151 260.193 162.108C253.899 162.088 247.95 162.07 242.084 162.345C220.27 163.328 201.824 166.642 185.749 172.462C166.425 179.462 149.7 191.216 138.697 205.589C137.756 206.829 136.001 207.112 134.691 206.206C134.611 206.15 134.531 206.095 134.477 206.058C133.844 205.541 133.438 204.787 133.34 203.971C133.242 203.155 133.463 202.322 133.951 201.675C145.807 186.198 163.005 174.063 183.659 166.603C200.333 160.567 219.308 157.147 241.713 156.139C247.695 155.865 253.988 155.885 260.097 155.895C274.541 155.92 288.163 155.968 300.645 152.902C314.899 149.407 325.504 142.087 333.029 130.588C338.139 122.776 340.961 112.751 340.977 102.36C340.984 91.9238 338.177 82.1022 333.055 74.6578C326.155 64.6827 314.574 58.3256 301.304 57.3C287.466 56.1976 274.183 61.0729 265.765 70.3397C251.481 86.0668 255.283 112.14 257.611 122.655L258.775 128.701C258.943 129.527 258.767 130.35 258.332 131.035C257.898 131.719 257.214 132.192 256.438 132.324C255.661 132.457 254.873 132.305 254.205 131.843L254.178 131.825C253.51 131.362 253.042 130.645 252.9 129.838L251.746 123.838C246.41 99.6974 249.921 78.6444 261.377 66.0427C270.99 55.4364 286.078 49.8392 301.694 51.1083C310.85 51.7695 319.388 54.8 326.443 59.6815Z" fill="#6D7BBA"/>
<path d="M275.33 303.943C278.054 305.827 281.731 305.182 283.627 302.438C292.282 289.962 317.39 242.809 278.286 160.767C276.794 157.609 273.105 156.277 270.108 157.787C267.085 159.278 265.863 163.078 267.373 166.209C273.864 179.832 304.668 250.07 273.686 294.972C271.738 297.797 272.382 301.746 275.143 303.813C275.196 303.85 275.277 303.906 275.33 303.943Z" fill="#6D7BBA"/>
<path d="M273.591 306.668C277.784 309.567 283.339 308.568 286.227 304.386C295.125 291.528 320.996 243.058 281.117 159.345C278.812 154.563 273.233 152.515 268.672 154.792C266.44 155.886 264.774 157.843 264.005 160.263C263.236 162.684 263.38 165.302 264.491 167.606C270.856 180.943 301.022 249.632 271.057 292.988C269.622 295.066 269.058 297.588 269.483 300.126C269.908 302.664 271.258 304.896 273.288 306.419C273.405 306.538 273.511 306.612 273.591 306.668ZM274.429 160.978C274.856 161.274 275.214 161.679 275.431 162.183C313.72 242.592 289.41 288.363 281.025 300.473C280.12 301.776 278.374 302.103 277.066 301.198C277.039 301.18 276.986 301.143 276.959 301.124C276.336 300.654 275.922 299.974 275.78 299.168C275.639 298.362 275.825 297.585 276.286 296.92C308.32 250.547 276.848 178.711 270.23 164.805C269.878 164.089 269.824 163.265 270.081 162.498C270.338 161.731 270.835 161.13 271.547 160.796C272.495 160.271 273.574 160.387 274.429 160.978Z" fill="#6D7BBA"/>
<path d="M280.166 128.336C276.717 125.953 275.742 121.162 277.987 117.633C280.232 114.105 284.848 113.176 288.296 115.559C291.745 117.942 292.72 122.734 290.475 126.262C288.23 129.79 283.614 130.719 280.166 128.336Z" fill="#FCB621"/>
<path d="M246.753 205.325C243.304 202.942 242.329 198.151 244.574 194.622C246.819 191.094 251.435 190.166 254.883 192.548C258.332 194.931 259.307 199.723 257.062 203.251C254.817 206.779 250.201 207.708 246.753 205.325Z" fill="#ED4294"/>
<path d="M251.003 243.2C247.555 240.818 246.579 236.026 248.824 232.498C251.07 228.969 255.685 228.041 259.134 230.423C262.582 232.806 263.557 237.598 261.312 241.126C259.067 244.654 254.451 245.583 251.003 243.2Z" fill="#45B878"/>
<path d="M217.006 224.135C213.558 221.752 212.582 216.96 214.828 213.432C217.073 209.904 221.688 208.975 225.137 211.358C228.585 213.74 229.561 218.532 227.315 222.06C225.07 225.589 220.455 226.517 217.006 224.135Z" fill="#FCB621"/>
<path d="M248.346 272.42C244.898 270.038 243.922 265.246 246.167 261.718C248.412 258.189 253.028 257.261 256.476 259.643C259.925 262.026 260.9 266.818 258.655 270.346C256.41 273.874 251.794 274.803 248.346 272.42Z" fill="#FCB621"/>
<path d="M176.369 231.732C172.921 229.349 171.945 224.557 174.19 221.029C176.436 217.501 181.051 216.572 184.499 218.955C187.948 221.338 188.923 226.129 186.678 229.658C184.433 233.186 179.818 234.115 176.369 231.732Z" fill="#45B878"/>
<path d="M301.891 110.771C298.442 108.388 297.467 103.596 299.712 100.068C301.957 96.5398 306.573 95.6111 310.021 97.9938C313.47 100.376 314.445 105.168 312.2 108.696C309.955 112.225 305.339 113.153 301.891 110.771Z" fill="#45B878"/>
</g>
<defs>
<filter id="filter0_d" x="58.4694" y="44.2406" width="354.854" height="423.828" filterUnits="userSpaceOnUse" color-interpolation-filters="sRGB">
<feFlood flood-opacity="0" result="BackgroundImageFix"/>
<feColorMatrix in="SourceAlpha" type="matrix" values="0 0 0 0 0 0 0 0 0 0 0 0 0 0 0 0 0 0 127 0"/>
<feOffset dx="60" dy="4"/>
<feColorMatrix type="matrix" values="0 0 0 0 0.427451 0 0 0 0 0.482353 0 0 0 0 0.729412 0 0 0 0.04 0"/>
<feBlend mode="normal" in2="BackgroundImageFix" result="effect1_dropShadow"/>
<feBlend mode="normal" in="SourceGraphic" in2="effect1_dropShadow" result="shape"/>
</filter>
</defs>
</svg>
