<svg width="523" height="523" viewBox="0 0 523 523" fill="none" xmlns="http://www.w3.org/2000/svg">
<path d="M385.246 269.434C385.246 340.297 327.792 397.752 256.928 397.752C224.594 397.752 225.309 339.493 202.743 319.762C175.849 296.239 128.61 307.962 128.61 269.434C128.61 198.57 186.065 141.116 256.928 141.116C291.447 141.116 304.907 187.575 325.902 211.711C340.167 228.096 385.246 233.089 385.246 269.434Z" fill="#6D7BBA"/>
<path d="M401.173 207.371C429.409 286.714 387.973 373.938 308.629 402.174C272.425 415.058 250.012 349.542 216.884 336.442C177.398 320.82 129.179 352.768 113.827 309.629C85.5905 230.286 127.027 143.063 206.371 114.827C245.02 101.072 278.603 147.728 311.727 166.387C334.228 179.048 386.692 166.677 401.173 207.371Z" fill="#6D7BBA" fill-opacity="0.11"/>
<path d="M161.914 99.5864C251.33 44.5899 368.417 72.4969 423.414 161.914C448.508 202.714 374.441 247.026 367.058 290.812C358.249 343.005 409.702 393.512 361.086 423.414C271.67 478.41 154.583 450.503 99.5865 361.086C72.7968 317.53 120.973 264.49 135.135 219.266C144.739 188.551 116.053 127.793 161.914 99.5864Z" fill="#6D7BBA" fill-opacity="0.07"/>
<path opacity="0.4" d="M253.369 290.964H226.348" stroke="white" stroke-width="7" stroke-linecap="round" stroke-linejoin="round"/>
<path fill-rule="evenodd" clip-rule="evenodd" d="M288.109 290.964C288.109 296.293 283.788 300.614 278.459 300.614C273.129 300.614 268.809 296.293 268.809 290.964C268.809 285.63 273.129 281.313 278.459 281.313C283.788 281.313 288.109 285.63 288.109 290.964Z" stroke="white" stroke-width="7" stroke-linecap="round" stroke-linejoin="round"/>
<path opacity="0.4" d="M261.089 248.503H288.109" stroke="white" stroke-width="7" stroke-linecap="round" stroke-linejoin="round"/>
<path fill-rule="evenodd" clip-rule="evenodd" d="M226.348 248.503C226.348 253.837 230.669 258.153 235.998 258.153C241.328 258.153 245.649 253.837 245.649 248.503C245.649 243.174 241.328 238.853 235.998 238.853C230.669 238.853 226.348 243.174 226.348 248.503Z" stroke="white" stroke-width="7" stroke-linecap="round" stroke-linejoin="round"/>
</svg>
