<svg width="596" height="785" viewBox="0 0 596 785" fill="none" xmlns="http://www.w3.org/2000/svg">
<g clip-path="url(#clip0)">
<path d="M489.986 530.683C489.986 713.652 351.912 861.999 181.614 861.999C103.907 861.999 105.625 711.575 51.396 660.631C-13.2371 599.894 -126.759 630.163 -126.759 530.683C-126.759 347.713 11.3149 199.366 181.614 199.366C264.569 199.366 296.916 319.323 347.37 381.643C381.651 423.948 489.986 436.841 489.986 530.683Z" fill="#6D7BBA" fill-opacity="0.04"/>
<g clip-path="url(#clip1)">
<path d="M440.847 318.543L438.162 326.363C437.94 327.008 437.296 327.322 436.722 327.105C436.128 326.881 435.85 326.193 436.064 325.57L438.749 317.75C438.971 317.105 439.615 316.791 440.189 317.008C440.763 317.225 441.069 317.899 440.847 318.543Z" fill="#FCB621"/>
<path d="M415.876 295.916L413.19 303.736C412.969 304.381 412.324 304.695 411.75 304.478C411.156 304.253 410.878 303.566 411.092 302.943L413.778 295.122C413.999 294.478 414.644 294.164 415.218 294.381C415.799 294.576 416.097 295.272 415.876 295.916Z" fill="#FCB621"/>
<path d="M409.211 296.697L406.954 303.271C406.732 303.915 406.088 304.23 405.514 304.013C404.92 303.788 404.642 303.1 404.856 302.477L407.113 295.903C407.335 295.259 407.979 294.944 408.553 295.161C409.127 295.378 409.425 296.074 409.211 296.697Z" fill="#45B878"/>
<path d="M452.229 290.223L449.543 298.043C449.322 298.688 448.677 299.002 448.103 298.785C447.509 298.561 447.231 297.873 447.445 297.25L450.131 289.43C450.352 288.785 450.997 288.471 451.571 288.688C452.152 288.883 452.45 289.579 452.229 290.223Z" fill="#45B878"/>
<path d="M445.788 288.661L440.947 302.754C440.726 303.399 440.081 303.713 439.507 303.496C438.913 303.271 438.635 302.583 438.849 301.96L443.689 287.867C443.911 287.223 444.556 286.908 445.13 287.125C445.711 287.321 446.009 288.016 445.788 288.661Z" fill="#FCB621"/>
<path d="M437.616 289.988L432.776 304.081C432.554 304.726 431.909 305.04 431.335 304.823C430.742 304.598 430.463 303.91 430.677 303.287L435.518 289.194C435.739 288.55 436.384 288.235 436.958 288.452C437.532 288.669 437.83 289.365 437.616 289.988Z" fill="#ED4294"/>
<path d="M436.494 313.377L433.469 322.185C433.247 322.829 432.603 323.144 432.029 322.927C431.435 322.702 431.157 322.014 431.371 321.391L434.396 312.583C434.617 311.938 435.262 311.624 435.836 311.841C436.417 312.037 436.715 312.732 436.494 313.377Z" fill="#45B878"/>
<path d="M454.975 288.738C454.716 289.49 453.968 289.911 453.253 289.713C449.406 288.671 444.85 288.914 440.42 290.418C436.698 291.68 432.85 293.769 428.684 296.781C427.556 297.592 426.445 298.483 425.272 299.423C419.89 303.698 413.821 308.539 406.255 305.823C401.257 304.03 397.474 298.569 397.425 293.113C397.389 289.506 399.002 285.917 401.853 283.281C404.8 280.561 408.588 279.299 412.021 279.918C416.085 280.654 419.733 284.292 422.035 289.896L422.602 291.179C422.944 291.939 422.627 292.863 421.913 293.248C421.199 293.634 420.348 293.312 420.005 292.551L419.415 291.211C418.486 288.966 415.905 283.718 411.475 282.94C408.885 282.47 405.955 283.449 403.662 285.568C401.472 287.58 400.229 290.289 400.268 292.974C400.3 297.113 403.345 301.469 407.207 302.857C413.352 305.085 418.317 301.113 423.584 296.915C424.729 295.989 425.922 295.056 427.112 294.196C431.517 291.007 435.61 288.793 439.608 287.441C444.624 285.794 449.616 285.522 454.031 286.731C454.786 286.943 455.24 287.77 455.019 288.609C455.004 288.652 454.989 288.695 454.975 288.738Z" fill="#FCB621"/>
<path d="M397.118 288.602C397.908 286.303 399.286 284.179 401.179 282.443C404.361 279.496 408.493 278.146 412.218 278.827C416.62 279.618 420.568 283.49 423 289.435L423.566 290.717C423.859 291.362 423.882 292.075 423.666 292.77C423.659 292.791 423.659 292.791 423.651 292.813C423.423 293.479 422.971 294.012 422.393 294.328C421.795 294.635 421.125 294.698 420.485 294.479C419.871 294.247 419.358 293.786 419.065 293.142L418.462 291.772C417.628 289.709 415.228 284.844 411.29 284.132C408.992 283.724 406.405 284.614 404.354 286.484C402.419 288.277 401.313 290.65 401.337 292.99C401.359 296.639 404.162 300.588 407.562 301.826C413.173 303.851 417.718 300.254 422.985 296.056C424.15 295.138 425.35 294.184 426.547 293.302C431.042 290.05 435.216 287.793 439.315 286.407C444.529 284.641 449.701 284.364 454.302 285.619C454.938 285.786 455.478 286.233 455.805 286.843C456.133 287.452 456.216 288.187 456.046 288.876C456.024 288.94 455.995 289.026 455.973 289.091C455.523 290.401 454.236 291.153 452.991 290.803C449.33 289.807 444.974 290.052 440.746 291.487C437.126 292.715 433.359 294.762 429.283 297.711C428.181 298.508 427.078 299.377 425.932 300.303C420.338 304.741 414.022 309.78 405.942 306.869C400.568 304.933 396.453 299.007 396.397 293.112C396.36 291.592 396.617 290.063 397.118 288.602ZM421.659 292.035C421.659 292.035 421.667 292.014 421.659 292.035C421.682 291.971 421.699 291.856 421.656 291.719L421.078 290.407C418.925 285.151 415.556 281.74 411.831 281.059C408.69 280.502 405.233 281.646 402.52 284.14C399.924 286.556 398.448 289.809 398.469 293.07C398.52 298.066 402.011 303.076 406.605 304.741C413.629 307.277 419.231 302.817 424.648 298.506C425.848 297.552 426.959 296.662 428.088 295.85C432.342 292.775 436.272 290.644 440.122 289.333C444.735 287.753 449.492 287.513 453.544 288.609C453.749 288.662 453.947 288.543 454.001 288.321C454.032 288.163 453.995 288.076 453.97 288.018C453.946 287.96 453.869 287.858 453.743 287.835C449.512 286.671 444.748 286.933 439.913 288.575C436.016 289.892 432.005 292.065 427.688 295.19C426.533 296.015 425.36 296.955 424.222 297.859C418.955 302.057 413.519 306.361 406.871 303.967C402.633 302.437 399.269 297.645 399.238 293.045C399.203 290.022 400.577 286.998 403.028 284.745C405.556 282.4 408.81 281.324 411.699 281.835C416.626 282.727 419.415 288.346 420.406 290.736L420.984 292.047C421.054 292.17 421.146 292.229 421.205 292.252C421.264 292.274 421.371 292.29 421.479 292.234C421.581 292.2 421.645 292.078 421.659 292.035Z" fill="#FCB621"/>
<path d="M440.802 328.115C440.537 328.889 439.768 329.302 439.041 329.076C435.77 327.984 424.766 322.777 421.236 301.343C421.096 300.513 421.616 299.714 422.382 299.567C423.156 299.399 423.886 299.942 424.006 300.764C424.599 304.314 428.115 322.272 439.904 326.173C440.643 326.429 441.05 327.263 440.797 328.065C440.817 328.072 440.81 328.094 440.802 328.115Z" fill="#FCB621"/>
<path d="M420.319 300.17C420.615 299.311 421.318 298.63 422.193 298.427C422.845 298.286 423.488 298.432 424.043 298.836C424.578 299.232 424.952 299.835 425.05 300.527C425.307 302.057 426.321 307.441 428.724 312.817C431.676 319.395 435.563 323.511 440.261 325.07C440.882 325.281 441.395 325.742 441.695 326.365C441.995 326.988 442.039 327.709 441.83 328.382C441.815 328.425 441.808 328.447 441.793 328.49C441.328 329.843 439.982 330.572 438.713 330.165C435.296 329.042 423.851 323.62 420.193 301.579C420.123 301.067 420.172 300.6 420.319 300.17ZM439.813 327.741L439.821 327.719C439.865 327.59 439.835 327.482 439.803 327.446C439.778 327.388 439.721 327.293 439.595 327.27C427.225 323.173 423.586 304.659 422.984 301.008C422.961 300.878 422.877 300.798 422.845 300.761C422.793 300.717 422.694 300.68 422.573 300.707C422.378 300.755 422.244 300.947 422.284 301.156C425.722 321.949 436.232 326.969 439.384 328.015C439.557 328.032 439.747 327.934 439.813 327.741Z" fill="#FCB621"/>
<path d="M413.44 294.218C413.106 295.191 413.562 296.254 414.458 296.593C415.354 296.933 416.352 296.419 416.686 295.446C417.02 294.473 416.564 293.409 415.668 293.07C414.772 292.731 413.774 293.245 413.44 294.218Z" fill="#FCB621"/>
<path d="M429.853 303.8C429.518 304.773 429.974 305.837 430.871 306.176C431.767 306.515 432.765 306.001 433.099 305.028C433.433 304.055 432.977 302.992 432.081 302.653C431.184 302.314 430.187 302.827 429.853 303.8Z" fill="#ED4294"/>
<path d="M434.038 311.671C433.704 312.644 434.16 313.707 435.056 314.047C435.953 314.386 436.95 313.872 437.284 312.899C437.618 311.926 437.163 310.862 436.266 310.523C435.37 310.184 434.372 310.698 434.038 311.671Z" fill="#45B878"/>
<path d="M437.884 302.882C437.55 303.855 438.006 304.918 438.902 305.258C439.799 305.597 440.796 305.083 441.13 304.11C441.464 303.137 441.009 302.073 440.112 301.734C439.216 301.395 438.218 301.909 437.884 302.882Z" fill="#FCB621"/>
<path d="M438.399 316.816C438.065 317.789 438.521 318.853 439.417 319.192C440.314 319.531 441.311 319.017 441.645 318.044C441.979 317.071 441.524 316.008 440.627 315.669C439.731 315.33 438.733 315.843 438.399 316.816Z" fill="#FCB621"/>
<path d="M446.46 298.164C446.126 299.137 446.582 300.2 447.478 300.539C448.375 300.878 449.372 300.364 449.706 299.392C450.04 298.419 449.585 297.355 448.688 297.016C447.792 296.677 446.794 297.191 446.46 298.164Z" fill="#45B878"/>
<path d="M407.063 294.16C406.729 295.133 407.185 296.197 408.081 296.536C408.978 296.875 409.975 296.361 410.309 295.388C410.644 294.415 410.188 293.352 409.291 293.012C408.395 292.673 407.397 293.187 407.063 294.16Z" fill="#45B878"/>
<path d="M453.434 297.719L456.12 289.899C456.341 289.254 456.986 288.94 457.56 289.157C458.154 289.381 458.432 290.069 458.218 290.692L455.532 298.512C455.311 299.157 454.666 299.471 454.092 299.254C453.518 299.037 453.213 298.363 453.434 297.719Z" fill="#FCB621"/>
<path d="M478.386 320.339L481.072 312.519C481.293 311.874 481.938 311.56 482.512 311.777C483.106 312.002 483.384 312.689 483.17 313.312L480.484 321.133C480.263 321.777 479.618 322.091 479.044 321.874C478.47 321.657 478.172 320.962 478.386 320.339Z" fill="#FCB621"/>
<path d="M485.058 319.537L487.316 312.963C487.537 312.318 488.182 312.004 488.756 312.221C489.35 312.445 489.628 313.133 489.414 313.756L487.156 320.33C486.935 320.975 486.29 321.289 485.716 321.072C485.142 320.855 484.837 320.181 485.058 319.537Z" fill="#45B878"/>
<path d="M442.053 326.039L444.739 318.219C444.96 317.574 445.605 317.26 446.179 317.477C446.753 317.694 447.051 318.39 446.837 319.013L444.151 326.833C443.93 327.477 443.285 327.792 442.711 327.575C442.13 327.379 441.832 326.684 442.053 326.039Z" fill="#45B878"/>
<path d="M448.494 327.601L453.334 313.508C453.556 312.864 454.201 312.549 454.775 312.766C455.349 312.983 455.647 313.679 455.433 314.302L450.592 328.395C450.371 329.04 449.726 329.354 449.152 329.137C448.578 328.92 448.28 328.224 448.494 327.601Z" fill="#FCB621"/>
<path d="M456.666 326.275L461.506 312.181C461.728 311.537 462.372 311.222 462.946 311.44C463.52 311.657 463.818 312.352 463.604 312.975L458.764 327.068C458.543 327.713 457.898 328.027 457.324 327.81C456.75 327.593 456.452 326.898 456.666 326.275Z" fill="#ED4294"/>
<path d="M457.788 302.886L460.813 294.077C461.034 293.433 461.679 293.118 462.253 293.336C462.847 293.56 463.125 294.248 462.911 294.871L459.886 303.679C459.665 304.324 459.02 304.638 458.446 304.421C457.872 304.204 457.566 303.53 457.788 302.886Z" fill="#45B878"/>
<path d="M439.286 327.517C439.544 326.766 440.292 326.345 441.007 326.542C444.854 327.585 449.41 327.342 453.841 325.838C457.562 324.575 461.41 322.487 465.576 319.475C466.704 318.664 467.815 317.773 468.988 316.833C474.37 312.558 480.439 307.716 488.005 310.433C493.003 312.226 496.786 317.687 496.835 323.143C496.871 326.749 495.259 330.339 492.408 332.974C489.46 335.695 485.672 336.957 482.239 336.338C478.176 335.602 474.527 331.964 472.225 326.359L471.659 325.077C471.316 324.316 471.633 323.393 472.347 323.007C473.061 322.622 473.912 322.944 474.255 323.705L474.846 325.045C475.775 327.289 478.355 332.538 482.785 333.316C485.375 333.785 488.305 332.806 490.598 330.688C492.788 328.676 494.032 325.967 493.992 323.281C493.96 319.142 490.916 314.787 487.054 313.399C480.908 311.171 475.943 315.143 470.677 319.341C469.531 320.267 468.338 321.2 467.148 322.06C462.743 325.249 458.65 327.463 454.652 328.815C449.641 330.512 444.649 330.785 440.254 329.583C439.499 329.37 439.045 328.543 439.266 327.704C439.276 327.611 439.271 327.56 439.286 327.517Z" fill="#FCB621"/>
<path d="M438.297 327.143C438.747 325.832 440.034 325.081 441.278 325.43C444.939 326.427 449.295 326.181 453.543 324.754C457.163 323.526 460.93 321.479 465.006 318.53C466.108 317.733 467.211 316.864 468.357 315.938C473.952 311.5 480.274 306.44 488.348 309.372C493.721 311.308 497.837 317.234 497.892 323.129C497.924 327.074 496.18 330.978 493.095 333.841C489.913 336.788 485.782 338.138 482.057 337.457C477.654 336.666 473.706 332.793 471.275 326.849L470.709 325.567C470.416 324.922 470.392 324.209 470.608 323.514C470.837 322.848 471.276 322.286 471.881 321.956C472.479 321.649 473.149 321.586 473.79 321.804C474.403 322.037 474.916 322.498 475.209 323.142L475.812 324.512C476.647 326.575 479.047 331.44 482.984 332.152C485.282 332.56 487.869 331.67 489.92 329.8C491.855 328.007 492.961 325.634 492.937 323.294C492.896 319.637 490.1 315.667 486.7 314.429C481.089 312.404 476.544 316.001 471.277 320.199C470.112 321.117 468.912 322.071 467.714 322.953C463.22 326.205 459.046 328.462 454.947 329.848C449.753 331.622 444.561 331.891 439.967 330.615C439.331 330.447 438.792 330 438.464 329.391C438.137 328.781 438.054 328.046 438.223 327.358C438.265 327.301 438.275 327.207 438.297 327.143ZM495.184 326.911C495.597 325.708 495.812 324.43 495.793 323.185C495.742 318.189 492.251 313.179 487.657 311.514C480.633 308.978 475.031 313.438 469.614 317.749C468.414 318.703 467.303 319.593 466.174 320.405C461.92 323.48 457.99 325.611 454.14 326.922C449.527 328.502 444.75 328.734 440.718 327.646C440.513 327.593 440.315 327.712 440.261 327.934C440.23 328.092 440.267 328.179 440.292 328.237C440.316 328.295 440.393 328.397 440.519 328.42C444.749 329.584 449.514 329.322 454.349 327.68C458.246 326.363 462.257 324.19 466.574 321.065C467.737 320.219 468.909 319.279 470.048 318.374C475.306 314.198 480.75 309.873 487.418 312.274C491.656 313.804 495.02 318.596 495.051 323.196C495.086 326.219 493.712 329.243 491.261 331.496C488.733 333.841 485.499 334.924 482.59 334.406C477.663 333.514 474.874 327.895 473.883 325.505L473.305 324.194C473.235 324.071 473.144 324.012 473.084 323.989C473.025 323.967 472.918 323.951 472.81 324.007C472.694 324.084 472.637 324.184 472.615 324.249C472.593 324.313 472.576 324.428 472.625 324.544L473.204 325.855C475.357 331.112 478.726 334.522 482.451 335.203C485.572 335.753 489.049 334.616 491.742 332.115C493.346 330.634 494.52 328.845 495.184 326.911Z" fill="#FCB621"/>
<path d="M453.478 288.147C453.743 287.374 454.512 286.96 455.239 287.187C458.51 288.279 469.514 293.485 473.045 314.92C473.185 315.75 472.664 316.548 471.898 316.695C471.124 316.864 470.394 316.321 470.274 315.498C469.681 311.949 466.165 293.99 454.376 290.089C453.637 289.834 453.23 289 453.483 288.198C453.463 288.19 453.47 288.169 453.478 288.147Z" fill="#FCB621"/>
<path d="M452.489 287.773C452.954 286.419 454.3 285.69 455.569 286.098C458.986 287.22 470.431 292.642 474.088 314.683C474.328 316.133 473.428 317.517 472.096 317.814C471.444 317.955 470.801 317.809 470.246 317.405C469.692 317.001 469.337 316.406 469.239 315.713C468.982 314.184 467.968 308.8 465.565 303.424C462.613 296.846 458.726 292.729 454.028 291.171C453.407 290.96 452.894 290.499 452.594 289.876C452.294 289.252 452.25 288.532 452.459 287.859L452.489 287.773ZM471.983 315.343C472.005 315.279 472.007 315.207 472.01 315.135C468.572 294.342 458.042 289.315 454.91 288.276C454.732 288.209 454.535 288.328 454.468 288.521L454.454 288.564C454.417 288.672 454.446 288.78 454.471 288.838C454.496 288.896 454.553 288.99 454.679 289.014C467.049 293.111 470.688 311.625 471.303 315.305C471.325 315.434 471.41 315.515 471.442 315.551C471.494 315.595 471.593 315.633 471.714 315.606C471.842 315.557 471.939 315.472 471.983 315.343Z" fill="#FCB621"/>
<path d="M477.596 320.816C477.262 321.789 477.717 322.853 478.614 323.192C479.51 323.531 480.508 323.017 480.842 322.044C481.176 321.071 480.72 320.008 479.824 319.669C478.928 319.33 477.93 319.843 477.596 320.816Z" fill="#FCB621"/>
<path d="M461.19 311.212C460.856 312.185 461.312 313.249 462.208 313.588C463.105 313.927 464.102 313.413 464.436 312.44C464.771 311.467 464.315 310.404 463.418 310.065C462.522 309.726 461.524 310.239 461.19 311.212Z" fill="#ED4294"/>
<path d="M456.978 303.356C456.643 304.329 457.099 305.393 457.996 305.732C458.892 306.071 459.89 305.557 460.224 304.584C460.558 303.611 460.102 302.547 459.206 302.208C458.309 301.869 457.312 302.383 456.978 303.356Z" fill="#45B878"/>
<path d="M453.151 312.152C452.817 313.125 453.273 314.189 454.169 314.528C455.066 314.867 456.063 314.353 456.398 313.38C456.732 312.407 456.276 311.344 455.379 311.005C454.483 310.666 453.485 311.179 453.151 312.152Z" fill="#FCB621"/>
<path d="M452.617 298.211C452.283 299.184 452.738 300.248 453.635 300.587C454.531 300.926 455.529 300.412 455.863 299.439C456.197 298.466 455.741 297.402 454.845 297.063C453.948 296.724 452.951 297.238 452.617 298.211Z" fill="#FCB621"/>
<path d="M444.563 316.841C444.229 317.814 444.685 318.878 445.581 319.217C446.478 319.556 447.475 319.042 447.809 318.069C448.143 317.096 447.688 316.033 446.791 315.694C445.895 315.355 444.897 315.868 444.563 316.841Z" fill="#45B878"/>
<path d="M483.98 320.853C483.646 321.826 484.102 322.889 484.998 323.228C485.894 323.567 486.892 323.053 487.226 322.081C487.56 321.108 487.104 320.044 486.208 319.705C485.312 319.366 484.314 319.88 483.98 320.853Z" fill="#45B878"/>
</g>
</g>
<g clip-path="url(#clip2)">
<path d="M364.131 259.769C480.93 392.785 475.25 602.614 351.446 728.398C294.954 785.793 200.179 675.167 128.235 678.186C42.4762 681.769 -20.73 787.623 -84.2339 715.302C-201.033 582.287 -195.353 372.458 -71.5489 246.674C-11.242 185.403 88.8491 248.718 165.311 256.757C217.238 262.192 304.226 191.547 364.131 259.769Z" fill="#6D7BBA" fill-opacity="0.04"/>
<path d="M267.469 184.02L271.509 181.226C271.838 180.998 272.277 181.098 272.491 181.441C272.708 181.788 272.615 182.249 272.29 182.474L268.25 185.268C267.922 185.496 267.483 185.396 267.268 185.053C267.054 184.711 267.145 184.245 267.469 184.02Z" fill="#FCB621"/>
<path d="M272.086 205.306L276.126 202.511C276.455 202.284 276.894 202.384 277.108 202.726C277.325 203.073 277.232 203.535 276.907 203.76L272.867 206.554C272.538 206.781 272.099 206.682 271.885 206.339C271.671 205.996 271.761 205.53 272.086 205.306Z" fill="#FCB621"/>
<path d="M275.68 207.598L279.078 205.248C279.407 205.02 279.846 205.12 280.06 205.463C280.277 205.809 280.184 206.271 279.859 206.496L276.461 208.846C276.133 209.073 275.694 208.974 275.479 208.631C275.261 208.291 275.352 207.825 275.68 207.598Z" fill="#45B878"/>
<path d="M252.015 193.489L256.055 190.695C256.383 190.468 256.822 190.567 257.037 190.91C257.254 191.257 257.16 191.719 256.836 191.943L252.795 194.738C252.467 194.965 252.028 194.865 251.814 194.523C251.599 194.18 251.69 193.714 252.015 193.489Z" fill="#45B878"/>
<path d="M254.683 196.853L261.961 191.818C262.29 191.591 262.729 191.69 262.943 192.033C263.157 192.376 263.066 192.842 262.741 193.067L255.463 198.102C255.134 198.329 254.695 198.23 254.481 197.887C254.267 197.544 254.358 197.078 254.683 196.853Z" fill="#FCB621"/>
<path d="M259.214 199.486L266.493 194.451C266.822 194.224 267.261 194.324 267.475 194.667C267.689 195.009 267.598 195.476 267.273 195.7L259.994 200.735C259.666 200.963 259.227 200.863 259.013 200.52C258.799 200.177 258.89 199.711 259.214 199.486Z" fill="#ED4294"/>
<path d="M267.856 188.335L272.407 185.188C272.735 184.961 273.174 185.06 273.389 185.403C273.603 185.746 273.512 186.212 273.187 186.436L268.636 189.584C268.308 189.811 267.869 189.712 267.655 189.369C267.436 189.029 267.527 188.563 267.856 188.335Z" fill="#45B878"/>
<path d="M250.104 193.106C250.489 192.839 251.007 192.924 251.299 193.311C252.854 195.381 255.22 197.093 257.952 198.137C260.253 199.013 262.887 199.529 266.006 199.715C266.844 199.764 267.703 199.776 268.614 199.782C272.768 199.829 277.468 199.882 280.308 204.279C282.179 207.181 282.199 211.419 280.354 214.134C279.13 215.934 277.097 217.058 274.769 217.217C272.37 217.378 270.036 216.467 268.538 214.779C266.759 212.776 266.186 209.501 266.964 205.796L267.122 204.927C267.215 204.413 267.687 204.08 268.175 204.18C268.663 204.279 268.981 204.778 268.888 205.292L268.724 206.188C268.412 207.677 267.902 211.307 269.846 213.486C270.984 214.765 272.78 215.453 274.648 215.327C276.434 215.204 277.981 214.371 278.889 213.03C280.296 210.957 280.266 207.579 278.821 205.339C276.516 201.763 272.671 201.724 268.6 201.678C267.71 201.67 266.791 201.659 265.91 201.603C262.613 201.406 259.813 200.854 257.347 199.918C254.26 198.74 251.682 196.865 249.893 194.484C249.586 194.072 249.651 193.478 250.038 193.151C250.06 193.142 250.081 193.122 250.104 193.106Z" fill="#6D7BBA"/>
<path d="M278.846 216.325C277.693 217.125 276.304 217.609 274.802 217.709C272.265 217.879 269.798 216.914 268.203 215.117C266.317 212.996 265.703 209.567 266.513 205.701L266.67 204.839C266.739 204.464 266.939 204.138 267.241 203.923C267.245 203.92 267.253 203.915 267.257 203.912C267.554 203.706 267.912 203.634 268.261 203.706C268.618 203.781 268.927 203.993 269.132 204.312C269.338 204.631 269.411 205.012 269.341 205.388L269.175 206.297C268.881 207.692 268.395 211.147 270.182 213.155C271.227 214.33 272.884 214.962 274.616 214.842C276.267 214.732 277.684 213.965 278.515 212.747C279.14 211.829 279.474 210.587 279.463 209.252C279.452 207.91 279.085 206.617 278.439 205.611C277.456 204.085 276.129 203.148 274.261 202.655C272.555 202.208 270.633 202.186 268.594 202.162C267.698 202.152 266.775 202.144 265.884 202.09C262.543 201.894 259.7 201.336 257.192 200.376C254.027 199.171 251.373 197.238 249.531 194.789C249.305 194.49 249.202 194.112 249.245 193.731C249.285 193.353 249.465 193.012 249.752 192.773C249.78 192.747 249.815 192.723 249.849 192.699C250.443 192.288 251.222 192.419 251.665 193.012C253.17 195.011 255.459 196.671 258.112 197.677C260.37 198.536 262.959 199.042 266.034 199.229C266.863 199.28 267.715 199.291 268.615 199.297C270.758 199.319 272.966 199.348 275.073 199.932C277.522 200.611 279.359 201.948 280.693 204.008C282.67 207.07 282.686 211.55 280.734 214.421C280.221 215.174 279.583 215.815 278.846 216.325ZM267.763 204.73L267.759 204.732C267.662 204.799 267.595 204.904 267.576 205.023L267.415 205.905C266.666 209.455 267.198 212.566 268.874 214.448C270.279 216.032 272.474 216.887 274.738 216.732C276.923 216.584 278.832 215.535 279.976 213.855C281.714 211.295 281.695 207.297 279.923 204.554C278.724 202.692 277.058 201.487 274.837 200.872C272.844 200.32 270.693 200.293 268.61 200.27C267.691 200.259 266.832 200.247 265.983 200.199C262.818 200.01 260.139 199.484 257.801 198.593C254.991 197.522 252.552 195.755 250.941 193.613C250.803 193.428 250.548 193.383 250.359 193.514C250.348 193.522 250.336 193.53 250.328 193.535C250.233 193.613 250.179 193.721 250.166 193.841C250.152 193.961 250.185 194.084 250.257 194.181C251.993 196.487 254.501 198.311 257.504 199.453C259.929 200.377 262.685 200.92 265.936 201.113C266.808 201.163 267.724 201.177 268.603 201.186C270.696 201.208 272.674 201.232 274.484 201.712C276.555 202.256 278.101 203.357 279.205 205.068C279.955 206.231 280.375 207.715 280.388 209.247C280.4 210.786 280.004 212.229 279.269 213.317C278.279 214.774 276.606 215.688 274.682 215.813C272.676 215.947 270.744 215.201 269.513 213.818C267.424 211.47 267.948 207.632 268.274 206.086L268.437 205.197C268.46 205.075 268.434 204.954 268.37 204.852C268.306 204.75 268.207 204.679 268.094 204.658C267.973 204.642 267.859 204.663 267.763 204.73Z" fill="#6D7BBA"/>
<path d="M270.759 179.303C271.152 179.03 271.687 179.133 271.965 179.542C273.231 181.404 276.929 188.414 271.334 200.449C271.121 200.912 270.587 201.101 270.15 200.872C269.71 200.646 269.528 200.082 269.744 199.623C270.672 197.625 275.074 187.316 270.526 180.627C270.24 180.206 270.329 179.624 270.728 179.324C270.74 179.316 270.747 179.311 270.759 179.303Z" fill="#6D7BBA"/>
<path d="M271.286 201.219C270.901 201.486 270.393 201.54 269.95 201.31C269.624 201.144 269.38 200.851 269.266 200.492C269.152 200.133 269.17 199.747 269.329 199.409C270.239 197.453 274.547 187.373 270.151 180.911C269.94 180.601 269.856 180.227 269.915 179.854C269.974 179.48 270.168 179.153 270.461 178.932L270.465 178.93C270.48 178.919 270.492 178.911 270.503 178.903C271.109 178.483 271.916 178.642 272.34 179.265C273.645 181.182 277.452 188.391 271.75 200.669C271.643 200.896 271.479 201.085 271.286 201.219ZM271.015 179.711C271.011 179.713 271.003 179.719 270.999 179.721C270.909 179.79 270.846 179.892 270.83 180.008C270.81 180.127 270.838 180.242 270.906 180.341C275.605 187.253 271.111 197.795 270.165 199.834C270.115 199.939 270.108 200.061 270.146 200.175C270.184 200.289 270.257 200.378 270.361 200.429C270.573 200.539 270.825 200.446 270.928 200.223C276.403 188.429 272.825 181.621 271.595 179.816C271.455 179.628 271.204 179.58 271.015 179.711Z" fill="#6D7BBA"/>
<path d="M272.72 207.13C273.219 206.784 273.356 206.078 273.026 205.551C272.696 205.024 272.025 204.878 271.526 205.223C271.028 205.569 270.891 206.276 271.221 206.802C271.55 207.329 272.222 207.475 272.72 207.13Z" fill="#FCB621"/>
<path d="M267.864 195.759C268.363 195.414 268.5 194.707 268.17 194.18C267.84 193.654 267.169 193.507 266.67 193.852C266.172 194.198 266.035 194.905 266.365 195.431C266.694 195.958 267.366 196.105 267.864 195.759Z" fill="#ED4294"/>
<path d="M268.488 190.167C268.987 189.821 269.124 189.114 268.794 188.587C268.464 188.061 267.793 187.914 267.294 188.26C266.796 188.605 266.659 189.312 266.989 189.839C267.318 190.365 267.99 190.512 268.488 190.167Z" fill="#45B878"/>
<path d="M263.541 192.981C264.04 192.636 264.177 191.929 263.847 191.402C263.517 190.875 262.846 190.729 262.347 191.074C261.849 191.42 261.712 192.127 262.042 192.653C262.371 193.18 263.043 193.327 263.541 192.981Z" fill="#FCB621"/>
<path d="M268.096 185.85C268.594 185.504 268.731 184.797 268.401 184.271C268.072 183.744 267.4 183.597 266.902 183.943C266.403 184.288 266.266 184.995 266.596 185.522C266.926 186.048 267.597 186.195 268.096 185.85Z" fill="#FCB621"/>
<path d="M257.639 191.857C258.138 191.511 258.275 190.804 257.945 190.278C257.615 189.751 256.944 189.604 256.445 189.95C255.947 190.295 255.81 191.002 256.14 191.529C256.469 192.055 257.141 192.202 257.639 191.857Z" fill="#45B878"/>
<path d="M275.88 209.729C276.378 209.383 276.515 208.676 276.185 208.15C275.856 207.623 275.184 207.476 274.686 207.822C274.187 208.167 274.051 208.874 274.38 209.401C274.71 209.927 275.382 210.074 275.88 209.729Z" fill="#45B878"/>
<path d="M254.015 189.285L249.975 192.079C249.646 192.306 249.207 192.207 248.993 191.864C248.776 191.517 248.869 191.055 249.194 190.831L253.234 188.036C253.563 187.809 254.002 187.909 254.216 188.251C254.43 188.594 254.344 189.057 254.015 189.285Z" fill="#FCB621"/>
<path d="M249.398 167.999L245.358 170.793C245.03 171.021 244.591 170.921 244.376 170.578C244.159 170.232 244.253 169.77 244.577 169.545L248.617 166.751C248.946 166.523 249.385 166.623 249.599 166.966C249.814 167.308 249.727 167.772 249.398 167.999Z" fill="#FCB621"/>
<path d="M245.805 165.7L242.408 168.05C242.079 168.278 241.64 168.178 241.426 167.835C241.209 167.489 241.302 167.027 241.626 166.802L245.024 164.452C245.353 164.225 245.792 164.324 246.006 164.667C246.221 165.01 246.13 165.476 245.805 165.7Z" fill="#45B878"/>
<path d="M269.47 179.816L265.43 182.61C265.101 182.837 264.662 182.738 264.448 182.395C264.233 182.052 264.324 181.586 264.649 181.362L268.689 178.568C269.017 178.34 269.456 178.44 269.671 178.783C269.885 179.125 269.798 179.589 269.47 179.816Z" fill="#45B878"/>
<path d="M266.802 176.453L259.523 181.488C259.194 181.715 258.756 181.615 258.541 181.272C258.325 180.926 258.418 180.463 258.743 180.239L266.022 175.204C266.35 174.976 266.789 175.076 267.003 175.419C267.218 175.762 267.131 176.225 266.802 176.453Z" fill="#FCB621"/>
<path d="M262.27 173.82L254.991 178.854C254.663 179.082 254.224 178.982 254.01 178.639C253.796 178.296 253.886 177.83 254.211 177.605L261.49 172.571C261.819 172.343 262.258 172.443 262.472 172.786C262.686 173.129 262.599 173.592 262.27 173.82Z" fill="#ED4294"/>
<path d="M253.63 184.963L249.079 188.11C248.751 188.338 248.312 188.238 248.097 187.895C247.881 187.548 247.974 187.086 248.299 186.862L252.849 183.714C253.178 183.487 253.617 183.587 253.831 183.929C254.048 184.276 253.955 184.738 253.63 184.963Z" fill="#45B878"/>
<path d="M271.381 180.192C270.995 180.459 270.477 180.374 270.185 179.987C268.63 177.917 266.264 176.205 263.532 175.161C261.231 174.285 258.597 173.769 255.478 173.583C254.64 173.534 253.781 173.522 252.871 173.516C248.717 173.469 244.016 173.416 241.176 169.019C239.305 166.117 239.285 161.879 241.13 159.164C242.358 157.361 244.392 156.238 246.716 156.081C249.114 155.92 251.448 156.831 252.947 158.519C254.725 160.522 255.299 163.798 254.521 167.502L254.362 168.371C254.269 168.885 253.797 169.218 253.309 169.118C252.821 169.019 252.504 168.52 252.597 168.006L252.76 167.11C253.072 165.621 253.582 161.991 251.638 159.812C250.5 158.533 248.704 157.845 246.837 157.971C245.05 158.094 243.503 158.927 242.595 160.268C241.189 162.341 241.218 165.72 242.664 167.959C244.968 171.536 248.813 171.574 252.884 171.62C253.774 171.629 254.693 171.64 255.574 171.695C258.871 171.892 261.672 172.444 264.134 173.383C267.221 174.561 269.799 176.436 271.587 178.817C271.895 179.229 271.83 179.823 271.442 180.149C271.423 180.163 271.4 180.179 271.381 180.192Z" fill="#6D7BBA"/>
<path d="M271.637 180.6C271.043 181.011 270.264 180.88 269.822 180.287C268.316 178.288 266.027 176.628 263.374 175.622C261.117 174.763 258.527 174.257 255.452 174.07C254.624 174.019 253.768 174.011 252.865 174C250.726 173.976 248.517 173.953 246.414 173.367C243.965 172.688 242.127 171.351 240.794 169.291C238.817 166.229 238.8 161.749 240.752 158.878C242.056 156.958 244.217 155.764 246.681 155.592C249.218 155.423 251.685 156.387 253.28 158.185C255.166 160.305 255.78 163.734 254.97 167.601L254.813 168.463C254.744 168.838 254.544 169.163 254.241 169.379C253.943 169.591 253.577 169.67 253.221 169.595C252.865 169.521 252.556 169.309 252.35 168.99C252.145 168.671 252.072 168.289 252.142 167.914L252.308 167.005C252.602 165.61 253.088 162.154 251.3 160.146C250.256 158.972 248.599 158.339 246.866 158.46C245.216 158.57 243.799 159.336 242.968 160.554C242.343 161.472 242.009 162.714 242.02 164.049C242.031 165.391 242.398 166.684 243.044 167.691C244.027 169.217 245.354 170.154 247.222 170.647C248.928 171.093 250.85 171.116 252.885 171.142C253.781 171.152 254.707 171.165 255.595 171.215C258.94 171.408 261.785 171.97 264.291 172.925C267.459 174.135 270.109 176.064 271.952 178.513C272.177 178.812 272.281 179.19 272.237 179.571C272.198 179.949 272.018 180.289 271.731 180.529C271.703 180.554 271.672 180.576 271.637 180.6ZM243.153 157.792C242.509 158.239 241.954 158.793 241.511 159.445C239.769 162.007 239.795 166.006 241.56 168.748C242.758 170.61 244.425 171.814 246.646 172.43C248.639 172.982 250.79 173.009 252.872 173.031C253.785 173.041 254.648 173.05 255.499 173.103C258.664 173.292 261.344 173.818 263.682 174.708C266.492 175.78 268.931 177.547 270.542 179.689C270.68 179.874 270.935 179.919 271.124 179.788C271.135 179.78 271.147 179.772 271.154 179.766C271.246 179.691 271.304 179.581 271.317 179.461C271.33 179.341 271.298 179.218 271.226 179.121C269.49 176.815 266.982 174.99 263.978 173.849C261.553 172.925 258.797 172.382 255.546 172.188C254.679 172.136 253.766 172.126 252.88 172.115C250.785 172.09 248.809 172.069 246.995 171.592C244.924 171.048 243.378 169.947 242.274 168.236C241.524 167.074 241.104 165.589 241.091 164.057C241.078 162.518 241.475 161.075 242.21 159.988C243.2 158.53 244.873 157.616 246.797 157.492C248.803 157.357 250.735 158.103 251.966 159.487C254.055 161.835 253.531 165.672 253.205 167.218L253.042 168.107C253.019 168.229 253.045 168.351 253.109 168.453C253.173 168.554 253.272 168.625 253.385 168.647C253.498 168.668 253.612 168.647 253.709 168.58L253.712 168.577C253.809 168.511 253.876 168.406 253.896 168.287L254.057 167.404C254.805 163.855 254.273 160.743 252.598 158.862C251.192 157.278 248.997 156.422 246.734 156.578C245.406 156.657 244.171 157.087 243.153 157.792Z" fill="#6D7BBA"/>
<path d="M250.728 194C250.335 194.272 249.8 194.17 249.522 193.761C248.253 191.901 244.558 184.889 250.149 172.857C250.362 172.394 250.896 172.205 251.333 172.434C251.773 172.66 251.954 173.223 251.739 173.683C250.811 175.681 246.413 185.987 250.957 192.679C251.243 193.1 251.154 193.681 250.755 193.981C250.747 193.986 250.736 193.994 250.728 194Z" fill="#6D7BBA"/>
<path d="M250.984 194.407C250.378 194.827 249.571 194.668 249.147 194.045C247.842 192.128 244.035 184.919 249.737 172.641C250.067 171.939 250.874 171.648 251.539 171.994C251.864 172.16 252.108 172.452 252.222 172.811C252.336 173.17 252.318 173.556 252.159 173.894C251.249 175.85 246.942 185.93 251.338 192.393C251.548 192.702 251.633 193.076 251.574 193.45C251.515 193.824 251.321 194.15 251.028 194.371C251.011 194.389 250.996 194.399 250.984 194.407ZM250.71 172.895C250.648 172.938 250.596 172.997 250.565 173.071C245.091 184.865 248.668 191.672 249.898 193.477C250.031 193.672 250.285 193.724 250.474 193.593C250.478 193.59 250.486 193.585 250.489 193.582C250.579 193.514 250.639 193.414 250.658 193.295C250.678 193.177 250.65 193.062 250.583 192.963C245.883 186.051 250.377 175.509 251.323 173.469C251.374 173.364 251.381 173.242 251.342 173.129C251.304 173.015 251.232 172.925 251.128 172.874C250.99 172.795 250.833 172.81 250.71 172.895Z" fill="#6D7BBA"/>
<path d="M249.956 168.077C250.454 167.732 250.591 167.025 250.261 166.498C249.932 165.972 249.26 165.825 248.762 166.17C248.263 166.516 248.126 167.223 248.456 167.749C248.786 168.276 249.457 168.423 249.956 168.077Z" fill="#FCB621"/>
<path d="M254.812 179.448C255.31 179.103 255.447 178.396 255.117 177.869C254.787 177.343 254.116 177.196 253.617 177.541C253.119 177.887 252.982 178.594 253.312 179.12C253.642 179.647 254.313 179.794 254.812 179.448Z" fill="#ED4294"/>
<path d="M254.194 185.042C254.693 184.697 254.829 183.99 254.5 183.463C254.17 182.936 253.498 182.79 253 183.135C252.501 183.481 252.365 184.188 252.694 184.714C253.024 185.241 253.696 185.388 254.194 185.042Z" fill="#45B878"/>
<path d="M259.135 182.226C259.633 181.881 259.77 181.174 259.44 180.647C259.11 180.121 258.439 179.974 257.94 180.319C257.442 180.665 257.305 181.372 257.635 181.898C257.965 182.425 258.636 182.572 259.135 182.226Z" fill="#FCB621"/>
<path d="M254.58 189.357C255.079 189.012 255.216 188.305 254.886 187.778C254.556 187.252 253.885 187.105 253.386 187.451C252.888 187.796 252.751 188.503 253.081 189.03C253.41 189.556 254.082 189.703 254.58 189.357Z" fill="#FCB621"/>
<path d="M265.04 183.348C265.539 183.003 265.676 182.296 265.346 181.769C265.016 181.243 264.345 181.096 263.846 181.441C263.348 181.787 263.211 182.494 263.541 183.02C263.871 183.547 264.542 183.694 265.04 183.348Z" fill="#45B878"/>
<path d="M246.799 165.483C247.297 165.137 247.434 164.431 247.104 163.904C246.774 163.377 246.103 163.231 245.604 163.576C245.106 163.922 244.969 164.629 245.299 165.155C245.629 165.682 246.3 165.828 246.799 165.483Z" fill="#45B878"/>
<g clip-path="url(#clip3)">
<path d="M-35.2799 366.357C-34.7241 366.581 -34.107 366.323 -33.8678 365.757C-32.5561 362.727 -30.1536 359.909 -27.1001 357.824C-24.5225 356.071 -21.4302 354.664 -17.6504 353.533C-16.6352 353.226 -15.5717 352.974 -14.4636 352.687C-9.35267 351.447 -3.5867 350.034 -1.38154 343.737C0.074861 339.579 -1.14477 334.294 -4.22129 331.435C-6.25767 329.535 -9.09065 328.728 -12.0019 329.196C-15.0017 329.681 -17.5998 331.496 -18.9578 334.019C-20.5585 337.02 -20.3043 341.272 -18.2568 345.67L-17.8066 346.705C-17.546 347.315 -16.8637 347.607 -16.2904 347.332C-15.7223 347.072 -15.4662 346.356 -15.7413 345.739L-16.196 344.667C-17.0179 342.907 -18.7024 338.516 -16.9602 335.241C-15.9351 333.316 -13.9323 331.942 -11.5817 331.562C-9.35393 331.202 -7.19461 331.792 -5.69035 333.199C-3.34916 335.378 -2.40271 339.594 -3.52585 342.805C-5.32065 347.924 -10.0378 349.079 -15.0309 350.314C-16.1192 350.592 -17.2515 350.851 -18.3209 351.171C-22.3225 352.37 -25.6073 353.856 -28.3636 355.747C-31.8235 358.105 -34.4458 361.183 -35.9409 364.662C-36.205 365.253 -35.9512 365.983 -35.372 366.285C-35.3384 366.334 -35.3092 366.345 -35.2799 366.357Z" fill="#ED4294"/>
<path d="M-35.6644 367.509C-34.5381 367.962 -33.3038 367.447 -32.8057 366.305C-31.5806 363.485 -29.3232 360.853 -26.4432 358.889C-23.9696 357.199 -20.9761 355.839 -17.2952 354.756C-16.2997 354.459 -15.2509 354.201 -14.1625 353.923C-9.0611 352.662 -2.69936 351.105 -0.293767 344.208C1.32195 339.574 -0.0360472 333.71 -3.45097 330.524C-5.75342 328.377 -8.93311 327.465 -12.1934 327.985C-15.5277 328.527 -18.4283 330.552 -19.963 333.405C-21.7507 336.766 -21.5174 341.428 -19.294 346.193L-18.8532 347.207C-18.5875 347.802 -18.1285 348.266 -17.5632 348.511C-16.9927 348.74 -16.365 348.748 -15.7969 348.489C-15.2434 348.223 -14.8192 347.748 -14.6041 347.155C-14.3839 346.546 -14.4132 345.889 -14.6737 345.279L-15.1525 344.179C-15.8744 342.616 -17.4138 338.684 -15.9392 335.912C-15.0857 334.302 -13.3759 333.159 -11.3743 332.83C-9.48103 332.528 -7.68304 333.007 -6.44484 334.167C-4.4808 335.986 -3.65889 339.681 -4.61756 342.4C-6.19731 346.926 -10.427 347.962 -15.3264 349.166C-16.4294 349.437 -17.5668 349.712 -18.6706 350.036C-22.7805 351.26 -26.1641 352.794 -29.0244 354.748C-32.6579 357.228 -35.4201 360.476 -37.0165 364.159C-37.2608 364.74 -37.2857 365.41 -37.0742 366.018C-36.8627 366.627 -36.4337 367.13 -35.8692 367.427C-35.7763 367.447 -35.7229 367.486 -35.6644 367.509Z" fill="#ED4294"/>
<path d="M-5.87493 377.622C-5.30446 377.852 -4.67707 377.563 -4.462 376.97C-3.44995 374.291 -0.965702 364.479 -11.373 351.088C-11.7821 350.574 -12.4823 350.485 -12.9547 350.905C-13.422 351.31 -13.4924 352.066 -13.0832 352.58C-11.356 354.809 -2.91786 366.397 -6.54266 376.046C-6.77749 376.649 -6.48415 377.36 -5.90419 377.611C-5.90419 377.611 -5.88956 377.616 -5.87493 377.622Z" fill="#ED4294"/>
<path d="M-6.25954 378.775C-5.08934 379.245 -3.83455 378.669 -3.37952 377.457C-2.31094 374.608 0.338563 364.253 -10.4822 350.312C-11.2954 349.27 -12.7447 349.088 -13.7042 349.923C-14.1715 350.328 -14.4648 350.907 -14.5139 351.55C-14.5629 352.193 -14.3763 352.826 -13.9817 353.334C-13.2504 354.273 -10.7123 357.7 -8.8791 361.994C-6.64306 367.217 -6.22676 371.778 -7.64758 375.531C-7.87727 376.119 -7.86778 376.786 -7.62188 377.39C-7.37597 377.995 -6.93675 378.468 -6.3568 378.718C-6.30342 378.757 -6.2888 378.763 -6.25954 378.775ZM-8.63955 357.208C-7.52153 359.174 -6.68143 361.029 -6.07972 362.753C-6.82375 360.71 -7.74213 358.841 -8.63955 357.208Z" fill="#ED4294"/>
</g>
</g>
<path fill-rule="evenodd" clip-rule="evenodd" d="M119.945 206.562C110.578 199.875 102.928 190.674 100.439 178.768C93.2668 144.464 140.471 140.037 154.017 154.746C167.563 169.455 178.613 212.882 168.121 218.9C163.936 221.3 153.466 220.859 141.933 217.285L160.784 260.962L124.428 270.502L119.945 206.562Z" fill="#B28B67"/>
<path fill-rule="evenodd" clip-rule="evenodd" d="M132.295 174.667C139.277 194.441 145.797 203.528 151.855 201.927C160.942 199.525 167.018 191.578 171.005 190.524C173.911 189.756 174.293 193.653 173.13 196.925C172.171 199.624 165.037 203.867 166.014 207.401C166.991 210.934 172.351 206.584 172.931 208.68C173.889 212.146 176.766 218.38 170.893 219.932C164.949 221.503 147.294 223.788 141.875 215.523C138.377 210.189 133.817 198.426 128.194 180.234C127.822 180.285 127.448 180.359 127.076 180.458C121.984 181.804 119.025 187.124 120.467 192.341C121.199 194.989 122.925 197.102 125.113 198.364C123.833 202.013 122.332 205.868 120.512 209.918C108.469 206.312 95.7099 189.81 100.855 169.359C101.227 159.909 106.237 153.589 113.076 149.462C118.387 145.288 124.561 143.344 130.268 143.496C140.868 141.67 151.003 142.46 154.153 143.688C156.928 153.725 155.853 157.204 139.565 161.228C136.176 164.436 134.14 168.958 132.295 174.667Z" fill="#191847"/>
<path fill-rule="evenodd" clip-rule="evenodd" d="M140.704 402.132L220.013 603.902L273.207 774.482H294.211L212.891 402.132L140.704 402.132Z" fill="#997659"/>
<path fill-rule="evenodd" clip-rule="evenodd" d="M124.734 402.132C123.889 473.035 111.573 568.495 109.605 572.915C108.293 575.862 63.0066 613.332 -26.2546 685.325L-11.7874 700.887C93.5326 639.161 148.629 604.182 153.503 595.95C160.814 583.601 184.614 469.964 203.723 402.132H124.734Z" fill="#B28B67"/>
<path fill-rule="evenodd" clip-rule="evenodd" d="M-28.4201 680.05C-33.2539 681.752 -36.5813 683.374 -38.4023 684.915C-40.6171 686.789 -43.536 689.899 -47.1589 694.247C-44.9789 696.867 -25.3867 720.409 11.6176 764.873C19.0962 761.673 21.4273 757.895 18.6111 753.54C15.7948 749.184 13.4895 745.537 11.6953 742.598L-1.26992 697.626C-1.51939 696.761 -2.41384 696.256 -3.26772 696.499C-3.28232 696.503 -3.29687 696.507 -3.31135 696.512L-10.0877 698.65C-14.8093 696.406 -18.1224 694.141 -20.0271 691.852C-21.5745 689.992 -22.9751 686.801 -24.2286 682.278L-24.2286 682.278C-24.7096 680.543 -26.4882 679.514 -28.201 679.981C-28.2749 680.002 -28.3479 680.024 -28.4201 680.05Z" fill="#E4E4E4"/>
<path fill-rule="evenodd" clip-rule="evenodd" d="M264.606 766.767C262.798 771.637 261.894 775.28 261.894 777.698C261.894 780.638 262.379 784.929 263.35 790.569C266.731 790.569 297.11 790.569 354.488 790.569C356.857 782.669 355.489 778.404 350.387 777.774C345.284 777.144 341.045 776.575 337.67 776.067L295.31 757.012C294.495 756.645 293.54 757.015 293.176 757.837C293.17 757.851 293.164 757.865 293.158 757.88L290.435 764.544C285.712 766.768 281.873 767.88 278.92 767.88C276.52 767.88 273.207 766.902 268.979 764.947L268.979 764.947C267.356 764.196 265.438 764.915 264.694 766.552C264.662 766.623 264.633 766.694 264.606 766.767Z" fill="#E4E4E4"/>
<path fill-rule="evenodd" clip-rule="evenodd" d="M194.027 756.912L293.895 746.018L219.881 402.132H130.433L194.027 756.912Z" fill="#6270AD"/>
<path fill-rule="evenodd" clip-rule="evenodd" d="M-5.59595 660.219L59.9115 738.158C128.909 662.411 169.135 612.986 180.589 589.884C192.043 566.781 202.339 504.197 211.478 402.132H110.776C105.784 491.924 102.419 538.91 100.681 543.088C98.9428 547.267 63.5172 586.31 -5.59595 660.219Z" fill="#6D7BBA"/>
<path fill-rule="evenodd" clip-rule="evenodd" d="M263.187 364.169L320.672 393.443C335.067 394.866 347.378 397.603 357.604 401.652C360.147 403.304 363.524 406.954 354.389 407.798C345.254 408.642 335.69 409.95 335.025 413.309C334.359 416.669 340.499 419.491 338.766 424.168C337.611 427.286 328.398 421.556 311.128 406.978L257.208 394.362L263.187 364.169ZM69.4805 398.927L102.598 393.353C94.5606 464.426 90.1069 502.17 89.2368 506.584C87.279 516.516 97.6324 529.341 102.345 536.381C92.4532 543.192 90.2405 524.666 77.8075 533.506C66.4593 541.575 58.9697 553.942 42.9363 547.341C40.9651 546.529 38.2583 542.661 42.3324 538.57C52.4827 528.379 66.6457 511.164 68.0494 506.06C69.9637 499.099 70.4407 463.388 69.4805 398.927Z" fill="#B28B67"/>
<path fill-rule="evenodd" clip-rule="evenodd" d="M139.79 242.47L152.929 237.736C211.484 273.667 247.889 355.842 317.961 390.598L306.562 412.062C196.95 416.966 151.231 316.96 139.79 242.47Z" fill="#E87613"/>
<path fill-rule="evenodd" clip-rule="evenodd" d="M111.909 428.068C166.294 418.681 206.299 411.776 231.923 407.353C237.407 406.406 234.884 398.475 233.34 394.519C215.517 348.869 170.452 304.122 158.105 236.892L122.466 237.308C102.494 289.412 103.256 349.188 111.909 428.068Z" fill="#DDE3E9"/>
<path fill-rule="evenodd" clip-rule="evenodd" d="M86.8574 291.385C81.5701 290.773 76.9654 288.01 73.0434 283.097C56.1366 261.917 58.3373 248.266 71.0527 241.707C83.7681 235.148 97.3956 241.777 118.89 238.062C120.059 237.86 121.143 237.75 122.143 237.733L133.071 236.497C183.862 338.964 205.608 409.427 198.308 447.886L104.066 464.173C100.931 478.492 97.6475 490.651 94.2165 500.65L68.5372 505.088C51.4263 425.36 57.533 354.126 86.8574 291.385Z" fill="#FF9B21"/>
<path fill-rule="evenodd" clip-rule="evenodd" d="M113.605 405.03C121.244 429.965 129.459 447.602 138.249 457.939L103.222 463.987C106.885 447.275 110.345 427.623 113.605 405.03Z" fill="black" fill-opacity="0.1"/>
<defs>
<clipPath id="clip0">
<rect width="654.959" height="692.232" fill="white" transform="translate(-152.531 185.999)"/>
</clipPath>
<clipPath id="clip1">
<rect width="45.8299" height="110.826" fill="white" transform="matrix(-0.334548 0.974105 -0.906051 -0.342735 505.014 304.801)"/>
</clipPath>
<clipPath id="clip2">
<rect width="678.775" height="669.715" fill="white" transform="matrix(0.701477 -0.712692 0.659817 0.751427 -323 483.758)"/>
</clipPath>
<clipPath id="clip3">
<rect width="37.2968" height="87.3168" fill="white" transform="matrix(-0.900078 -0.361906 -0.32631 0.975896 10.6704 335.487)"/>
</clipPath>
</defs>
</svg>
