<svg width="56" height="54" viewBox="0 0 56 54" fill="none" xmlns="http://www.w3.org/2000/svg">
<path fill-rule="evenodd" clip-rule="evenodd" d="M42.0322 31.3231C43.825 31.3231 45.3296 32.8026 45.0556 34.573C43.4474 44.9882 34.5313 52.7213 23.7776 52.7213C11.8801 52.7213 2.23682 43.078 2.23682 31.1833C2.23682 21.3833 9.68185 12.2546 18.0638 10.1906C19.8649 9.74592 21.7108 11.0129 21.7108 12.8671C21.7108 25.4303 22.1331 28.6801 24.5188 30.4477C26.9044 32.2153 29.7096 31.3231 42.0322 31.3231Z" stroke="#6D7BBA" stroke-width="2.5" stroke-linecap="round" stroke-linejoin="round"/>
<path opacity="0.4" fill-rule="evenodd" clip-rule="evenodd" d="M53.7617 20.8613C53.9043 12.7897 43.9897 -0.220895 31.9076 0.00284805C30.9679 0.0196287 30.2156 0.802728 30.1736 1.73965C29.8688 8.37642 30.2799 16.9765 30.5092 20.8752C30.5792 22.089 31.5329 23.0427 32.7439 23.1127C36.7517 23.342 45.665 23.6552 52.2067 22.6652C53.0961 22.5309 53.7477 21.759 53.7617 20.8613Z" stroke="#6D7BBA" stroke-width="2.5" stroke-linecap="round" stroke-linejoin="round"/>
</svg>
