<svg width="511" height="511" viewBox="0 0 511 511" fill="none" xmlns="http://www.w3.org/2000/svg">
<path d="M425.719 170.89C472.445 264.893 434.113 378.993 340.11 425.719C297.216 447.04 259.75 369.286 216.806 357.991C165.619 344.521 110.686 391.22 85.2807 340.11C38.5548 246.106 76.8865 132.006 170.89 85.2806C216.68 62.5198 265.17 115.274 308.935 133.449C338.661 145.778 401.754 122.677 425.719 170.89Z" fill="#6D7BBA" fill-opacity="0.07"/>
<path d="M250.928 135.116C321.792 135.116 379.246 192.57 379.246 263.433C379.246 295.768 320.987 295.053 301.257 317.619C277.734 344.513 289.457 391.751 250.928 391.751C180.065 391.751 122.61 334.297 122.61 263.433C122.61 228.915 169.07 215.455 193.206 194.46C209.59 180.195 214.584 135.116 250.928 135.116Z" fill="#6D7BBA"/>
<path d="M380.73 346.41C328.475 413.72 231.534 425.925 164.224 373.669C133.511 349.825 177.151 295.015 170.267 259.634C162.067 217.458 108.553 193.759 136.965 157.162C189.221 89.8529 286.162 77.6476 353.471 129.904C386.259 155.358 364.784 209.413 366.928 247.821C368.395 273.902 407.532 311.888 380.73 346.41Z" fill="#6D7BBA" fill-opacity="0.11"/>
<path fill-rule="evenodd" clip-rule="evenodd" d="M221.489 234.474C221.489 224.482 221.596 221.152 234.81 221.152C248.025 221.152 248.132 224.482 248.132 234.474C248.132 244.466 248.174 247.795 234.81 247.795C221.447 247.795 221.489 244.466 221.489 234.474Z" stroke="white" stroke-width="7" stroke-linecap="round" stroke-linejoin="round"/>
<path opacity="0.4" fill-rule="evenodd" clip-rule="evenodd" d="M263.357 234.474C263.357 224.482 263.464 221.152 276.678 221.152C289.893 221.152 290 224.482 290 234.474C290 244.466 290.042 247.795 276.678 247.795C263.315 247.795 263.357 244.466 263.357 234.474Z" stroke="white" stroke-width="7" stroke-linecap="round" stroke-linejoin="round"/>
<path fill-rule="evenodd" clip-rule="evenodd" d="M221.489 276.342C221.489 266.35 221.596 263.02 234.81 263.02C248.025 263.02 248.132 266.35 248.132 276.342C248.132 286.334 248.174 289.663 234.81 289.663C221.447 289.663 221.489 286.334 221.489 276.342Z" stroke="white" stroke-width="7" stroke-linecap="round" stroke-linejoin="round"/>
<path fill-rule="evenodd" clip-rule="evenodd" d="M263.357 276.342C263.357 266.35 263.464 263.02 276.678 263.02C289.893 263.02 290 266.35 290 276.342C290 286.334 290.042 289.663 276.678 289.663C263.315 289.663 263.357 286.334 263.357 276.342Z" stroke="white" stroke-width="7" stroke-linecap="round" stroke-linejoin="round"/>
</svg>
