<svg width="515" height="515" viewBox="0 0 515 515" fill="none" xmlns="http://www.w3.org/2000/svg">
<path d="M397.173 203.371C425.409 282.714 383.973 369.938 304.629 398.174C268.425 411.058 246.012 345.542 212.884 332.442C173.398 316.82 125.179 348.768 109.827 305.629C81.5905 226.286 123.027 139.063 202.371 110.827C241.02 97.0725 274.603 143.728 307.727 162.387C330.228 175.048 382.692 162.677 397.173 203.371Z" fill="#6D7BBA" fill-opacity="0.11"/>
<path d="M168.593 425.515C75.8066 376.416 40.3863 261.379 89.4853 168.593C111.889 126.255 187.676 167.557 229.145 151.681C278.58 132.765 295.96 62.7902 346.407 89.4854C439.193 138.584 474.614 253.622 425.515 346.408C401.598 391.605 331.44 377.039 285.29 387.805C253.954 395.131 216.181 450.697 168.593 425.515Z" fill="#6D7BBA" fill-opacity="0.07"/>
<path d="M177.309 369.103C120.058 327.342 107.499 247.066 149.26 189.814C168.315 163.691 214.961 198.601 244.2 191.998C279.054 184.132 297.42 139.06 328.548 161.765C385.799 203.526 398.358 283.802 356.597 341.053C336.255 368.941 290.788 352.437 258.916 355.175C237.273 357.043 206.672 390.521 177.309 369.103Z" fill="#6D7BBA"/>
<path opacity="0.4" d="M249.369 286.964H222.348" stroke="white" stroke-width="7" stroke-linecap="round" stroke-linejoin="round"/>
<path fill-rule="evenodd" clip-rule="evenodd" d="M284.109 286.964C284.109 292.293 279.788 296.614 274.459 296.614C269.129 296.614 264.809 292.293 264.809 286.964C264.809 281.63 269.129 277.313 274.459 277.313C279.788 277.313 284.109 281.63 284.109 286.964Z" stroke="white" stroke-width="7" stroke-linecap="round" stroke-linejoin="round"/>
<path opacity="0.4" d="M257.089 244.503H284.109" stroke="white" stroke-width="7" stroke-linecap="round" stroke-linejoin="round"/>
<path fill-rule="evenodd" clip-rule="evenodd" d="M222.348 244.503C222.348 249.837 226.669 254.153 231.998 254.153C237.328 254.153 241.649 249.837 241.649 244.503C241.649 239.174 237.328 234.853 231.998 234.853C226.669 234.853 222.348 239.174 222.348 244.503Z" stroke="white" stroke-width="7" stroke-linecap="round" stroke-linejoin="round"/>
</svg>
