<svg width="1070" height="786" viewBox="0 0 1070 786" fill="none" xmlns="http://www.w3.org/2000/svg">
<g opacity="0.4">
<path d="M363.401 603.682C392.89 397.317 596.657 232.81 818.49 236.274C919.713 237.855 893.23 407.479 955.659 466.04C1030.06 535.858 1182.82 504.027 1166.78 616.228C1137.29 822.593 933.526 987.1 711.693 983.636C603.635 981.949 580.832 845.995 525.154 774.68C487.318 726.269 348.276 709.524 363.401 603.682Z" fill="#6D7BBA" fill-opacity="0.14"/>
<path d="M508.852 202.703C689.357 41.0582 994.765 66.1124 1190.95 258.659C1280.46 346.518 1130.09 477.468 1142.3 583.788C1156.84 710.524 1317.48 812.135 1219.34 900.022C1038.83 1061.67 733.424 1036.61 537.242 844.066C441.679 750.273 522.756 607.723 526.113 495.621C528.357 419.487 416.275 285.609 508.852 202.703Z" fill="#6D7BBA" fill-opacity="0.14"/>
</g>
<path d="M445.44 555.41L444.378 564.379C444.292 565.108 443.621 565.592 442.887 565.471C442.146 565.348 441.622 564.657 441.707 563.937L442.77 554.968C442.856 554.239 443.527 553.755 444.261 553.876C444.994 553.997 445.526 554.689 445.44 555.41Z" fill="#FCB621"/>
<path d="M410.481 535.883L409.419 544.851C409.333 545.581 408.661 546.065 407.928 545.944C407.186 545.821 406.663 545.13 406.748 544.409L407.811 535.441C407.897 534.711 408.568 534.227 409.301 534.349C410.035 534.47 410.567 535.162 410.481 535.883Z" fill="#FCB621"/>
<path d="M402.95 538.05L402.056 545.593C401.97 546.322 401.299 546.806 400.566 546.685C399.824 546.562 399.3 545.872 399.386 545.151L400.279 537.608C400.365 536.879 401.037 536.395 401.77 536.516C402.504 536.629 403.036 537.32 402.95 538.05Z" fill="#45B878"/>
<path d="M451.186 522.587L450.124 531.556C450.037 532.285 449.366 532.769 448.633 532.648C447.891 532.525 447.368 531.835 447.453 531.114L448.515 522.145C448.602 521.416 449.273 520.932 450.006 521.053C450.739 521.174 451.271 521.866 451.186 522.587Z" fill="#45B878"/>
<path d="M443.304 522.174L441.391 538.332C441.305 539.062 440.633 539.545 439.9 539.424C439.167 539.302 438.635 538.609 438.72 537.888L440.633 521.73C440.72 521 441.391 520.516 442.124 520.638C442.857 520.76 443.389 521.452 443.304 522.174Z" fill="#FCB621"/>
<path d="M434.161 525.218L432.248 541.376C432.162 542.106 431.491 542.59 430.757 542.468C430.024 542.346 429.492 541.654 429.578 540.932L431.491 524.774C431.577 524.044 432.248 523.56 432.981 523.682C433.715 523.804 434.247 524.497 434.161 525.218Z" fill="#ED4294"/>
<path d="M439.022 550.694L437.825 560.796C437.739 561.526 437.068 562.01 436.334 561.888C435.601 561.767 435.069 561.075 435.155 560.354L436.351 550.251C436.437 549.522 437.109 549.038 437.842 549.159C438.576 549.272 439.108 549.964 439.022 550.694Z" fill="#45B878"/>
<path d="M454.039 520.419C453.938 521.275 453.191 521.886 452.302 521.817C447.557 521.443 442.318 522.621 437.556 525.118C433.55 527.225 429.635 530.229 425.585 534.302C424.496 535.397 423.435 536.567 422.32 537.815C417.203 543.485 411.412 549.899 401.895 548.466C395.619 547.516 389.753 542.389 388.254 536.542C387.261 532.666 388.186 528.495 390.798 525.093C393.493 521.59 397.588 519.481 401.739 519.468C406.663 519.452 411.876 522.646 416.036 528.225L417.042 529.501C417.637 530.254 417.522 531.31 416.791 531.861C416.06 532.413 414.987 532.244 414.391 531.491L413.355 530.175C411.682 527.933 407.298 522.815 401.928 522.845C398.782 522.857 395.648 524.497 393.551 527.225C391.547 529.837 390.813 532.982 391.559 535.866C392.705 540.326 397.398 544.395 402.243 545.126C409.977 546.3 414.708 541.046 419.723 535.49C420.817 534.274 421.95 533.02 423.098 531.873C427.38 527.567 431.548 524.378 435.838 522.118C441.216 519.295 446.937 518.022 452.395 518.452C453.336 518.529 454.076 519.342 454.056 520.273C454.042 520.314 454.045 520.367 454.039 520.419Z" fill="#6D7BBA"/>
<path d="M387.068 531.798C387.368 529.236 388.391 526.732 390.079 524.539C392.931 520.835 397.262 518.608 401.679 518.595C406.897 518.576 412.371 521.9 416.716 527.719L417.713 528.984C418.146 529.536 418.352 530.208 418.281 530.886C418.28 530.895 418.278 530.912 418.277 530.92C418.199 531.58 417.864 532.162 417.338 532.556C416.803 532.957 416.134 533.126 415.445 533.02C414.755 532.915 414.14 532.551 413.708 531.999L412.656 530.664C411.09 528.562 406.918 523.689 401.976 523.71C399.087 523.722 396.199 525.236 394.258 527.772C392.402 530.181 391.734 533.067 392.403 535.693C392.908 537.672 394.214 539.643 396.068 541.251C397.931 542.869 400.16 543.936 402.333 544.269C405.633 544.771 408.539 544.081 411.49 542.106C414.181 540.297 416.55 537.675 419.063 534.894C420.166 533.67 421.301 532.407 422.459 531.245C426.793 526.878 431.02 523.637 435.394 521.347C440.906 518.449 446.799 517.144 452.416 517.583C453.103 517.635 453.75 517.952 454.221 518.475C454.694 518.99 454.945 519.652 454.926 520.339C454.927 520.409 454.918 520.486 454.909 520.563C454.754 521.882 453.625 522.796 452.269 522.686C447.682 522.329 442.609 523.465 437.996 525.899C434.066 527.966 430.218 530.92 426.22 534.932C425.142 536.012 424.09 537.174 422.986 538.407C420.35 541.334 417.624 544.342 414.257 546.537C410.341 549.087 406.263 549.994 401.801 549.326C395.175 548.327 388.98 542.901 387.396 536.717C386.982 535.094 386.875 533.434 387.068 531.798ZM416.535 530.624L416.536 530.615C416.561 530.401 416.498 530.181 416.358 530.009L415.337 528.714C411.354 523.365 406.417 520.313 401.786 520.334C397.893 520.345 394.044 522.33 391.505 525.64C389.051 528.833 388.174 532.74 389.099 536.361C390.513 541.87 396.049 546.707 401.986 547.601C406.01 548.214 409.697 547.382 413.248 545.069C416.432 542.992 419.087 540.06 421.651 537.217C422.784 535.963 423.846 534.793 424.945 533.682C429.055 529.549 433.039 526.495 437.111 524.356C442.007 521.784 447.409 520.572 452.322 520.956C452.744 520.991 453.116 520.695 453.166 520.275C453.169 520.249 453.172 520.223 453.174 520.206C453.182 519.981 453.1 519.775 452.951 519.61C452.801 519.446 452.591 519.341 452.371 519.322C447.08 518.911 441.515 520.148 436.287 522.9C432.063 525.12 427.963 528.259 423.742 532.505C422.612 533.646 421.48 534.891 420.397 536.092C417.822 538.951 415.382 541.648 412.519 543.56C409.249 545.753 405.851 546.545 402.149 545.986C399.635 545.605 397.078 544.379 394.949 542.534C392.813 540.678 391.306 538.377 390.701 536.04C389.896 532.903 390.671 529.485 392.84 526.681C395.094 523.752 398.472 521.996 401.877 521.982C407.655 521.959 412.308 527.349 414.042 529.679L415.071 530.984C415.209 531.165 415.41 531.276 415.627 531.312C415.845 531.348 416.065 531.297 416.231 531.168C416.399 531.021 416.51 530.838 416.535 530.624Z" fill="#6D7BBA"/>
<path d="M447.942 565.683C447.84 566.557 447.048 567.169 446.146 567.055C442.039 566.535 427.878 563.106 418.092 540.755C417.713 539.898 418.102 538.931 418.949 538.608C419.796 538.276 420.794 538.711 421.164 539.567C422.789 543.277 431.647 561.885 446.401 563.751C447.329 563.87 448.022 564.7 447.95 565.614C447.947 565.64 447.945 565.657 447.942 565.683Z" fill="#6D7BBA"/>
<path d="M417.089 539.752C417.19 538.895 417.733 538.129 418.589 537.799C419.214 537.552 419.913 537.572 420.547 537.851C421.181 538.13 421.691 538.625 421.964 539.255C423.554 542.889 432.21 561.088 446.465 562.89C447.148 562.976 447.766 563.314 448.21 563.85C448.653 564.386 448.868 565.05 448.816 565.723L448.815 565.732C448.811 565.766 448.808 565.792 448.805 565.817C448.647 567.163 447.445 568.083 446.071 567.908C441.841 567.376 427.273 563.855 417.282 541.059C417.1 540.636 417.038 540.181 417.089 539.752ZM447.069 565.54C447.07 565.531 447.072 565.514 447.073 565.505C447.089 565.298 447.025 565.087 446.884 564.924C446.744 564.752 446.552 564.651 446.333 564.623C431.088 562.694 422.021 543.676 420.361 539.89C420.277 539.693 420.118 539.536 419.915 539.45C419.712 539.364 419.499 539.355 419.303 539.436C418.893 539.596 418.715 540.056 418.897 540.47C428.497 562.363 442.232 565.711 446.217 566.212C446.648 566.248 447.02 565.96 447.069 565.54Z" fill="#6D7BBA"/>
<path d="M407.195 534.538C407.065 535.646 407.873 536.694 409 536.88C410.127 537.066 411.146 536.319 411.276 535.211C411.406 534.104 410.598 533.055 409.471 532.87C408.344 532.684 407.325 533.431 407.195 534.538Z" fill="#FCB621"/>
<path d="M428.777 541.675C428.647 542.783 429.455 543.831 430.582 544.017C431.709 544.203 432.728 543.456 432.858 542.349C432.988 541.241 432.18 540.193 431.053 540.007C429.926 539.821 428.907 540.568 428.777 541.675Z" fill="#ED4294"/>
<path d="M435.728 549.339C435.598 550.446 436.406 551.495 437.533 551.68C438.66 551.866 439.679 551.119 439.809 550.012C439.939 548.904 439.131 547.856 438.004 547.67C436.877 547.484 435.858 548.231 435.728 549.339Z" fill="#45B878"/>
<path d="M437.865 539.095C437.735 540.203 438.543 541.251 439.67 541.437C440.797 541.623 441.816 540.876 441.947 539.768C442.077 538.661 441.268 537.612 440.141 537.426C439.014 537.241 437.995 537.988 437.865 539.095Z" fill="#FCB621"/>
<path d="M442.156 554.048C442.026 555.156 442.834 556.204 443.961 556.39C445.088 556.576 446.107 555.829 446.237 554.722C446.367 553.614 445.559 552.566 444.432 552.38C443.305 552.194 442.286 552.941 442.156 554.048Z" fill="#FCB621"/>
<path d="M446.595 532.327C446.465 533.434 447.273 534.483 448.4 534.668C449.527 534.854 450.546 534.107 450.676 533C450.806 531.893 449.998 530.844 448.871 530.658C447.744 530.472 446.725 531.219 446.595 532.327Z" fill="#45B878"/>
<path d="M399.769 535.733C399.639 536.841 400.447 537.889 401.574 538.075C402.702 538.261 403.721 537.514 403.851 536.406C403.981 535.299 403.173 534.251 402.045 534.065C400.918 533.879 399.899 534.626 399.769 535.733Z" fill="#45B878"/>
<path d="M454.548 530.459L455.611 521.49C455.697 520.761 456.368 520.277 457.101 520.398C457.843 520.521 458.367 521.211 458.281 521.932L457.219 530.901C457.133 531.63 456.461 532.114 455.728 531.993C454.995 531.871 454.462 531.188 454.548 530.459Z" fill="#FCB621"/>
<path d="M489.508 549.986L490.57 541.018C490.656 540.288 491.327 539.804 492.061 539.925C492.803 540.048 493.326 540.739 493.24 541.46L492.178 550.428C492.092 551.157 491.421 551.641 490.687 551.52C489.954 551.399 489.421 550.715 489.508 549.986Z" fill="#FCB621"/>
<path d="M497.047 547.829L497.94 540.286C498.027 539.557 498.698 539.073 499.431 539.194C500.173 539.317 500.696 540.007 500.611 540.728L499.718 548.271C499.631 549 498.96 549.484 498.227 549.363C497.494 549.242 496.962 548.55 497.047 547.829Z" fill="#45B878"/>
<path d="M448.803 563.282L449.865 554.313C449.952 553.584 450.623 553.1 451.356 553.221C452.089 553.342 452.621 554.034 452.536 554.755L451.474 563.724C451.387 564.453 450.716 564.937 449.983 564.816C449.25 564.694 448.717 564.011 448.803 563.282Z" fill="#45B878"/>
<path d="M456.684 563.695L458.597 547.537C458.684 546.807 459.355 546.323 460.088 546.445C460.83 546.568 461.353 547.259 461.268 547.981L459.355 564.139C459.269 564.869 458.597 565.352 457.864 565.23C457.131 565.109 456.598 564.425 456.684 563.695Z" fill="#FCB621"/>
<path d="M465.827 560.651L467.74 544.492C467.826 543.763 468.498 543.279 469.231 543.401C469.964 543.523 470.496 544.215 470.411 544.936L468.498 561.095C468.411 561.824 467.74 562.308 467.007 562.186C466.274 562.064 465.741 561.38 465.827 560.651Z" fill="#ED4294"/>
<path d="M460.975 535.185L462.171 525.083C462.258 524.353 462.929 523.869 463.662 523.991C464.404 524.114 464.927 524.804 464.842 525.525L463.646 535.627C463.559 536.357 462.888 536.841 462.155 536.719C461.413 536.597 460.889 535.906 460.975 535.185Z" fill="#45B878"/>
<path d="M445.96 565.458C446.06 564.602 446.807 563.991 447.697 564.06C452.442 564.434 457.68 563.256 462.442 560.759C466.448 558.652 470.364 555.648 474.414 551.575C475.502 550.48 476.563 549.31 477.678 548.062C482.796 542.392 488.587 535.978 498.103 537.411C504.38 538.361 510.246 543.488 511.744 549.335C512.736 553.22 511.811 557.39 509.2 560.784C506.505 564.287 502.411 566.396 498.26 566.409C493.336 566.425 488.122 563.231 483.962 557.652L482.957 556.376C482.361 555.623 482.476 554.567 483.207 554.016C483.939 553.464 485.012 553.633 485.607 554.386L486.643 555.702C488.317 557.944 492.7 563.062 498.07 563.032C501.217 563.02 504.35 561.38 506.448 558.652C508.451 556.04 509.185 552.895 508.44 550.011C507.293 545.551 502.6 541.482 497.755 540.751C490.021 539.577 485.29 544.831 480.275 550.387C479.182 551.603 478.048 552.857 476.901 554.004C472.619 558.31 468.45 561.499 464.161 563.751C458.783 566.574 453.063 567.847 447.605 567.416C446.663 567.339 445.923 566.527 445.944 565.596C445.949 565.553 445.955 565.501 445.96 565.458Z" fill="#6D7BBA"/>
<path d="M445.086 565.316C445.241 563.997 446.37 563.083 447.725 563.193C452.312 563.55 457.386 562.414 461.999 559.98C465.929 557.913 469.776 554.959 473.775 550.947C474.852 549.868 475.905 548.696 477.018 547.465C479.653 544.547 482.371 541.528 485.738 539.342C489.653 536.793 493.732 535.886 498.193 536.553C504.82 537.552 511.015 542.979 512.599 549.162C513.659 553.294 512.677 557.726 509.916 561.332C507.065 565.035 502.734 567.263 498.316 567.275C493.099 567.295 487.625 563.971 483.28 558.152L482.282 556.886C481.849 556.335 481.644 555.663 481.715 554.985C481.785 554.315 482.121 553.715 482.657 553.315C483.193 552.914 483.861 552.745 484.551 552.851C485.24 552.956 485.855 553.319 486.288 553.871L487.339 555.207C488.905 557.309 493.077 562.182 498.02 562.16C500.909 562.149 503.796 560.634 505.738 558.099C507.594 555.69 508.261 552.804 507.592 550.178C507.087 548.199 505.782 546.228 503.927 544.62C502.065 543.002 499.836 541.934 497.663 541.601C494.363 541.1 491.457 541.79 488.506 543.765C485.814 545.574 483.445 548.196 480.934 550.969C479.83 552.193 478.687 553.454 477.538 554.617C473.203 558.993 468.966 562.232 464.601 564.524C459.081 567.42 453.197 568.727 447.58 568.288C446.893 568.236 446.246 567.919 445.774 567.396C445.302 566.881 445.051 566.219 445.069 565.532C445.069 565.462 445.077 565.394 445.086 565.316ZM511.175 553.792C511.343 552.361 511.254 550.923 510.895 549.518C509.482 544 503.937 539.171 498.009 538.27C493.985 537.657 490.298 538.489 486.748 540.802C483.563 542.878 480.909 545.811 478.345 548.654C477.221 549.901 476.158 551.079 475.051 552.189C470.94 556.322 466.956 559.376 462.885 561.515C457.989 564.086 452.587 565.298 447.674 564.914C447.252 564.88 446.879 565.176 446.83 565.596C446.827 565.622 446.824 565.647 446.822 565.665C446.814 565.882 446.896 566.096 447.045 566.26C447.195 566.425 447.404 566.529 447.624 566.548C452.916 566.96 458.481 565.722 463.709 562.97C467.932 560.751 472.033 557.612 476.254 553.366C477.382 552.233 478.506 550.987 479.599 549.778C482.182 546.921 484.614 544.222 487.478 542.303C490.748 540.109 494.146 539.317 497.847 539.876C500.362 540.257 502.919 541.483 505.047 543.329C507.184 545.184 508.691 547.486 509.296 549.822C510.1 552.959 509.325 556.378 507.157 559.181C504.903 562.11 501.524 563.866 498.12 563.88C492.342 563.903 487.688 558.514 485.954 556.183L484.926 554.878C484.787 554.698 484.587 554.586 484.369 554.55C484.151 554.514 483.932 554.565 483.766 554.695C483.599 554.824 483.489 555.007 483.464 555.221L483.463 555.23C483.438 555.444 483.501 555.664 483.641 555.836L484.661 557.131C488.644 562.48 493.581 565.532 498.213 565.511C502.106 565.5 505.955 563.515 508.494 560.205C509.999 558.279 510.909 556.054 511.175 553.792Z" fill="#6D7BBA"/>
<path d="M452.047 520.193C452.15 519.319 452.942 518.707 453.844 518.821C457.951 519.333 472.112 522.769 481.899 545.112C482.278 545.969 481.889 546.936 481.042 547.259C480.194 547.591 479.197 547.155 478.827 546.299C477.201 542.59 468.343 523.991 453.59 522.116C452.661 521.997 451.968 521.167 452.04 520.253C452.042 520.236 452.045 520.21 452.047 520.193Z" fill="#6D7BBA"/>
<path d="M451.174 520.05C451.332 518.704 452.533 517.784 453.908 517.959C458.138 518.491 472.706 522.012 482.697 544.807C483.263 546.115 482.682 547.582 481.397 548.078C480.773 548.324 480.073 548.305 479.439 548.026C478.806 547.747 478.295 547.252 478.023 546.622C476.433 542.988 467.776 524.789 453.521 522.987C452.838 522.901 452.22 522.563 451.777 522.027C451.333 521.491 451.118 520.827 451.171 520.154C451.167 520.11 451.171 520.075 451.174 520.05ZM481.163 545.838C481.179 545.701 481.16 545.558 481.096 545.425C471.496 523.533 457.761 520.184 453.776 519.684C453.347 519.631 452.967 519.917 452.917 520.337C452.916 520.346 452.914 520.363 452.913 520.372C452.898 520.579 452.963 520.782 453.103 520.953C453.242 521.125 453.435 521.226 453.654 521.254C468.898 523.183 477.965 542.201 479.626 545.986C479.709 546.184 479.869 546.341 480.072 546.427C480.275 546.513 480.487 546.522 480.683 546.44C480.961 546.346 481.131 546.112 481.163 545.838Z" fill="#6D7BBA"/>
<path d="M488.722 550.659C488.592 551.767 489.4 552.815 490.527 553.001C491.654 553.187 492.673 552.44 492.803 551.333C492.933 550.225 492.125 549.177 490.998 548.991C489.871 548.805 488.852 549.552 488.722 550.659Z" fill="#FCB621"/>
<path d="M467.14 543.522C467.009 544.629 467.818 545.678 468.945 545.864C470.072 546.05 471.091 545.303 471.221 544.195C471.351 543.088 470.543 542.039 469.416 541.853C468.289 541.667 467.27 542.414 467.14 543.522Z" fill="#ED4294"/>
<path d="M460.18 535.866C460.05 536.974 460.858 538.022 461.985 538.208C463.112 538.394 464.131 537.647 464.261 536.54C464.391 535.432 463.583 534.384 462.456 534.198C461.329 534.012 460.31 534.759 460.18 535.866Z" fill="#45B878"/>
<path d="M458.051 546.102C457.921 547.21 458.73 548.258 459.857 548.444C460.984 548.63 462.003 547.883 462.133 546.776C462.263 545.668 461.455 544.62 460.328 544.434C459.201 544.248 458.182 544.995 458.051 546.102Z" fill="#FCB621"/>
<path d="M453.76 531.149C453.63 532.257 454.439 533.305 455.566 533.491C456.693 533.677 457.712 532.93 457.842 531.823C457.972 530.715 457.164 529.667 456.037 529.481C454.91 529.295 453.891 530.042 453.76 531.149Z" fill="#FCB621"/>
<path d="M449.321 552.879C449.191 553.986 449.999 555.035 451.126 555.221C452.253 555.407 453.272 554.66 453.402 553.552C453.532 552.445 452.724 551.396 451.597 551.21C450.47 551.024 449.451 551.771 449.321 552.879Z" fill="#45B878"/>
<path d="M496.138 549.463C496.008 550.57 496.817 551.619 497.944 551.804C499.071 551.99 500.09 551.243 500.22 550.136C500.35 549.028 499.542 547.98 498.415 547.794C497.288 547.608 496.269 548.355 496.138 549.463Z" fill="#45B878"/>
<g clip-path="url(#clip0)">
<path d="M903.58 202.726L900.894 210.546C900.672 211.19 900.028 211.505 899.454 211.288C898.86 211.063 898.582 210.375 898.796 209.752L901.481 201.932C901.703 201.288 902.347 200.973 902.922 201.19C903.496 201.407 903.801 202.081 903.58 202.726Z" fill="#FCB621"/>
<path d="M878.608 180.098L875.922 187.919C875.701 188.563 875.056 188.877 874.482 188.66C873.888 188.436 873.61 187.748 873.824 187.125L876.51 179.305C876.731 178.66 877.376 178.346 877.95 178.563C878.531 178.759 878.829 179.454 878.608 180.098Z" fill="#FCB621"/>
<path d="M871.944 180.879L869.686 187.453C869.464 188.097 868.82 188.412 868.246 188.195C867.652 187.97 867.374 187.282 867.588 186.659L869.845 180.085C870.067 179.441 870.712 179.126 871.286 179.343C871.86 179.561 872.158 180.256 871.944 180.879Z" fill="#45B878"/>
<path d="M914.961 174.406L912.275 182.226C912.054 182.87 911.409 183.185 910.835 182.968C910.241 182.743 909.963 182.055 910.177 181.432L912.863 173.612C913.084 172.968 913.729 172.653 914.303 172.87C914.884 173.066 915.182 173.761 914.961 174.406Z" fill="#45B878"/>
<path d="M908.52 172.843L903.679 186.936C903.458 187.581 902.813 187.895 902.239 187.678C901.645 187.454 901.367 186.766 901.581 186.143L906.421 172.049C906.643 171.405 907.288 171.091 907.862 171.308C908.443 171.503 908.741 172.199 908.52 172.843Z" fill="#FCB621"/>
<path d="M900.348 174.17L895.508 188.263C895.286 188.908 894.642 189.222 894.068 189.005C893.474 188.78 893.196 188.093 893.41 187.47L898.25 173.376C898.471 172.732 899.116 172.417 899.69 172.635C900.264 172.852 900.562 173.547 900.348 174.17Z" fill="#ED4294"/>
<path d="M899.226 197.559L896.201 206.367C895.979 207.012 895.335 207.326 894.761 207.109C894.167 206.885 893.889 206.197 894.103 205.574L897.128 196.765C897.349 196.121 897.994 195.806 898.568 196.024C899.149 196.219 899.447 196.915 899.226 197.559Z" fill="#45B878"/>
<path d="M917.707 172.921C917.448 173.673 916.7 174.094 915.985 173.896C912.139 172.853 907.582 173.096 903.152 174.6C899.43 175.863 895.582 177.951 891.416 180.963C890.288 181.774 889.177 182.665 888.004 183.605C882.622 187.881 876.553 192.722 868.987 190.005C863.99 188.212 860.207 182.751 860.157 177.295C860.121 173.689 861.734 170.099 864.585 167.464C867.532 164.743 871.32 163.482 874.753 164.101C878.817 164.837 882.465 168.474 884.768 174.079L885.334 175.361C885.676 176.122 885.359 177.046 884.645 177.431C883.931 177.816 883.08 177.494 882.738 176.734L882.147 175.394C881.218 173.149 878.637 167.9 874.207 167.123C871.618 166.653 868.687 167.632 866.394 169.75C864.204 171.762 862.961 174.472 863 177.157C863.032 181.296 866.077 185.652 869.939 187.04C876.085 189.267 881.05 185.295 886.316 181.097C887.461 180.171 888.654 179.239 889.844 178.378C894.249 175.189 898.342 172.975 902.34 171.623C907.356 169.976 912.348 169.704 916.764 170.913C917.518 171.126 917.972 171.953 917.751 172.792C917.736 172.835 917.721 172.878 917.707 172.921Z" fill="#FCB621"/>
<path d="M859.851 172.785C860.64 170.486 862.018 168.361 863.912 166.626C867.093 163.678 871.225 162.328 874.95 163.009C879.352 163.8 883.3 167.673 885.732 173.617L886.298 174.9C886.591 175.545 886.614 176.257 886.398 176.952C886.391 176.974 886.391 176.974 886.383 176.995C886.155 177.661 885.703 178.195 885.125 178.51C884.527 178.818 883.857 178.88 883.217 178.662C882.603 178.43 882.09 177.969 881.797 177.324L881.194 175.955C880.36 173.891 877.96 169.027 874.022 168.314C871.725 167.906 869.137 168.797 867.086 170.667C865.151 172.459 864.045 174.833 864.069 177.172C864.091 180.821 866.894 184.771 870.294 186.008C875.905 188.034 880.451 184.437 885.717 180.239C886.882 179.32 888.082 178.366 889.28 177.484C893.774 174.232 897.948 171.976 902.047 170.589C907.261 168.823 912.433 168.546 917.034 169.801C917.67 169.969 918.21 170.416 918.537 171.025C918.865 171.635 918.948 172.37 918.778 173.058C918.756 173.123 918.727 173.209 918.705 173.273C918.255 174.584 916.968 175.335 915.723 174.986C912.062 173.989 907.706 174.235 903.478 175.67C899.858 176.898 896.092 178.944 892.015 181.893C890.914 182.69 889.81 183.559 888.664 184.485C883.07 188.923 876.754 193.962 868.674 191.051C863.3 189.115 859.185 183.189 859.129 177.294C859.092 175.775 859.349 174.246 859.851 172.785ZM884.392 176.218C884.392 176.218 884.399 176.196 884.392 176.218C884.414 176.153 884.431 176.038 884.389 175.901L883.81 174.59C881.657 169.333 878.288 165.922 874.563 165.242C871.422 164.685 867.965 165.829 865.252 168.322C862.656 170.739 861.181 173.992 861.201 177.252C861.252 182.248 864.743 187.258 869.337 188.923C876.361 191.459 881.963 187 887.38 182.689C888.58 181.735 889.691 180.844 890.82 180.033C895.074 176.957 899.004 174.827 902.854 173.516C907.467 171.935 912.224 171.695 916.276 172.791C916.481 172.845 916.679 172.725 916.733 172.503C916.765 172.345 916.727 172.258 916.702 172.2C916.678 172.142 916.601 172.04 916.475 172.017C912.245 170.854 907.481 171.115 902.645 172.757C898.748 174.075 894.737 176.247 890.42 179.372C889.265 180.197 888.092 181.137 886.954 182.042C881.688 186.24 876.251 190.543 869.603 188.15C865.365 186.619 862.001 181.827 861.97 177.228C861.935 174.204 863.309 171.18 865.76 168.927C868.288 166.582 871.542 165.507 874.431 166.017C879.358 166.91 882.147 172.528 883.138 174.918L883.717 176.229C883.786 176.353 883.878 176.412 883.937 176.434C883.996 176.457 884.103 176.472 884.211 176.417C884.313 176.382 884.377 176.261 884.392 176.218Z" fill="#FCB621"/>
<path d="M903.534 212.298C903.269 213.072 902.501 213.485 901.773 213.258C898.503 212.167 887.498 206.96 883.968 185.525C883.828 184.696 884.348 183.897 885.114 183.75C885.888 183.581 886.618 184.125 886.738 184.947C887.331 188.497 890.847 206.455 902.636 210.356C903.376 210.612 903.783 211.445 903.529 212.248C903.549 212.255 903.542 212.277 903.534 212.298Z" fill="#FCB621"/>
<path d="M883.052 184.353C883.347 183.493 884.05 182.813 884.925 182.61C885.577 182.468 886.221 182.614 886.775 183.018C887.31 183.415 887.684 184.017 887.782 184.71C888.04 186.239 889.053 191.623 891.456 196.999C894.408 203.577 898.295 207.694 902.993 209.252C903.614 209.463 904.127 209.924 904.427 210.547C904.727 211.171 904.771 211.891 904.562 212.565C904.547 212.608 904.54 212.629 904.525 212.672C904.06 214.025 902.714 214.754 901.445 214.347C898.028 213.225 886.583 207.803 882.926 185.761C882.855 185.249 882.904 184.782 883.052 184.353ZM902.546 211.923L902.553 211.902C902.597 211.773 902.567 211.664 902.535 211.628C902.51 211.57 902.453 211.476 902.327 211.452C889.957 207.356 886.318 188.841 885.716 185.191C885.693 185.061 885.609 184.98 885.577 184.944C885.525 184.9 885.426 184.862 885.305 184.889C885.11 184.937 884.977 185.129 885.016 185.339C888.454 206.132 898.964 211.151 902.116 212.198C902.289 212.215 902.479 212.117 902.546 211.923Z" fill="#FCB621"/>
<path d="M876.172 178.4C875.838 179.373 876.294 180.437 877.19 180.776C878.087 181.115 879.084 180.601 879.418 179.628C879.752 178.655 879.297 177.592 878.4 177.253C877.504 176.914 876.506 177.427 876.172 178.4Z" fill="#FCB621"/>
<path d="M892.585 187.983C892.251 188.956 892.706 190.019 893.603 190.359C894.499 190.698 895.497 190.184 895.831 189.211C896.165 188.238 895.709 187.174 894.813 186.835C893.916 186.496 892.919 187.01 892.585 187.983Z" fill="#ED4294"/>
<path d="M896.77 195.853C896.436 196.826 896.892 197.89 897.788 198.229C898.685 198.568 899.682 198.054 900.016 197.081C900.35 196.108 899.895 195.045 898.998 194.706C898.102 194.367 897.104 194.88 896.77 195.853Z" fill="#45B878"/>
<path d="M900.616 187.064C900.282 188.037 900.738 189.101 901.634 189.44C902.531 189.779 903.528 189.265 903.862 188.292C904.197 187.319 903.741 186.256 902.844 185.917C901.948 185.578 900.95 186.091 900.616 187.064Z" fill="#FCB621"/>
<path d="M901.131 200.999C900.797 201.972 901.253 203.035 902.149 203.374C903.046 203.713 904.043 203.2 904.377 202.227C904.711 201.254 904.256 200.19 903.359 199.851C902.463 199.512 901.465 200.026 901.131 200.999Z" fill="#FCB621"/>
<path d="M909.192 182.346C908.858 183.319 909.314 184.383 910.21 184.722C911.107 185.061 912.104 184.547 912.438 183.574C912.773 182.601 912.317 181.538 911.42 181.198C910.524 180.859 909.526 181.373 909.192 182.346Z" fill="#45B878"/>
<path d="M869.795 178.343C869.461 179.316 869.917 180.379 870.813 180.718C871.71 181.058 872.707 180.544 873.041 179.571C873.376 178.598 872.92 177.534 872.023 177.195C871.127 176.856 870.129 177.37 869.795 178.343Z" fill="#45B878"/>
<path d="M916.166 181.901L918.852 174.081C919.073 173.437 919.718 173.122 920.292 173.339C920.886 173.564 921.164 174.252 920.95 174.875L918.264 182.695C918.043 183.339 917.398 183.654 916.824 183.437C916.25 183.22 915.945 182.546 916.166 181.901Z" fill="#FCB621"/>
<path d="M941.118 204.521L943.804 196.701C944.025 196.057 944.67 195.742 945.244 195.959C945.838 196.184 946.116 196.872 945.902 197.495L943.216 205.315C942.995 205.959 942.35 206.274 941.776 206.057C941.202 205.84 940.904 205.144 941.118 204.521Z" fill="#FCB621"/>
<path d="M947.79 203.719L950.048 197.145C950.269 196.501 950.914 196.187 951.488 196.404C952.082 196.628 952.36 197.316 952.146 197.939L949.888 204.513C949.667 205.158 949.022 205.472 948.448 205.255C947.874 205.038 947.569 204.364 947.79 203.719Z" fill="#45B878"/>
<path d="M904.785 210.221L907.471 202.401C907.692 201.757 908.337 201.442 908.911 201.66C909.485 201.877 909.783 202.572 909.569 203.195L906.883 211.015C906.662 211.66 906.017 211.974 905.443 211.757C904.862 211.561 904.564 210.866 904.785 210.221Z" fill="#45B878"/>
<path d="M911.226 211.784L916.067 197.691C916.288 197.046 916.933 196.732 917.507 196.949C918.081 197.166 918.379 197.861 918.165 198.485L913.325 212.578C913.103 213.222 912.458 213.537 911.884 213.32C911.31 213.102 911.012 212.407 911.226 211.784Z" fill="#FCB621"/>
<path d="M919.398 210.457L924.238 196.364C924.46 195.719 925.104 195.405 925.678 195.622C926.252 195.839 926.55 196.535 926.336 197.158L921.496 211.251C921.275 211.895 920.63 212.21 920.056 211.993C919.482 211.776 919.184 211.08 919.398 210.457Z" fill="#ED4294"/>
<path d="M920.52 187.068L923.545 178.26C923.766 177.615 924.411 177.301 924.985 177.518C925.579 177.743 925.857 178.43 925.643 179.053L922.618 187.862C922.397 188.506 921.752 188.821 921.178 188.604C920.604 188.386 920.299 187.713 920.52 187.068Z" fill="#45B878"/>
<path d="M902.018 211.7C902.276 210.948 903.024 210.527 903.739 210.725C907.586 211.767 912.142 211.524 916.573 210.02C920.294 208.758 924.142 206.669 928.308 203.657C929.437 202.846 930.548 201.956 931.72 201.016C937.103 196.74 943.171 191.899 950.737 194.615C955.735 196.409 959.518 201.869 959.567 207.326C959.604 210.932 957.991 214.521 955.14 217.157C952.192 219.877 948.404 221.139 944.971 220.52C940.908 219.784 937.259 216.146 934.957 210.542L934.391 209.26C934.048 208.499 934.365 207.575 935.079 207.19C935.793 206.804 936.644 207.126 936.987 207.887L937.578 209.227C938.507 211.472 941.088 216.721 945.517 217.498C948.107 217.968 951.037 216.989 953.331 214.87C955.52 212.858 956.764 210.149 956.724 207.464C956.692 203.325 953.648 198.969 949.786 197.581C943.64 195.353 938.675 199.325 933.409 203.523C932.263 204.449 931.071 205.382 929.88 206.243C925.475 209.431 921.382 211.646 917.384 212.998C912.373 214.695 907.382 214.967 902.986 213.765C902.231 213.553 901.777 212.726 901.998 211.887C902.008 211.793 902.003 211.743 902.018 211.7Z" fill="#FCB621"/>
<path d="M901.029 211.325C901.479 210.015 902.766 209.263 904.01 209.613C907.671 210.609 912.027 210.364 916.275 208.936C919.895 207.708 923.662 205.662 927.738 202.713C928.84 201.916 929.943 201.047 931.089 200.121C936.684 195.683 943.006 190.622 951.08 193.555C956.453 195.49 960.569 201.416 960.624 207.312C960.656 211.256 958.912 215.16 955.827 218.023C952.645 220.97 948.514 222.32 944.789 221.64C940.386 220.848 936.438 216.976 934.007 211.031L933.441 209.749C933.148 209.104 933.124 208.391 933.34 207.696C933.569 207.03 934.008 206.468 934.613 206.139C935.211 205.831 935.881 205.769 936.522 205.987C937.135 206.219 937.648 206.68 937.941 207.325L938.544 208.694C939.379 210.757 941.779 215.622 945.716 216.335C948.014 216.742 950.601 215.852 952.652 213.982C954.587 212.189 955.693 209.816 955.669 207.477C955.628 203.82 952.832 199.849 949.432 198.612C943.821 196.586 939.276 200.183 934.009 204.381C932.844 205.3 931.644 206.254 930.447 207.136C925.952 210.388 921.778 212.644 917.679 214.031C912.485 215.804 907.293 216.074 902.699 214.797C902.063 214.629 901.524 214.182 901.196 213.573C900.869 212.964 900.786 212.228 900.955 211.54C900.997 211.483 901.007 211.39 901.029 211.325ZM957.916 211.094C958.329 209.891 958.544 208.613 958.525 207.367C958.474 202.372 954.983 197.362 950.389 195.696C943.365 193.161 937.763 197.62 932.346 201.931C931.146 202.885 930.035 203.776 928.906 204.587C924.652 207.662 920.722 209.793 916.872 211.104C912.259 212.684 907.482 212.917 903.45 211.828C903.245 211.775 903.047 211.894 902.993 212.117C902.962 212.275 902.999 212.362 903.024 212.419C903.048 212.477 903.125 212.579 903.251 212.603C907.482 213.766 912.246 213.505 917.081 211.863C920.978 210.545 924.989 208.373 929.306 205.248C930.469 204.401 931.641 203.461 932.78 202.556C938.039 198.38 943.483 194.055 950.15 196.456C954.389 197.986 957.752 202.779 957.783 207.378C957.818 210.401 956.444 213.426 953.993 215.679C951.465 218.024 948.231 219.106 945.322 218.589C940.395 217.696 937.606 212.077 936.615 209.688L936.037 208.376C935.967 208.253 935.876 208.194 935.816 208.172C935.757 208.149 935.651 208.133 935.542 208.189C935.426 208.267 935.369 208.367 935.347 208.431C935.325 208.495 935.308 208.61 935.357 208.726L935.936 210.037C938.089 215.294 941.458 218.705 945.183 219.386C948.304 219.935 951.781 218.799 954.474 216.297C956.078 214.817 957.252 213.027 957.916 211.094Z" fill="#FCB621"/>
<path d="M916.21 172.33C916.475 171.557 917.244 171.143 917.971 171.37C921.242 172.461 932.246 177.668 935.777 199.103C935.917 199.933 935.396 200.731 934.63 200.878C933.857 201.047 933.126 200.503 933.006 199.681C932.414 196.131 928.897 178.173 917.108 174.272C916.369 174.016 915.962 173.183 916.215 172.38C916.195 172.373 916.202 172.351 916.21 172.33Z" fill="#FCB621"/>
<path d="M915.221 171.955C915.686 170.602 917.032 169.873 918.301 170.28C921.718 171.403 933.163 176.824 936.82 198.866C937.06 200.316 936.161 201.699 934.828 201.996C934.176 202.138 933.533 201.992 932.978 201.588C932.424 201.184 932.069 200.588 931.971 199.896C931.714 198.366 930.7 192.982 928.297 187.607C925.345 181.028 921.458 176.912 916.76 175.353C916.139 175.143 915.627 174.682 915.326 174.058C915.026 173.435 914.983 172.715 915.191 172.041L915.221 171.955ZM934.715 199.526C934.737 199.461 934.74 199.389 934.742 199.318C931.304 178.525 920.775 173.498 917.643 172.458C917.464 172.391 917.267 172.511 917.2 172.704L917.186 172.747C917.149 172.854 917.179 172.963 917.203 173.021C917.228 173.079 917.285 173.173 917.411 173.196C929.781 177.293 933.42 195.807 934.035 199.487C934.058 199.617 934.142 199.697 934.174 199.734C934.226 199.778 934.325 199.815 934.446 199.788C934.575 199.74 934.671 199.655 934.715 199.526Z" fill="#FCB621"/>
<path d="M940.328 204.999C939.994 205.972 940.45 207.036 941.346 207.375C942.242 207.714 943.24 207.2 943.574 206.227C943.908 205.254 943.452 204.191 942.556 203.851C941.66 203.512 940.662 204.026 940.328 204.999Z" fill="#FCB621"/>
<path d="M923.922 195.395C923.588 196.368 924.044 197.431 924.941 197.77C925.837 198.11 926.835 197.596 927.169 196.623C927.503 195.65 927.047 194.586 926.151 194.247C925.254 193.908 924.257 194.422 923.922 195.395Z" fill="#ED4294"/>
<path d="M919.71 187.538C919.376 188.511 919.831 189.575 920.728 189.914C921.624 190.253 922.622 189.739 922.956 188.766C923.29 187.793 922.834 186.73 921.938 186.391C921.042 186.052 920.044 186.565 919.71 187.538Z" fill="#45B878"/>
<path d="M915.883 196.335C915.549 197.308 916.005 198.371 916.902 198.711C917.798 199.05 918.796 198.536 919.13 197.563C919.464 196.59 919.008 195.526 918.112 195.187C917.215 194.848 916.218 195.362 915.883 196.335Z" fill="#FCB621"/>
<path d="M915.349 182.393C915.015 183.366 915.47 184.43 916.367 184.769C917.263 185.108 918.261 184.594 918.595 183.621C918.929 182.648 918.473 181.585 917.577 181.246C916.681 180.907 915.683 181.42 915.349 182.393Z" fill="#FCB621"/>
<path d="M907.295 201.024C906.961 201.997 907.417 203.061 908.313 203.4C909.21 203.739 910.207 203.225 910.541 202.252C910.875 201.279 910.42 200.215 909.523 199.876C908.627 199.537 907.629 200.051 907.295 201.024Z" fill="#45B878"/>
<path d="M946.712 205.035C946.378 206.008 946.834 207.072 947.73 207.411C948.626 207.75 949.624 207.236 949.958 206.263C950.292 205.29 949.836 204.227 948.94 203.887C948.044 203.548 947.046 204.062 946.712 205.035Z" fill="#45B878"/>
</g>
<g clip-path="url(#clip1)">
<path d="M986.425 578.26L979.949 573.119C979.415 572.696 979.334 571.983 979.73 571.514C980.14 571.029 980.881 570.997 981.397 571.406L987.873 576.547C988.407 576.971 988.488 577.684 988.092 578.152C987.696 578.621 986.958 578.684 986.425 578.26Z" fill="#FCB621"/>
<path d="M1016.09 562.27L1009.61 557.129C1009.08 556.705 1009 555.992 1009.39 555.524C1009.8 555.039 1010.54 555.006 1011.06 555.416L1017.54 560.557C1018.07 560.981 1018.15 561.693 1017.75 562.162C1017.38 562.645 1016.62 562.694 1016.09 562.27Z" fill="#FCB621"/>
<path d="M1017.58 555.727L1012.13 551.405C1011.6 550.981 1011.52 550.269 1011.91 549.8C1012.32 549.315 1013.06 549.282 1013.58 549.692L1019.02 554.014C1019.56 554.438 1019.64 555.15 1019.24 555.619C1018.85 556.088 1018.09 556.137 1017.58 555.727Z" fill="#45B878"/>
<path d="M1009.32 598.439L1002.85 593.298C1002.31 592.874 1002.23 592.161 1002.63 591.693C1003.04 591.208 1003.78 591.175 1004.3 591.585L1010.77 596.726C1011.31 597.15 1011.39 597.862 1010.99 598.331C1010.61 598.814 1009.86 598.863 1009.32 598.439Z" fill="#45B878"/>
<path d="M1012.95 592.888L1001.28 583.623C1000.74 583.199 1000.66 582.486 1001.06 582.018C1001.47 581.533 1002.21 581.5 1002.72 581.91L1014.39 591.175C1014.93 591.599 1015.01 592.312 1014.61 592.78C1014.24 593.263 1013.48 593.312 1012.95 592.888Z" fill="#FCB621"/>
<path d="M1014.42 584.742L1002.75 575.477C1002.22 575.053 1002.14 574.34 1002.53 573.872C1002.94 573.387 1003.68 573.354 1004.2 573.764L1015.87 583.029C1016.4 583.453 1016.49 584.165 1016.09 584.634C1015.69 585.103 1014.94 585.152 1014.42 584.742Z" fill="#ED4294"/>
<path d="M992.748 575.88L985.454 570.089C984.92 569.666 984.839 568.953 985.235 568.484C985.645 568 986.386 567.967 986.902 568.376L994.196 574.167C994.73 574.591 994.811 575.304 994.415 575.772C994.037 576.255 993.282 576.304 992.748 575.88Z" fill="#45B878"/>
<path d="M1009.81 601.523C1009.19 601.029 1009.04 600.183 1009.46 599.575C1011.73 596.296 1013.02 591.92 1013.08 587.242C1013.13 583.312 1012.45 578.988 1011 574.056C1010.61 572.721 1010.14 571.377 1009.65 569.958C1007.41 563.457 1004.87 556.121 1009.96 549.895C1013.32 545.782 1019.73 544.038 1024.89 545.812C1028.3 546.981 1031.14 549.699 1032.68 553.266C1034.26 556.952 1034.18 560.944 1032.45 563.974C1030.41 567.559 1025.76 569.785 1019.71 570.085L1018.31 570.191C1017.48 570.26 1016.71 569.653 1016.59 568.851C1016.46 568.05 1017.05 567.355 1017.88 567.286L1019.34 567.176C1021.77 567.049 1027.58 566.367 1029.79 562.451C1031.1 560.167 1031.15 557.077 1029.92 554.209C1028.75 551.473 1026.61 549.397 1024.07 548.538C1020.16 547.188 1015.03 548.604 1012.44 551.782C1008.29 556.832 1010.37 562.838 1012.57 569.203C1013.06 570.592 1013.55 572.027 1013.96 573.436C1015.5 578.653 1016.22 583.25 1016.16 587.47C1016.04 592.748 1014.63 597.544 1012.02 601.304C1011.56 601.944 1010.63 602.096 1009.91 601.608C1009.88 601.579 1009.84 601.551 1009.81 601.523Z" fill="#FCB621"/>
<path d="M1029.24 547.028C1031.14 548.539 1032.69 550.547 1033.69 552.911C1035.41 556.894 1035.3 561.239 1033.42 564.524C1031.2 568.41 1026.24 570.84 1019.82 571.148L1018.42 571.254C1017.72 571.315 1017.04 571.099 1016.45 570.663C1016.44 570.649 1016.44 570.649 1016.42 570.635C1015.87 570.197 1015.51 569.594 1015.41 568.944C1015.32 568.277 1015.48 567.625 1015.9 567.094C1016.33 566.593 1016.93 566.263 1017.64 566.202L1019.13 566.09C1021.35 565.992 1026.74 565.353 1028.73 561.879C1029.88 559.849 1029.9 557.113 1028.82 554.556C1027.78 552.133 1025.91 550.299 1023.7 549.541C1020.25 548.343 1015.59 549.669 1013.29 552.46C1009.51 557.074 1011.38 562.559 1013.58 568.924C1014.06 570.33 1014.56 571.779 1014.99 573.202C1016.56 578.524 1017.29 583.212 1017.23 587.539C1017.16 593.043 1015.69 598.011 1012.97 601.93C1012.6 602.473 1012 602.833 1011.32 602.938C1010.63 603.044 1009.91 602.877 1009.32 602.487C1009.27 602.445 1009.2 602.388 1009.14 602.346C1008.06 601.485 1007.78 600.021 1008.52 598.964C1010.68 595.846 1011.91 591.657 1011.96 587.193C1012.01 583.37 1011.34 579.137 1009.92 574.31C1009.54 573.005 1009.09 571.675 1008.6 570.286C1006.28 563.531 1003.64 555.896 1009.08 549.25C1012.7 544.83 1019.65 542.928 1025.23 544.843C1026.68 545.315 1028.03 546.067 1029.24 547.028ZM1017.82 569.017C1017.82 569.017 1017.83 569.031 1017.82 569.017C1017.87 569.059 1017.97 569.114 1018.12 569.12L1019.54 569.012C1025.22 568.736 1029.56 566.698 1031.44 563.414C1033.02 560.639 1033.09 556.998 1031.65 553.609C1030.23 550.355 1027.66 547.879 1024.58 546.81C1019.85 545.192 1013.96 546.81 1010.86 550.586C1006.13 556.361 1008.46 563.13 1010.72 569.675C1011.22 571.125 1011.69 572.469 1012.07 573.804C1013.55 578.841 1014.25 583.256 1014.2 587.323C1014.15 592.199 1012.79 596.763 1010.41 600.217C1010.29 600.393 1010.34 600.619 1010.53 600.744C1010.66 600.827 1010.76 600.821 1010.82 600.817C1010.89 600.813 1011.01 600.774 1011.07 600.663C1013.58 597.063 1014.92 592.485 1014.99 587.379C1015.05 583.266 1014.34 578.759 1012.83 573.648C1012.44 572.283 1011.94 570.864 1011.47 569.489C1009.27 563.124 1007.03 556.563 1011.5 551.094C1014.36 547.61 1020 546.038 1024.35 547.544C1027.21 548.519 1029.6 550.824 1030.91 553.886C1032.27 557.051 1032.2 560.478 1030.76 563.031C1028.27 567.378 1022.04 568.132 1019.46 568.269L1018.03 568.377C1017.89 568.401 1017.8 568.468 1017.76 568.516C1017.72 568.565 1017.67 568.66 1017.69 568.781C1017.69 568.888 1017.78 568.989 1017.82 569.017Z" fill="#FCB621"/>
<path d="M977.416 575.024C976.776 574.515 976.642 573.653 977.099 573.043C979.219 570.324 987.799 561.687 1009.18 565.512C1010.01 565.657 1010.59 566.413 1010.47 567.185C1010.38 567.97 1009.62 568.478 1008.8 568.316C1005.26 567.691 987.158 565.013 979.547 574.825C979.059 575.437 978.137 575.542 977.465 575.036C977.452 575.052 977.434 575.038 977.416 575.024Z" fill="#FCB621"/>
<path d="M1010.59 565.039C1011.31 565.604 1011.71 566.494 1011.61 567.387C1011.53 568.049 1011.18 568.607 1010.61 568.995C1010.06 569.367 1009.36 569.518 1008.68 569.38C1007.15 569.112 1001.74 568.271 995.868 568.743C988.682 569.33 983.505 571.621 980.468 575.53C980.062 576.045 979.456 576.374 978.769 576.45C978.081 576.525 977.387 576.325 976.822 575.903C976.786 575.875 976.769 575.861 976.733 575.833C975.612 574.943 975.374 573.431 976.182 572.37C978.38 569.524 987.31 560.544 1009.31 564.45C1009.81 564.555 1010.24 564.757 1010.59 565.039ZM978.099 574.217L978.117 574.231C978.224 574.316 978.336 574.324 978.381 574.305C978.444 574.301 978.552 574.279 978.616 574.168C986.606 563.874 1005.27 566.621 1008.92 567.271C1009.05 567.294 1009.15 567.241 1009.19 567.223C1009.25 567.188 1009.32 567.108 1009.34 566.984C1009.36 566.785 1009.22 566.595 1009.01 566.563C988.261 562.865 980.022 571.098 977.984 573.72C977.91 573.878 977.939 574.09 978.099 574.217Z" fill="#FCB621"/>
<path d="M1018.5 560.54C1017.7 559.901 1016.54 559.975 1015.92 560.707C1015.3 561.439 1015.45 562.551 1016.26 563.191C1017.07 563.83 1018.22 563.755 1018.84 563.024C1019.46 562.292 1019.31 561.18 1018.5 560.54Z" fill="#FCB621"/>
<path d="M1003.99 572.815C1003.19 572.175 1002.03 572.25 1001.41 572.982C1000.79 573.714 1000.94 574.826 1001.75 575.465C1002.56 576.105 1003.71 576.03 1004.33 575.298C1004.95 574.566 1004.8 573.454 1003.99 572.815Z" fill="#ED4294"/>
<path d="M995.175 574.134C994.37 573.495 993.215 573.569 992.596 574.301C991.978 575.033 992.129 576.145 992.935 576.785C993.74 577.424 994.895 577.35 995.514 576.618C996.133 575.886 995.981 574.774 995.175 574.134Z" fill="#45B878"/>
<path d="M1002.18 580.693C1001.37 580.053 1000.22 580.128 999.598 580.86C998.979 581.591 999.131 582.703 999.937 583.343C1000.74 583.983 1001.9 583.908 1002.52 583.176C1003.13 582.444 1002.98 581.332 1002.18 580.693Z" fill="#FCB621"/>
<path d="M988.87 576.529C988.064 575.889 986.909 575.964 986.291 576.696C985.672 577.428 985.824 578.539 986.629 579.179C987.435 579.819 988.59 579.744 989.208 579.012C989.827 578.28 989.676 577.168 988.87 576.529Z" fill="#FCB621"/>
<path d="M1003.76 590.351C1002.96 589.712 1001.8 589.787 1001.18 590.518C1000.57 591.25 1000.72 592.362 1001.52 593.002C1002.33 593.641 1003.48 593.567 1004.1 592.835C1004.72 592.103 1004.57 590.991 1003.76 590.351Z" fill="#45B878"/>
<path d="M1020.68 554.548C1019.88 553.908 1018.72 553.983 1018.1 554.715C1017.49 555.447 1017.64 556.559 1018.44 557.198C1019.25 557.838 1020.4 557.763 1021.02 557.031C1021.64 556.3 1021.49 555.188 1020.68 554.548Z" fill="#45B878"/>
<path d="M1001.86 597.074L1008.33 602.215C1008.87 602.639 1008.95 603.352 1008.55 603.82C1008.14 604.305 1007.4 604.338 1006.88 603.928L1000.41 598.787C999.874 598.364 999.793 597.651 1000.19 597.182C1000.59 596.714 1001.32 596.651 1001.86 597.074Z" fill="#FCB621"/>
<path d="M972.207 613.049L978.683 618.19C979.216 618.613 979.298 619.326 978.901 619.795C978.491 620.28 977.75 620.312 977.234 619.903L970.759 614.762C970.225 614.338 970.144 613.625 970.54 613.157C970.936 612.688 971.691 612.639 972.207 613.049Z" fill="#FCB621"/>
<path d="M970.736 619.606L976.18 623.928C976.714 624.351 976.795 625.064 976.399 625.533C975.989 626.017 975.248 626.05 974.732 625.641L969.288 621.319C968.754 620.895 968.673 620.182 969.069 619.714C969.466 619.245 970.203 619.182 970.736 619.606Z" fill="#45B878"/>
<path d="M978.956 576.896L985.432 582.037C985.966 582.461 986.047 583.173 985.651 583.642C985.255 584.111 984.5 584.16 983.984 583.75L977.508 578.609C976.974 578.185 976.893 577.472 977.289 577.004C977.668 576.521 978.423 576.472 978.956 576.896Z" fill="#45B878"/>
<path d="M975.334 582.446L987.005 591.712C987.538 592.135 987.62 592.848 987.223 593.317C986.827 593.786 986.072 593.834 985.556 593.425L973.886 584.16C973.352 583.736 973.271 583.023 973.667 582.554C974.063 582.086 974.818 582.037 975.334 582.446Z" fill="#FCB621"/>
<path d="M973.858 590.593L985.529 599.858C986.063 600.282 986.144 600.994 985.748 601.463C985.351 601.932 984.597 601.981 984.081 601.571L972.41 592.306C971.876 591.882 971.795 591.169 972.191 590.7C972.588 590.232 973.342 590.183 973.858 590.593Z" fill="#ED4294"/>
<path d="M995.533 599.454L1002.83 605.245C1003.36 605.669 1003.44 606.382 1003.05 606.85C1002.64 607.335 1001.89 607.368 1001.38 606.958L994.084 601.167C993.551 600.744 993.469 600.031 993.866 599.562C994.262 599.094 994.999 599.031 995.533 599.454Z" fill="#45B878"/>
<path d="M978.486 573.794C979.109 574.288 979.256 575.134 978.831 575.742C976.565 579.02 975.273 583.397 975.213 588.075C975.161 592.004 975.846 596.329 977.295 601.261C977.684 602.595 978.152 603.94 978.647 605.359C980.882 611.859 983.421 619.196 978.336 625.422C974.977 629.534 968.567 631.279 963.407 629.505C959.995 628.336 957.15 625.617 955.617 622.05C954.035 618.364 954.11 614.372 955.839 611.343C957.889 607.757 962.536 605.532 968.587 605.231L969.985 605.126C970.816 605.057 971.581 605.664 971.706 606.465C971.831 607.267 971.244 607.962 970.412 608.031L968.952 608.141C966.526 608.267 960.717 608.949 958.506 612.866C957.199 615.15 957.144 618.239 958.376 621.108C959.542 623.843 961.681 625.92 964.226 626.778C968.138 628.129 973.26 626.713 975.857 623.535C980.008 618.485 977.92 612.479 975.72 606.114C975.229 604.725 974.748 603.29 974.334 601.88C972.798 596.664 972.076 592.067 972.135 587.847C972.208 582.556 973.616 577.76 976.216 574.017C976.668 573.377 977.599 573.225 978.316 573.713C978.401 573.753 978.45 573.765 978.486 573.794Z" fill="#FCB621"/>
<path d="M979.169 572.986C980.255 573.848 980.533 575.312 979.789 576.368C977.628 579.487 976.406 583.675 976.334 588.156C976.284 591.978 976.956 596.212 978.376 601.039C978.76 602.343 979.211 603.674 979.702 605.063C982.018 611.817 984.679 619.466 979.221 626.098C975.603 630.518 968.644 632.42 963.068 630.505C959.339 629.219 956.24 626.273 954.571 622.409C952.854 618.426 952.96 614.081 954.845 610.797C957.06 606.911 962.028 604.481 968.443 604.172L969.84 604.067C970.546 604.006 971.226 604.221 971.809 604.657C972.36 605.095 972.744 605.696 972.852 606.377C972.943 607.043 972.778 607.695 972.359 608.227C971.935 608.728 971.33 609.057 970.624 609.118L969.132 609.23C966.908 609.328 961.522 609.967 959.536 613.441C958.385 615.471 958.361 618.207 959.44 620.765C960.484 623.187 962.352 625.022 964.565 625.78C968.026 626.961 972.703 625.65 975.003 622.858C978.785 618.244 976.911 612.759 974.711 606.394C974.234 604.989 973.735 603.539 973.303 602.116C971.737 596.795 971.003 592.107 971.063 587.779C971.124 582.291 972.603 577.307 975.339 573.403C975.709 572.859 976.311 572.499 976.994 572.394C977.678 572.289 978.399 572.456 978.991 572.845C979.031 572.904 979.116 572.944 979.169 572.986ZM960.406 626.691C961.402 627.482 962.535 628.111 963.716 628.508C968.442 630.127 974.33 628.508 977.432 624.732C982.167 618.957 979.832 612.188 977.575 605.643C977.076 604.194 976.608 602.849 976.22 601.515C974.74 596.478 974.043 592.062 974.091 587.996C974.141 583.119 975.516 578.539 977.887 575.101C978.006 574.926 977.959 574.699 977.767 574.574C977.629 574.492 977.535 574.498 977.472 574.502C977.409 574.506 977.287 574.544 977.223 574.655C974.715 578.255 973.372 582.833 973.306 587.94C973.248 592.053 973.958 596.559 975.463 601.671C975.873 603.05 976.368 604.469 976.841 605.844C979.024 612.195 981.284 618.77 976.796 624.254C973.939 627.739 968.299 629.311 963.953 627.805C961.091 626.83 958.699 624.525 957.393 621.463C956.025 618.297 956.084 614.887 957.543 612.318C960.028 607.971 966.256 607.217 968.839 607.08L970.268 606.972C970.408 606.948 970.494 606.881 970.535 606.832C970.576 606.784 970.626 606.689 970.61 606.568C970.575 606.433 970.5 606.346 970.447 606.304C970.393 606.261 970.291 606.207 970.165 606.215L968.736 606.323C963.062 606.598 958.723 608.636 956.838 611.92C955.278 614.68 955.19 618.336 956.649 621.709C957.51 623.716 958.805 625.419 960.406 626.691Z" fill="#FCB621"/>
<path d="M1010.86 600.309C1011.5 600.817 1011.64 601.68 1011.18 602.29C1009.06 605.009 1000.48 613.645 979.097 609.821C978.268 609.676 977.689 608.919 977.806 608.148C977.905 607.362 978.661 606.855 979.476 607.016C983.02 607.642 1001.12 610.319 1008.73 600.508C1009.22 599.896 1010.14 599.79 1010.82 600.297C1010.83 600.281 1010.85 600.295 1010.86 600.309Z" fill="#FCB621"/>
<path d="M1011.55 599.502C1012.67 600.392 1012.91 601.904 1012.1 602.964C1009.9 605.811 1000.97 614.791 978.972 610.884C977.525 610.627 976.521 609.317 976.686 607.962C976.77 607.299 977.122 606.742 977.688 606.354C978.254 605.966 978.934 605.83 979.619 605.969C981.147 606.237 986.561 607.078 992.43 606.606C999.616 606.018 1004.79 603.728 1007.83 599.819C1008.24 599.304 1008.84 598.974 1009.53 598.899C1010.22 598.824 1010.91 599.024 1011.48 599.445L1011.55 599.502ZM979.052 608.679C979.106 608.722 979.173 608.748 979.24 608.774C999.988 612.471 1008.24 604.222 1010.27 601.617C1010.39 601.471 1010.34 601.245 1010.18 601.118L1010.15 601.09C1010.06 601.019 1009.94 601.011 1009.88 601.015C1009.82 601.019 1009.71 601.041 1009.65 601.153C1001.66 611.447 982.99 608.699 979.316 608.051C979.186 608.029 979.082 608.082 979.037 608.1C978.978 608.134 978.91 608.215 978.895 608.338C978.898 608.475 978.946 608.595 979.052 608.679Z" fill="#FCB621"/>
<path d="M972.02 612.144C971.214 611.505 970.06 611.579 969.441 612.311C968.822 613.043 968.974 614.155 969.779 614.795C970.585 615.434 971.74 615.359 972.358 614.628C972.977 613.896 972.826 612.784 972.02 612.144Z" fill="#FCB621"/>
<path d="M986.548 599.884C985.742 599.244 984.587 599.319 983.969 600.051C983.35 600.782 983.501 601.894 984.307 602.534C985.113 603.174 986.268 603.099 986.886 602.367C987.505 601.635 987.354 600.523 986.548 599.884Z" fill="#ED4294"/>
<path d="M995.36 598.534C994.554 597.894 993.399 597.969 992.78 598.701C992.162 599.433 992.313 600.545 993.119 601.184C993.925 601.824 995.079 601.749 995.698 601.017C996.317 600.285 996.165 599.173 995.36 598.534Z" fill="#45B878"/>
<path d="M988.344 591.992C987.538 591.352 986.384 591.427 985.765 592.159C985.146 592.891 985.298 594.002 986.103 594.642C986.909 595.282 988.064 595.207 988.682 594.475C989.301 593.743 989.15 592.631 988.344 591.992Z" fill="#FCB621"/>
<path d="M1001.66 596.139C1000.86 595.5 999.705 595.575 999.086 596.306C998.467 597.038 998.619 598.15 999.424 598.79C1000.23 599.429 1001.38 599.355 1002 598.623C1002.62 597.891 1002.47 596.779 1001.66 596.139Z" fill="#FCB621"/>
<path d="M986.789 582.331C985.983 581.691 984.829 581.766 984.21 582.498C983.591 583.23 983.743 584.342 984.548 584.981C985.354 585.621 986.509 585.546 987.128 584.814C987.746 584.082 987.595 582.97 986.789 582.331Z" fill="#45B878"/>
<path d="M969.856 618.15C969.05 617.511 967.895 617.585 967.277 618.317C966.658 619.049 966.809 620.161 967.615 620.801C968.421 621.44 969.576 621.366 970.194 620.634C970.813 619.902 970.662 618.79 969.856 618.15Z" fill="#45B878"/>
</g>
<defs>
<clipPath id="clip0">
<rect width="45.8299" height="110.826" fill="white" transform="matrix(-0.334548 0.974105 -0.906051 -0.342735 967.746 188.984)"/>
</clipPath>
<clipPath id="clip1">
<rect width="45.8299" height="110.826" fill="white" transform="matrix(-0.806651 -0.640403 0.625414 -0.739766 977.969 643.335)"/>
</clipPath>
</defs>
</svg>
