<svg width="318" height="581" viewBox="0 0 318 581" fill="none" xmlns="http://www.w3.org/2000/svg">
<path fill-rule="evenodd" clip-rule="evenodd" d="M194.847 414.073C230.962 436.731 266.447 447.678 283.104 443.21C324.873 432.003 328.713 272.958 296.394 210.257C264.076 147.557 97.9338 120.228 89.5598 244.458C86.653 287.574 104.047 326.052 129.745 357.45L83.6659 581H217.516L194.847 414.073Z" fill="#B28B67"/>
<path fill-rule="evenodd" clip-rule="evenodd" d="M243.524 141.968C225.234 136.163 198.684 134.194 187.515 135.526C193.868 119.681 196.389 102.029 194.334 84.8414C192.336 68.1404 185.167 53.9199 178.536 39.0185C175.48 32.1498 172.016 25.3187 166.851 20.0651C161.591 14.7126 154.931 11.1796 147.948 9.49409C140.801 7.76873 133.329 7.91241 126.172 9.47819C123.006 10.1707 120.165 11.6775 117.06 12.5151C113.88 13.3733 112.337 11.3018 110.029 9.21987C104.467 4.20342 96.3125 1.72707 89.2759 0.84076C81.3804 -0.153172 73.1882 1.08643 65.6586 3.7879C58.3297 6.4178 51.2892 10.6883 45.9904 16.9096C43.6308 19.679 41.4892 22.8311 40.0977 26.3112C39.5266 27.7394 39.4323 28.5855 38.0632 29.1086C36.7966 29.5929 35.3159 29.607 34.0086 30.0679C21.3721 34.5228 10.5676 44.6859 4.68487 57.7344C1.25273 65.3471 -0.372982 78.7502 0.0720697 93.773C0.517679 108.796 13.5497 147.994 25.7384 162.292C36.6181 175.053 52.6104 183.475 68.0439 187.161C57.7999 199.349 50.9808 214.579 45.938 230.069C40.4608 246.893 37.071 264.375 35.8189 282.188C34.6299 299.112 34.52 317.009 38.3314 333.572C41.8974 349.06 49.523 361.766 62.2532 369.827C68.0846 373.52 74.3588 376.294 80.6688 378.829C86.8878 381.328 93.1257 383.757 99.6398 385.159C111.968 387.811 126.174 387.356 135.672 377.141C139.094 373.459 142.859 368.832 145.356 364.333C146.254 362.716 146.795 361.658 145.704 360.077C144.398 358.183 142.284 356.732 140.605 355.25C131.031 346.804 125.105 335.527 123.612 322.125C122.096 308.528 125.605 290.978 138.306 285.044C153.983 277.719 171.25 286.127 185.184 293.964C191.106 272.209 203.266 252.62 222.331 242.64C243.422 231.6 267.624 230.308 289.299 220.835C294.947 218.367 300.7 215.565 304.858 210.535C306.596 208.433 308.634 205.707 309.328 202.926C310.24 199.275 307.977 196.213 306.229 193.366C296.961 178.27 261.814 147.773 243.524 141.968Z" fill="#191847"/>
</svg>
