<svg width="895" height="852" viewBox="0 0 895 852" fill="none" xmlns="http://www.w3.org/2000/svg">
<path d="M582.222 156.155C433.535 69.9184 242.982 120.694 156.645 269.556C117.249 337.481 240.361 406.876 254.267 478.29C270.856 563.413 188.705 648.379 269.547 695.266C418.234 781.502 608.787 730.726 695.124 581.865C737.181 509.352 656.098 424.539 631.034 351.063C614.035 301.159 658.482 200.384 582.222 156.155Z" fill="#6D7BBA" fill-opacity="0.04"/>
<path d="M182.048 306.695C119.961 472.126 203.906 656.65 369.531 718.81C445.105 747.173 494.477 610.541 564.504 584.274C647.973 552.951 748.108 621.755 781.865 531.81C843.952 366.38 760.006 181.855 594.382 119.696C513.704 89.4166 441.539 186.068 371.323 223.998C323.628 249.735 213.891 221.849 182.048 306.695Z" fill="#6D7BBA" fill-opacity="0.04"/>
<g filter="url(#filter0_d)">
<path d="M287.612 168.848C287.612 164.429 284.03 160.848 279.612 160.848H61.6119C57.1936 160.848 53.6119 164.429 53.6119 168.848V366.848H287.612V168.848Z" fill="white"/>
<g clip-path="url(#clip0)">
<rect width="72" height="20" rx="10" transform="matrix(-1 0 0 1 263.612 184.848)" fill="#F4F5F7"/>
<rect width="186" height="8" rx="4" transform="matrix(-1 0 0 1 263.612 214.848)" fill="#F4F5F7"/>
<rect width="186" height="8" rx="4" transform="matrix(-1 0 0 1 263.612 232.848)" fill="#F4F5F7"/>
<rect width="120" height="8" rx="4" transform="matrix(-1 0 0 1 263.612 250.848)" fill="#F4F5F7"/>
</g>
<line y1="-0.5" x2="186" y2="-0.5" transform="matrix(-1 8.74228e-08 8.74228e-08 1 263.612 282.848)" stroke="#F4F5F7"/>
<g clip-path="url(#clip1)">
<g clip-path="url(#clip2)">
<rect width="88" height="8" rx="4" transform="matrix(-1 0 0 1 263.612 308.848)" fill="#F4F5F7"/>
<rect width="72" height="12" rx="6" transform="matrix(-1 0 0 1 149.612 306.848)" fill="#F4F5F7"/>
</g>
<g clip-path="url(#clip3)">
<rect width="88" height="8" rx="4" transform="matrix(-1 0 0 1 263.612 332.848)" fill="#F4F5F7"/>
<rect width="72" height="12" rx="6" transform="matrix(-1 0 0 1 149.612 330.848)" fill="#F4F5F7"/>
</g>
</g>
<path d="M287.612 366.848H53.6119V393.848C53.6119 398.266 57.1936 401.848 61.6119 401.848H279.612C284.03 401.848 287.612 398.266 287.612 393.848V366.848Z" fill="#474A57"/>
<rect width="158" height="11" rx="5.5" transform="matrix(-1 0 0 1 271.612 378.848)" fill="#D9DBE1"/>
</g>
<path fill-rule="evenodd" clip-rule="evenodd" d="M453.207 198.044C458.82 191.455 462.62 183.38 461.985 174.331C460.156 148.26 423.864 153.996 416.805 167.154C409.745 180.312 410.584 213.69 419.708 216.041C423.346 216.979 431.097 214.682 438.986 209.927L434.035 244.958H463.272L453.207 198.044Z" fill="#915B3C"/>
<path fill-rule="evenodd" clip-rule="evenodd" d="M455.454 203.913C459.123 187.587 469.578 176.458 467.981 169.161C466.917 164.297 464.08 161.272 459.47 160.086C457.086 150.442 449.397 146.34 436.403 147.78C416.913 149.94 405.017 158.034 410.154 175.845C414.876 175.845 420.577 174.137 428.461 177.063C430.962 177.992 432.751 180.871 433.828 185.701H437.39C440.847 179.969 444.256 177.863 447.617 179.382C450.978 180.901 451.742 184.591 449.909 190.452L451.664 203.913H455.454Z" fill="#191847"/>
<path fill-rule="evenodd" clip-rule="evenodd" d="M544.895 397.238H404.797C394.032 397.238 385.305 405.965 385.305 416.73V528.808C385.305 539.573 394.032 548.3 404.797 548.3H544.895C555.66 548.3 564.386 539.573 564.386 528.808V416.73C564.386 405.965 555.66 397.238 544.895 397.238ZM525.403 431.349C528.094 431.349 530.276 433.531 530.276 436.222V509.317C530.276 512.008 528.094 514.19 525.403 514.19H424.289C421.597 514.19 419.416 512.008 419.416 509.317V436.222C419.416 433.531 421.597 431.349 424.289 431.349H525.403Z" fill="#C5CFD6"/>
<path fill-rule="evenodd" clip-rule="evenodd" d="M264.505 542.209C288.524 512.879 304.776 491.135 313.26 476.977C327.788 452.735 339.678 431.164 343.43 422.924C352.378 403.275 322.831 394.074 316.144 403.239C306.023 417.111 284.408 460.761 251.298 534.19L264.505 542.209Z" fill="#B28B67"/>
<path fill-rule="evenodd" clip-rule="evenodd" d="M313.724 533.681L358.424 421.161C367.985 400.649 321.816 387.166 314.789 396.712C298.838 418.384 260.924 503.876 256.172 510.333L313.724 533.681Z" fill="#6272B7"/>
<path fill-rule="evenodd" clip-rule="evenodd" d="M432.776 511.111C424.068 498.41 392.394 455.68 375.142 438.001C370.185 432.92 365.348 428.044 360.773 423.5C347.174 409.994 320.1 432.702 333.674 445.003C367.477 475.64 416.797 516.998 420.918 520.685C426.694 525.854 438.249 519.094 432.776 511.111Z" fill="#915B3C"/>
<path fill-rule="evenodd" clip-rule="evenodd" d="M430.708 505.362C433.713 507.822 435.669 509.832 436.576 511.392C437.678 513.289 438.97 516.241 440.452 520.247C438.247 521.524 418.427 532.995 380.993 554.661C376.486 550.457 375.778 547.189 378.871 544.856C381.964 542.522 384.516 540.555 386.527 538.953L407.018 510.662C407.412 510.117 408.174 509.995 408.719 510.388C408.728 510.395 408.738 510.402 408.747 510.409L413.023 513.681C416.938 513.333 419.86 512.601 421.786 511.486C423.352 510.58 425.147 508.697 427.172 505.839L427.172 505.839C427.949 504.742 429.47 504.482 430.569 505.257C430.617 505.291 430.663 505.326 430.708 505.362Z" fill="#E4E4E4"/>
<path fill-rule="evenodd" clip-rule="evenodd" d="M274.837 537.826C276.2 541.464 276.882 544.186 276.882 545.993C276.882 548.189 276.516 551.395 275.784 555.61C273.235 555.61 250.332 555.61 207.073 555.61C205.287 549.707 206.318 546.52 210.165 546.049C214.012 545.579 217.208 545.154 219.752 544.774L251.688 530.537C252.303 530.263 253.023 530.539 253.297 531.154C253.302 531.164 253.306 531.175 253.311 531.185L255.364 536.165C258.925 537.827 261.819 538.658 264.045 538.658C265.855 538.658 268.353 537.927 271.54 536.466L271.54 536.466C272.764 535.905 274.21 536.442 274.771 537.665C274.795 537.718 274.817 537.772 274.837 537.826Z" fill="#E4E4E4"/>
<path fill-rule="evenodd" clip-rule="evenodd" d="M374.509 426.781C411.661 420.728 436.547 416.589 449.165 414.365C485.131 408.023 495.619 388.668 489.418 346.44H423.151C414.381 348.973 377.739 364.635 313.225 393.427C301.617 399.189 303.779 416.179 305.901 421.776C305.987 422.005 325.555 455.535 364.604 522.367L418.814 487.833L374.407 430.85C373.234 428.488 373.268 427.132 374.509 426.781Z" fill="#6D7BBA"/>
<path fill-rule="evenodd" clip-rule="evenodd" d="M369.734 330.493L330.875 359.028C320.335 361.872 311.53 365.411 304.458 369.644C302.788 371.166 300.769 374.248 307.697 373.715C314.624 373.183 321.935 372.934 322.89 375.297C323.846 377.659 319.654 380.485 321.586 383.673C322.875 385.799 328.96 380.469 339.843 367.685L378.325 351.728L369.734 330.493ZM518.937 331.478L493.478 331.578C509.198 382.322 517.684 409.247 518.937 412.351C521.755 419.337 515.79 429.977 513.239 435.695C521.548 439.413 520.662 425.644 531.143 430.52C540.71 434.971 547.987 443.035 559.04 436.215C560.399 435.377 561.888 432.22 558.29 429.753C549.326 423.607 536.409 412.85 534.664 409.309C532.284 404.481 527.041 378.537 518.937 331.478Z" fill="#915B3C"/>
<path fill-rule="evenodd" clip-rule="evenodd" d="M446.589 224.653L436.055 222.846C396.969 256.61 380.916 321.475 333.007 355.836L344.538 370.13C427.651 359.839 448.251 280.72 446.589 224.653Z" fill="#E87613"/>
<path fill-rule="evenodd" clip-rule="evenodd" d="M492.51 357.036C450.272 357.036 419.202 357.036 399.301 357.036C395.042 357.036 395.844 350.886 396.46 347.783C403.566 311.966 431.304 273.357 431.304 222.373L458.19 218.157C480.428 253.923 488.119 297.957 492.51 357.036Z" fill="#DDE3E9"/>
<path fill-rule="evenodd" clip-rule="evenodd" d="M491.761 253.313C495.666 252.191 498.758 249.573 501.038 245.459C510.865 227.728 507.316 217.965 496.814 214.756C486.312 211.547 476.947 218.157 460.215 218.157C459.304 218.157 458.471 218.214 457.714 218.328L449.297 218.809C425.149 300.65 418.489 355.254 429.317 382.62H502.68C507.027 392.755 511.186 401.283 515.158 408.203H535.149C537.03 347.372 522.567 295.742 491.761 253.313Z" fill="#FF9B21"/>
<path fill-rule="evenodd" clip-rule="evenodd" d="M486.705 340.587C484.398 359.892 480.648 373.903 475.455 382.62H502.681C497.61 370.797 492.285 356.786 486.705 340.587Z" fill="black" fill-opacity="0.1"/>
<defs>
<filter id="filter0_d" x="21.6118" y="140.848" width="298" height="305" filterUnits="userSpaceOnUse" color-interpolation-filters="sRGB">
<feFlood flood-opacity="0" result="BackgroundImageFix"/>
<feColorMatrix in="SourceAlpha" type="matrix" values="0 0 0 0 0 0 0 0 0 0 0 0 0 0 0 0 0 0 127 0"/>
<feOffset dy="12"/>
<feGaussianBlur stdDeviation="16"/>
<feColorMatrix type="matrix" values="0 0 0 0 0.109804 0 0 0 0 0.172549 0 0 0 0 0.25098 0 0 0 0.2 0"/>
<feBlend mode="normal" in2="BackgroundImageFix" result="effect1_dropShadow"/>
<feBlend mode="normal" in="SourceGraphic" in2="effect1_dropShadow" result="shape"/>
</filter>
<clipPath id="clip0">
<rect width="186" height="74" fill="white" transform="matrix(-1 0 0 1 263.612 184.848)"/>
</clipPath>
<clipPath id="clip1">
<rect width="186" height="36" fill="white" transform="matrix(-1 0 0 1 263.612 306.848)"/>
</clipPath>
<clipPath id="clip2">
<rect width="186" height="12" fill="white" transform="matrix(-1 0 0 1 263.612 306.848)"/>
</clipPath>
<clipPath id="clip3">
<rect width="186" height="12" fill="white" transform="matrix(-1 0 0 1 263.612 330.848)"/>
</clipPath>
</defs>
</svg>
