<svg width="608" height="624" viewBox="0 0 608 624" fill="none" xmlns="http://www.w3.org/2000/svg">
<path fill-rule="evenodd" clip-rule="evenodd" d="M608 21.7026C596.81 15.919 585.16 10.732 573.075 6.19649C516.58 -15.0062 464.261 26.0306 413.861 65.5613C392.286 82.4832 371.064 99.1292 350.016 110.499C334.132 119.07 311.366 121.694 286.889 124.515C237.868 130.165 181.979 136.607 160.74 193.196C98.6534 358.627 182.599 543.151 348.223 605.311C393.01 622.12 428.595 580.982 464.73 539.209C489.569 510.493 514.669 481.476 543.197 470.775C564.185 462.899 586.225 461.354 608 462.023V21.7026Z" fill="#6D7BBA" fill-opacity="0.04"/>
<path fill-rule="evenodd" clip-rule="evenodd" d="M608 231.466C604.339 215.679 605.366 195.864 606.46 174.746C608.945 126.808 611.778 72.1549 560.915 42.6556C412.228 -43.5807 221.675 7.19469 135.338 156.057C111.991 196.31 145.717 237.081 179.964 278.481C203.506 306.941 227.295 335.698 232.96 364.791C239.466 398.176 230.784 431.537 222.704 462.587C210.182 510.704 199.104 553.269 248.24 581.767C366.108 650.128 510.286 632.39 608 547.942V231.466Z" fill="#6D7BBA" fill-opacity="0.04"/>
<path fill-rule="evenodd" clip-rule="evenodd" d="M431.9 84.545C437.513 77.9558 441.313 69.8807 440.678 60.8323C438.849 34.7614 402.557 40.4967 395.497 53.655C388.438 66.8134 389.277 100.191 398.401 102.542C402.039 103.48 409.79 101.183 417.679 96.4279L412.727 131.459H441.965L431.9 84.545Z" fill="#915B3C"/>
<path fill-rule="evenodd" clip-rule="evenodd" d="M434.147 90.4137C437.816 74.088 448.27 62.9593 446.674 55.6624C445.609 50.7978 442.772 47.7727 438.163 46.587C435.779 36.9427 428.09 32.8405 415.096 34.2807C395.606 36.4408 383.71 44.5351 388.847 62.3459C393.569 62.3459 399.27 60.638 407.153 63.5641C409.655 64.4925 411.444 67.3717 412.52 72.2016H416.083C419.54 66.4698 422.949 64.3636 426.31 65.8828C429.671 67.402 430.435 71.0922 428.602 76.9534L430.357 90.4137H434.147Z" fill="#191847"/>
<path fill-rule="evenodd" clip-rule="evenodd" d="M523.587 283.739H383.49C372.725 283.739 363.998 292.466 363.998 303.231V415.309C363.998 426.074 372.725 434.801 383.49 434.801H523.587C534.352 434.801 543.079 426.074 543.079 415.309V303.231C543.079 292.466 534.352 283.739 523.587 283.739ZM504.096 317.85C506.787 317.85 508.968 320.032 508.968 322.723V395.818C508.968 398.509 506.787 400.691 504.096 400.691H402.982C400.29 400.691 398.109 398.509 398.109 395.818V322.723C398.109 320.032 400.29 317.85 402.982 317.85H504.096Z" fill="#C5CFD6"/>
<path fill-rule="evenodd" clip-rule="evenodd" d="M243.198 428.71C267.217 399.38 283.469 377.636 291.953 363.478C306.481 339.236 318.371 317.665 322.123 309.425C331.071 289.776 301.524 280.575 294.837 289.74C284.716 303.612 263.101 347.262 229.991 420.691L243.198 428.71Z" fill="#B28B67"/>
<path fill-rule="evenodd" clip-rule="evenodd" d="M292.417 420.182L337.117 307.662C346.678 287.15 300.508 273.667 293.482 283.213C277.53 304.885 239.617 390.377 234.865 396.834L292.417 420.182Z" fill="#6272B7"/>
<path fill-rule="evenodd" clip-rule="evenodd" d="M411.469 397.612C402.761 384.911 371.087 342.181 353.835 324.502C348.878 319.421 344.04 314.545 339.465 310.001C325.867 296.495 298.793 319.203 312.367 331.504C346.17 362.141 395.49 403.499 399.611 407.186C405.387 412.355 416.942 405.595 411.469 397.612Z" fill="#915B3C"/>
<path fill-rule="evenodd" clip-rule="evenodd" d="M409.4 391.863C412.406 394.323 414.362 396.333 415.268 397.893C416.371 399.79 417.663 402.742 419.145 406.748C416.94 408.025 397.12 419.496 359.686 441.162C355.178 436.958 354.471 433.69 357.564 431.357C360.656 429.023 363.209 427.056 365.22 425.454L385.71 397.162C386.105 396.618 386.867 396.496 387.412 396.889C387.421 396.896 387.431 396.903 387.44 396.91L391.715 400.182C395.631 399.834 398.552 399.102 400.479 397.987C402.045 397.081 403.84 395.198 405.865 392.34L405.865 392.34C406.642 391.243 408.163 390.983 409.262 391.758C409.309 391.792 409.356 391.827 409.4 391.863Z" fill="#E4E4E4"/>
<path fill-rule="evenodd" clip-rule="evenodd" d="M253.53 424.327C254.893 427.965 255.575 430.687 255.575 432.494C255.575 434.69 255.209 437.896 254.477 442.111C251.928 442.111 229.024 442.111 185.766 442.111C183.98 436.208 185.011 433.021 188.858 432.55C192.705 432.08 195.901 431.655 198.445 431.275L230.381 417.038C230.996 416.764 231.716 417.04 231.99 417.655C231.995 417.665 231.999 417.676 232.004 417.686L234.057 422.666C237.618 424.328 240.512 425.158 242.738 425.158C244.547 425.158 247.046 424.428 250.233 422.967L250.233 422.967C251.456 422.406 252.903 422.943 253.463 424.166C253.488 424.219 253.51 424.272 253.53 424.327Z" fill="#E4E4E4"/>
<path fill-rule="evenodd" clip-rule="evenodd" d="M353.202 313.282C390.354 307.229 415.239 303.09 427.857 300.866C463.824 294.524 474.312 275.169 468.111 232.941H401.843C393.074 235.474 356.432 251.136 291.918 279.928C280.31 285.69 282.472 302.68 284.593 308.277C284.68 308.506 304.248 342.036 343.297 408.868L397.507 374.334L353.1 317.351C351.927 314.989 351.961 313.633 353.202 313.282Z" fill="#6D7BBA"/>
<path fill-rule="evenodd" clip-rule="evenodd" d="M348.427 216.994L309.568 245.529C299.028 248.373 290.222 251.912 283.151 256.144C281.481 257.667 279.462 260.749 286.389 260.216C293.317 259.684 300.628 259.435 301.583 261.798C302.539 264.16 298.347 266.986 300.279 270.174C301.567 272.3 307.653 266.97 318.536 254.186L357.018 238.229L348.427 216.994ZM497.629 217.979L472.171 218.079C487.89 268.823 496.377 295.747 497.629 298.852C500.448 305.838 494.483 316.478 491.932 322.196C500.241 325.914 499.355 312.145 509.836 317.021C519.403 321.472 526.68 329.536 537.733 322.716C539.091 321.878 540.58 318.721 536.983 316.254C528.019 310.108 515.102 299.351 513.357 295.81C510.977 290.982 505.734 265.038 497.629 217.979Z" fill="#915B3C"/>
<path fill-rule="evenodd" clip-rule="evenodd" d="M425.282 111.154L414.747 109.347C375.662 143.111 359.609 207.976 311.7 242.337L323.231 256.631C406.344 246.34 426.944 167.221 425.282 111.154Z" fill="#E87613"/>
<path fill-rule="evenodd" clip-rule="evenodd" d="M471.203 243.537C428.965 243.537 397.895 243.537 377.994 243.537C373.734 243.537 374.537 237.387 375.153 234.284C382.259 198.467 409.997 159.858 409.997 108.874L436.883 104.658C459.121 140.424 466.812 184.458 471.203 243.537Z" fill="#DDE3E9"/>
<path fill-rule="evenodd" clip-rule="evenodd" d="M470.454 139.814C474.359 138.692 477.451 136.074 479.731 131.96C489.558 114.229 486.009 104.466 475.507 101.257C465.005 98.048 455.64 104.658 438.907 104.658C437.997 104.658 437.164 104.715 436.407 104.829L427.99 105.309C403.842 187.151 397.182 241.755 408.01 269.121H481.373C485.72 279.256 489.879 287.784 493.851 294.704H513.841C515.723 233.873 501.26 182.243 470.454 139.814Z" fill="#FF9B21"/>
<path fill-rule="evenodd" clip-rule="evenodd" d="M465.398 227.088C463.091 246.393 459.341 260.404 454.148 269.12H481.374C476.303 257.298 470.978 243.287 465.398 227.088V227.088Z" fill="black" fill-opacity="0.1"/>
<g filter="url(#filter0_d)">
<path d="M266.305 55.3485C266.305 50.9302 262.723 47.3485 258.305 47.3485H40.3047C35.8864 47.3485 32.3047 50.9302 32.3047 55.3485V253.349H266.305V55.3485Z" fill="white"/>
<g clip-path="url(#clip0)">
<rect width="72" height="20" rx="10" transform="matrix(-1 0 0 1 242.305 71.3485)" fill="#F4F5F7"/>
<rect width="186" height="8" rx="4" transform="matrix(-1 0 0 1 242.305 101.349)" fill="#F4F5F7"/>
<rect width="186" height="8" rx="4" transform="matrix(-1 0 0 1 242.305 119.349)" fill="#F4F5F7"/>
<rect width="120" height="8" rx="4" transform="matrix(-1 0 0 1 242.305 137.349)" fill="#F4F5F7"/>
</g>
<line y1="-0.5" x2="186" y2="-0.5" transform="matrix(-1 8.74228e-08 8.74228e-08 1 242.305 169.349)" stroke="#F4F5F7"/>
<g clip-path="url(#clip1)">
<g clip-path="url(#clip2)">
<rect width="88" height="8" rx="4" transform="matrix(-1 0 0 1 242.305 195.349)" fill="#F4F5F7"/>
<rect width="72" height="12" rx="6" transform="matrix(-1 0 0 1 128.305 193.349)" fill="#F4F5F7"/>
</g>
<g clip-path="url(#clip3)">
<rect width="88" height="8" rx="4" transform="matrix(-1 0 0 1 242.305 219.349)" fill="#F4F5F7"/>
<rect width="72" height="12" rx="6" transform="matrix(-1 0 0 1 128.305 217.349)" fill="#F4F5F7"/>
</g>
</g>
<path d="M266.305 253.349H32.3047V280.349C32.3047 284.767 35.8864 288.349 40.3047 288.349H258.305C262.723 288.349 266.305 284.767 266.305 280.349V253.349Z" fill="#474A57"/>
<rect width="158" height="11" rx="5.5" transform="matrix(-1 0 0 1 250.305 265.349)" fill="#D9DBE1"/>
</g>
<defs>
<filter id="filter0_d" x="0.304688" y="27.3485" width="298" height="305" filterUnits="userSpaceOnUse" color-interpolation-filters="sRGB">
<feFlood flood-opacity="0" result="BackgroundImageFix"/>
<feColorMatrix in="SourceAlpha" type="matrix" values="0 0 0 0 0 0 0 0 0 0 0 0 0 0 0 0 0 0 127 0"/>
<feOffset dy="12"/>
<feGaussianBlur stdDeviation="16"/>
<feColorMatrix type="matrix" values="0 0 0 0 0.109804 0 0 0 0 0.172549 0 0 0 0 0.25098 0 0 0 0.2 0"/>
<feBlend mode="normal" in2="BackgroundImageFix" result="effect1_dropShadow"/>
<feBlend mode="normal" in="SourceGraphic" in2="effect1_dropShadow" result="shape"/>
</filter>
<clipPath id="clip0">
<rect width="186" height="74" fill="white" transform="matrix(-1 0 0 1 242.305 71.3485)"/>
</clipPath>
<clipPath id="clip1">
<rect width="186" height="36" fill="white" transform="matrix(-1 0 0 1 242.305 193.349)"/>
</clipPath>
<clipPath id="clip2">
<rect width="186" height="12" fill="white" transform="matrix(-1 0 0 1 242.305 193.349)"/>
</clipPath>
<clipPath id="clip3">
<rect width="186" height="12" fill="white" transform="matrix(-1 0 0 1 242.305 217.349)"/>
</clipPath>
</defs>
</svg>
