<svg width="168" height="56" viewBox="0 0 168 56" fill="none" xmlns="http://www.w3.org/2000/svg">
<g clip-path="url(#clip0)">
<path d="M61.5795 37.8006V19.7913H68.273C69.7605 19.7913 71.0354 20.0044 72.151 20.484C73.2666 20.9635 74.1697 21.6029 74.9666 22.4021C75.7103 23.2014 76.2947 24.1604 76.6665 25.2261C77.0384 26.2917 77.2509 27.4639 77.2509 28.6894C77.2509 30.0747 77.0384 31.3002 76.6134 32.4191C76.1884 33.538 75.6041 34.4971 74.8072 35.2431C74.0104 36.0423 73.1073 36.6284 71.9917 37.0547C70.8761 37.4809 69.6542 37.694 68.3262 37.694H61.5795V37.8006ZM73.001 28.796C73.001 27.9967 72.8948 27.3041 72.6823 26.6114C72.4698 25.972 72.151 25.3859 71.7792 24.9064C71.3542 24.4268 70.8761 24.0539 70.2917 23.8407C69.7074 23.5743 69.0168 23.4678 68.273 23.4678H65.7231V34.1774H68.273C69.0168 34.1774 69.7074 34.0176 70.2917 33.7512C70.8761 33.4848 71.3542 33.1118 71.7792 32.6323C72.151 32.1527 72.4698 31.5666 72.6823 30.9272C72.8948 30.2879 73.001 29.5419 73.001 28.796Z" fill="#231F20"/>
<path d="M85.6975 38.067C84.5819 38.067 83.5726 37.9072 82.7226 37.5342C81.8195 37.1612 81.0758 36.6817 80.4914 36.0423C79.8539 35.4029 79.4289 34.7103 79.1102 33.8578C78.7915 33.0585 78.6321 32.206 78.6321 31.3002C78.6321 30.3412 78.7915 29.4354 79.1102 28.5829C79.4289 27.7304 79.907 26.9844 80.4914 26.345C81.0758 25.7056 81.8195 25.1728 82.7226 24.7998C83.6257 24.4269 84.635 24.267 85.7506 24.267C86.8662 24.267 87.8756 24.4269 88.7787 24.7998C89.6286 25.1728 90.3724 25.6524 91.0099 26.2917C91.5942 26.9311 92.0723 27.6771 92.3911 28.4763C92.7098 29.3288 92.8692 30.1813 92.8692 31.0871C92.8692 31.3002 92.8692 31.5666 92.8692 31.7798C92.8692 31.9929 92.8161 32.206 92.8161 32.3659H83.0413C83.0945 33.2717 83.4132 33.9643 83.9976 34.3906C84.5819 34.8701 85.2194 35.0833 85.9631 35.0833C86.5475 35.0833 87.1318 34.9234 87.6631 34.657C88.1943 34.3906 88.5662 33.9643 88.7787 33.4848L92.2317 34.4439C91.7005 35.5095 90.9036 36.362 89.788 37.0014C88.5131 37.7473 87.2381 38.067 85.6975 38.067ZM88.5131 29.9149C88.4068 29.0624 88.1412 28.423 87.61 27.8902C87.0787 27.4107 86.4412 27.1442 85.6444 27.1442C84.8475 27.1442 84.21 27.4107 83.6788 27.8902C83.1476 28.3697 82.882 29.0624 82.7757 29.8616H88.5131V29.9149Z" fill="#231F20"/>
<path d="M97.6503 37.8006L92.9755 24.4801H97.1191L100.041 34.5504L102.963 24.4801H106.734L102.06 37.8006H97.6503Z" fill="#231F20"/>
<path d="M109.231 37.8006V19.7913H115.075C116.509 19.7913 117.731 20.0044 118.793 20.484C119.856 20.9635 120.759 21.6029 121.45 22.4021C122.14 23.2014 122.671 24.1604 123.043 25.2261C123.415 26.2917 123.575 27.4639 123.575 28.6894C123.575 30.0747 123.362 31.3002 122.99 32.4191C122.618 33.538 122.034 34.4971 121.29 35.2431C120.546 36.0423 119.643 36.6284 118.634 37.0546C117.572 37.4809 116.403 37.694 115.128 37.694H109.231V37.8006ZM122.671 28.796C122.671 27.6238 122.512 26.5048 122.14 25.5458C121.821 24.5334 121.29 23.6809 120.653 22.9882C120.015 22.2423 119.218 21.7095 118.262 21.2832C117.306 20.857 116.243 20.6971 115.022 20.6971H110.028V37.0546H115.022C116.243 37.0546 117.359 36.8415 118.315 36.4153C119.272 35.989 120.068 35.4029 120.706 34.7102C121.343 33.9643 121.821 33.1118 122.14 32.0994C122.512 31.0338 122.671 29.9682 122.671 28.796Z" fill="#231F20"/>
<path d="M128.196 21.4963V37.8006H127.346V19.7913H127.984L141.212 36.4153V19.8446H142.062V37.8006H141.212L128.196 21.4963Z" fill="#231F20"/>
<path d="M145.036 37.8006L152.739 19.7913H153.483L161.186 37.8006H160.23L157.574 31.6199H148.649L145.993 37.8006H145.036ZM153.164 20.9102L148.914 30.8207H157.361L153.164 20.9102Z" fill="#231F20"/>
<path d="M27.1554 54.4778C12.7059 54.4778 0.965576 42.7025 0.965576 28.2099C0.965576 13.7172 12.7059 1.94189 27.1554 1.94189C41.605 1.94189 53.3453 13.7172 53.3453 28.2099C53.3453 42.7025 41.605 54.4778 27.1554 54.4778ZM27.1554 4.55271C14.1933 4.55271 3.56863 15.2091 3.56863 28.2099C3.56863 41.2639 14.1402 51.867 27.1554 51.867C40.1707 51.867 50.7423 41.2639 50.7423 28.2099C50.7423 15.2091 40.1707 4.55271 27.1554 4.55271Z" fill="#6D7BBA" stroke="#6D7BBA" stroke-width="2" stroke-miterlimit="10"/>
<path d="M18.6556 45.6863H12.9714C12.4933 45.6863 12.1215 45.3134 12.1215 44.8338C12.1215 44.3543 12.4933 43.9813 12.9714 43.9813H18.6556C19.1338 43.9813 19.5056 44.3543 19.5056 44.8338C19.5056 45.3134 19.1338 45.6863 18.6556 45.6863Z" fill="#FCB621"/>
<path d="M27.1554 22.7219H21.4712C20.9931 22.7219 20.6212 22.3489 20.6212 21.8694C20.6212 21.3898 20.9931 21.0168 21.4712 21.0168H27.1554C27.6335 21.0168 28.0054 21.3898 28.0054 21.8694C28.0054 22.3489 27.6335 22.7219 27.1554 22.7219Z" fill="#FCB621"/>
<path d="M25.0305 18.2462H20.2494C19.7713 18.2462 19.3994 17.8732 19.3994 17.3936C19.3994 16.9141 19.7713 16.5411 20.2494 16.5411H25.0305C25.5086 16.5411 25.8805 16.9141 25.8805 17.3936C25.8805 17.8732 25.5086 18.2462 25.0305 18.2462Z" fill="#45B878"/>
<path d="M39.6926 46.8585H34.0084C33.5303 46.8585 33.1584 46.4856 33.1584 46.006C33.1584 45.5265 33.5303 45.1535 34.0084 45.1535H39.6926C40.1707 45.1535 40.5426 45.5265 40.5426 46.006C40.5426 46.4856 40.1707 46.8585 39.6926 46.8585Z" fill="#45B878"/>
<path d="M39.1613 41.9566H28.8553C28.3772 41.9566 28.0054 41.5836 28.0054 41.1041C28.0054 40.6246 28.3772 40.2516 28.8553 40.2516H39.1082C39.5863 40.2516 39.9581 40.6246 39.9581 41.1041C39.9581 41.5836 39.5863 41.9566 39.1613 41.9566Z" fill="#FCB621"/>
<path d="M36.2927 36.5219H26.0399C25.5618 36.5219 25.1899 36.1489 25.1899 35.6693C25.1899 35.1898 25.5618 34.8168 26.0399 34.8168H36.2927C36.7709 34.8168 37.1427 35.1898 37.1427 35.6693C37.1427 36.1489 36.7709 36.5219 36.2927 36.5219Z" fill="#ED4294"/>
<path d="M20.94 41.3705H14.5121C14.034 41.3705 13.6621 40.9975 13.6621 40.518C13.6621 40.0384 14.034 39.6655 14.5121 39.6655H20.94C21.4181 39.6655 21.79 40.0384 21.79 40.518C21.79 40.9975 21.4181 41.3705 20.94 41.3705Z" fill="#45B878"/>
<path d="M41.3394 48.4037C40.8082 48.4037 40.33 47.9774 40.2769 47.4446C40.0113 44.5141 38.7363 41.3705 36.7177 38.5998C34.9646 36.3087 32.7334 34.0709 29.7585 31.8863C28.9616 31.3002 28.1117 30.7141 27.2086 30.128C23.118 27.4106 18.4963 24.3203 18.4432 18.3527C18.3901 14.4098 20.9931 10.4137 24.4993 9.08165C26.8367 8.17586 29.4929 8.44227 31.8834 9.8276C34.3271 11.2129 36.0802 13.6106 36.5052 16.1681C37.0364 19.2052 35.5489 22.6153 32.5209 25.599L31.8303 26.2917C31.4053 26.718 30.7678 26.718 30.3428 26.2917C29.9178 25.8654 29.9178 25.2261 30.3428 24.7998L31.0334 24.0539C32.2553 22.8817 35.0177 19.7913 34.4333 16.4878C34.1146 14.5697 32.7334 12.7581 30.8209 11.6392C28.9616 10.5735 26.9429 10.3604 25.243 11.0531C22.5868 12.0654 20.515 15.2624 20.5681 18.2994C20.6212 23.1481 24.393 25.7056 28.3773 28.3697C29.2272 28.9558 30.1303 29.5419 30.9803 30.1813C34.1146 32.5257 36.5583 34.8168 38.3645 37.3211C40.7019 40.4114 42.0831 43.8747 42.3487 47.2315C42.4019 47.8176 41.9769 48.3504 41.3925 48.4037H41.3394Z" fill="#6D7BBA" stroke="#6D7BBA" stroke-width="2" stroke-miterlimit="10"/>
<path d="M12.4934 47.9774C11.909 47.9774 11.484 47.5512 11.4309 46.9651C11.3246 44.4076 12.0153 35.4562 24.9774 27.7836C25.4555 27.4639 26.093 27.677 26.4117 28.1566C26.7305 28.6361 26.518 29.2755 26.0398 29.5952C23.9149 30.874 13.184 37.6408 13.5558 46.8585C13.5558 47.4446 13.1308 47.9242 12.4934 47.9774C12.5465 47.9774 12.4934 47.9774 12.4934 47.9774Z" fill="#6D7BBA"/>
<path d="M12.4934 47.9774C11.909 47.9774 11.484 47.5512 11.4309 46.9651C11.3246 44.4076 12.0153 35.4562 24.9774 27.7836C25.4555 27.4639 26.093 27.677 26.4117 28.1566C26.7305 28.6361 26.518 29.2755 26.0398 29.5952C23.9149 30.874 13.184 37.6408 13.5558 46.8585C13.5558 47.4446 13.1308 47.9242 12.4934 47.9774ZM12.4934 47.9774C12.5465 47.9774 12.4934 47.9774 12.4934 47.9774Z" stroke="#6D7BBA" stroke-width="2" stroke-miterlimit="10"/>
<path d="M27.6867 23.1481C28.3908 23.1481 28.9617 22.5756 28.9617 21.8693C28.9617 21.1631 28.3908 20.5906 27.6867 20.5906C26.9826 20.5906 26.4117 21.1631 26.4117 21.8693C26.4117 22.5756 26.9826 23.1481 27.6867 23.1481Z" fill="#FCB621"/>
<path d="M25.5086 37.0014C26.2127 37.0014 26.7836 36.4289 26.7836 35.7226C26.7836 35.0164 26.2127 34.4438 25.5086 34.4438C24.8045 34.4438 24.2336 35.0164 24.2336 35.7226C24.2336 36.4289 24.8045 37.0014 25.5086 37.0014Z" fill="#ED4294"/>
<path d="M21.4182 41.7967C22.1223 41.7967 22.6931 41.2242 22.6931 40.518C22.6931 39.8117 22.1223 39.2392 21.4182 39.2392C20.714 39.2392 20.1432 39.8117 20.1432 40.518C20.1432 41.2242 20.714 41.7967 21.4182 41.7967Z" fill="#45B878"/>
<path d="M28.0585 42.3828C28.7627 42.3828 29.3335 41.8103 29.3335 41.1041C29.3335 40.3978 28.7627 39.8253 28.0585 39.8253C27.3544 39.8253 26.7836 40.3978 26.7836 41.1041C26.7836 41.8103 27.3544 42.3828 28.0585 42.3828Z" fill="#FCB621"/>
<path d="M19.187 46.1126C19.8911 46.1126 20.4619 45.5401 20.4619 44.8338C20.4619 44.1276 19.8911 43.5551 19.187 43.5551C18.4828 43.5551 17.912 44.1276 17.912 44.8338C17.912 45.5401 18.4828 46.1126 19.187 46.1126Z" fill="#FCB621"/>
<path d="M33.1584 47.2848C33.8625 47.2848 34.4333 46.7122 34.4333 46.006C34.4333 45.2998 33.8625 44.7272 33.1584 44.7272C32.4542 44.7272 31.8834 45.2998 31.8834 46.006C31.8834 46.7122 32.4542 47.2848 33.1584 47.2848Z" fill="#45B878"/>
<path d="M26.1461 18.6724C26.8502 18.6724 27.421 18.0999 27.421 17.3936C27.421 16.6874 26.8502 16.1149 26.1461 16.1149C25.4419 16.1149 24.8711 16.6874 24.8711 17.3936C24.8711 18.0999 25.4419 18.6724 26.1461 18.6724Z" fill="#45B878"/>
</g>
<defs>
<clipPath id="clip0">
<rect width="168" height="56" fill="white"/>
</clipPath>
</defs>
</svg>
