<svg width="166" height="56" viewBox="0 0 166 56" fill="none" xmlns="http://www.w3.org/2000/svg">
<path d="M63.2712 37.9266V19.6606H70.141C71.6676 19.6606 72.9761 19.8768 74.1211 20.3632C75.2661 20.8496 76.1929 21.498 77.0108 22.3087C77.7741 23.1193 78.3738 24.092 78.7555 25.1729C79.1371 26.2537 79.3552 27.4426 79.3552 28.6855C79.3552 30.0906 79.1371 31.3336 78.701 32.4684C78.2648 33.6033 77.665 34.576 76.8472 35.3326C76.0294 36.1432 75.1025 36.7377 73.9575 37.17C72.8126 37.6023 71.5586 37.8185 70.1955 37.8185H63.2712V37.9266ZM74.9935 28.7936C74.9935 27.983 74.8844 27.2805 74.6663 26.5779C74.4482 25.9294 74.1211 25.335 73.7395 24.8486C73.3033 24.3622 72.8126 23.9839 72.2128 23.7678C71.6131 23.4976 70.9043 23.3895 70.141 23.3895H67.524V34.2518H70.141C70.9043 34.2518 71.6131 34.0897 72.2128 33.8195C72.8126 33.5492 73.3033 33.171 73.7395 32.6846C74.1211 32.1982 74.4482 31.6038 74.6663 30.9553C74.8844 30.3068 74.9935 29.5502 74.9935 28.7936Z" fill="white"/>
<path d="M88.0243 38.1969C86.8793 38.1969 85.8434 38.0348 84.971 37.6565C84.0441 37.2782 83.2808 36.7918 82.6811 36.1433C82.0268 35.4948 81.5907 34.7923 81.2635 33.9276C80.9364 33.117 80.7728 32.2523 80.7728 31.3336C80.7728 30.3609 80.9364 29.4422 81.2635 28.5775C81.5907 27.7129 82.0814 26.9563 82.6811 26.3078C83.2808 25.6593 84.0441 25.1189 84.971 24.7406C85.8979 24.3623 86.9338 24.2002 88.0788 24.2002C89.2238 24.2002 90.2597 24.3623 91.1865 24.7406C92.0589 25.1189 92.8222 25.6053 93.4765 26.2538C94.0762 26.9023 94.5669 27.6588 94.894 28.4695C95.2212 29.3341 95.3847 30.1988 95.3847 31.1175C95.3847 31.3336 95.3847 31.6038 95.3847 31.82C95.3847 32.0362 95.3302 32.2523 95.3302 32.4145H85.2982C85.3527 33.3332 85.6798 34.0357 86.2796 34.468C86.8793 34.9544 87.5336 35.1706 88.2969 35.1706C88.8966 35.1706 89.4964 35.0084 90.0416 34.7382C90.5868 34.468 90.9685 34.0357 91.1865 33.5493L94.7305 34.5221C94.1853 35.6029 93.3674 36.4676 92.2225 37.1161C90.9139 37.8726 89.6054 38.1969 88.0243 38.1969ZM90.9139 29.9286C90.8049 29.0639 90.5323 28.4154 89.9871 27.875C89.4418 27.3886 88.7876 27.1184 87.9697 27.1184C87.1519 27.1184 86.4976 27.3886 85.9524 27.875C85.4072 28.3614 85.1346 29.0639 85.0255 29.8745H90.9139V29.9286Z" fill="white"/>
<path d="M100.292 37.9268L95.4938 24.4165H99.7465L102.745 34.6303L105.744 24.4165H109.615L104.817 37.9268H100.292Z" fill="white"/>
<path d="M112.177 37.9266V19.6606H118.175C119.647 19.6606 120.901 19.8768 121.991 20.3632C123.082 20.8496 124.009 21.498 124.718 22.3087C125.426 23.1193 125.972 24.092 126.353 25.1729C126.735 26.2537 126.898 27.4426 126.898 28.6855C126.898 30.0906 126.68 31.3336 126.299 32.4684C125.917 33.6033 125.317 34.576 124.554 35.3326C123.791 36.1432 122.864 36.7377 121.828 37.17C120.737 37.6023 119.538 37.8185 118.229 37.8185H112.177V37.9266ZM125.972 28.7936C125.972 27.6047 125.808 26.4698 125.426 25.4971C125.099 24.4703 124.554 23.6057 123.9 22.9031C123.245 22.1465 122.428 21.6061 121.446 21.1738C120.465 20.7415 119.374 20.5793 118.12 20.5793H112.995V37.17H118.12C119.374 37.17 120.519 36.9538 121.501 36.5215C122.482 36.0892 123.3 35.4947 123.954 34.7922C124.608 34.0356 125.099 33.171 125.426 32.1442C125.808 31.0633 125.972 29.9825 125.972 28.7936Z" fill="white"/>
<path d="M131.642 21.39V37.9266H130.77V19.6606H131.424L145 36.5215V19.7147H145.872V37.9266H145L131.642 21.39Z" fill="white"/>
<path d="M148.925 37.9266L156.831 19.6606H157.594L165.5 37.9266H164.519L161.792 31.6578H152.633L149.907 37.9266H148.925ZM157.267 20.7955L152.905 30.8472H161.574L157.267 20.7955Z" fill="white"/>
<path d="M27.941 54.8413C13.111 54.8413 1.06165 42.8982 1.06165 28.199C1.06165 13.4998 13.111 1.55664 27.941 1.55664C42.771 1.55664 54.8203 13.4998 54.8203 28.199C54.8203 42.8982 42.771 54.8413 27.941 54.8413ZM27.941 4.20466C14.6376 4.20466 3.73322 15.0129 3.73322 28.199C3.73322 41.4391 14.5831 52.1933 27.941 52.1933C41.2989 52.1933 52.1488 41.4391 52.1488 28.199C52.1488 15.0129 41.2989 4.20466 27.941 4.20466Z" fill="#6D7BBA" stroke="#6D7BBA" stroke-width="2" stroke-miterlimit="10"/>
<path d="M19.2174 45.9246H13.3836C12.8929 45.9246 12.5112 45.5463 12.5112 45.06C12.5112 44.5736 12.8929 44.1953 13.3836 44.1953H19.2174C19.7081 44.1953 20.0898 44.5736 20.0898 45.06C20.0898 45.5463 19.7081 45.9246 19.2174 45.9246Z" fill="#FCB621"/>
<path d="M27.9409 22.6326H22.1071C21.6164 22.6326 21.2347 22.2544 21.2347 21.768C21.2347 21.2816 21.6164 20.9033 22.1071 20.9033H27.9409C28.4316 20.9033 28.8133 21.2816 28.8133 21.768C28.8133 22.2544 28.4316 22.6326 27.9409 22.6326Z" fill="#FCB621"/>
<path d="M25.76 18.0931H20.8531C20.3624 18.0931 19.9807 17.7148 19.9807 17.2284C19.9807 16.7421 20.3624 16.3638 20.8531 16.3638H25.76C26.2507 16.3638 26.6324 16.7421 26.6324 17.2284C26.6324 17.7148 26.2507 18.0931 25.76 18.0931Z" fill="#45B878"/>
<path d="M40.8081 47.1136H34.9743C34.4836 47.1136 34.1019 46.7353 34.1019 46.2489C34.1019 45.7626 34.4836 45.3843 34.9743 45.3843H40.8081C41.2988 45.3843 41.6805 45.7626 41.6805 46.2489C41.6805 46.7353 41.2988 47.1136 40.8081 47.1136Z" fill="#45B878"/>
<path d="M40.263 42.1414H29.6857C29.195 42.1414 28.8134 41.7631 28.8134 41.2768C28.8134 40.7904 29.195 40.4121 29.6857 40.4121H40.2085C40.6991 40.4121 41.0808 40.7904 41.0808 41.2768C41.0808 41.7631 40.6991 42.1414 40.263 42.1414Z" fill="#FCB621"/>
<path d="M37.3188 36.6292H26.7961C26.3054 36.6292 25.9237 36.2509 25.9237 35.7646C25.9237 35.2782 26.3054 34.8999 26.7961 34.8999H37.3188C37.8095 34.8999 38.1912 35.2782 38.1912 35.7646C38.1912 36.2509 37.8095 36.6292 37.3188 36.6292Z" fill="#ED4294"/>
<path d="M21.5619 41.5472H14.9648C14.4741 41.5472 14.0924 41.1689 14.0924 40.6825C14.0924 40.1962 14.4741 39.8179 14.9648 39.8179H21.5619C22.0526 39.8179 22.4343 40.1962 22.4343 40.6825C22.4343 41.1689 22.0526 41.5472 21.5619 41.5472Z" fill="#45B878"/>
<path d="M42.4983 48.6807C41.9531 48.6807 41.4624 48.2484 41.4079 47.708C41.1353 44.7357 39.8268 41.5473 37.7549 38.7371C35.9557 36.4134 33.6658 34.1436 30.6125 31.9279C29.7947 31.3335 28.9224 30.739 27.9955 30.1446C23.7973 27.3885 19.0539 24.2541 18.9994 18.2015C18.9448 14.2024 21.6164 10.1493 25.2149 8.79828C27.6138 7.87958 30.3399 8.14979 32.7934 9.55486C35.3014 10.9599 37.1007 13.3918 37.5368 15.9858C38.0821 19.0661 36.5554 22.5248 33.4477 25.5511L32.7389 26.2536C32.3027 26.6859 31.6485 26.6859 31.2123 26.2536C30.7761 25.8213 30.7761 25.1728 31.2123 24.7405L31.9211 23.9839C33.1751 22.795 36.0102 19.6606 35.4105 16.31C35.0833 14.3645 33.6658 12.5271 31.703 11.3923C29.7947 10.3114 27.7229 10.0953 25.9782 10.7978C23.2521 11.8246 21.1257 15.0671 21.1802 18.1474C21.2348 23.0652 25.1058 25.6592 29.195 28.3612C30.0673 28.9557 30.9942 29.5501 31.8665 30.1986C35.0833 32.5764 37.5914 34.9002 39.4451 37.4401C41.8441 40.5745 43.2616 44.0872 43.5343 47.4918C43.5888 48.0863 43.1526 48.6267 42.5529 48.6807H42.4983Z" fill="#6D7BBA" stroke="#6D7BBA" stroke-width="2" stroke-miterlimit="10"/>
<path d="M12.8929 48.2481C12.2932 48.2481 11.857 47.8158 11.8025 47.2213C11.6934 44.6274 12.4022 35.5484 25.7056 27.7665C26.1963 27.4422 26.8505 27.6584 27.1777 28.1448C27.5048 28.6311 27.2867 29.2796 26.796 29.6039C24.6151 30.9009 13.6017 37.7641 13.9833 47.1133C13.9833 47.7077 13.5472 48.1941 12.8929 48.2481C12.8929 48.2481 12.9474 48.2481 12.8929 48.2481Z" fill="#6D7BBA"/>
<path d="M12.8929 48.2481C12.2932 48.2481 11.857 47.8158 11.8025 47.2213C11.6934 44.6274 12.4022 35.5484 25.7056 27.7665C26.1963 27.4422 26.8505 27.6584 27.1777 28.1448C27.5048 28.6311 27.2867 29.2796 26.796 29.6039C24.6151 30.9009 13.6017 37.7641 13.9833 47.1133C13.9833 47.7077 13.5472 48.1941 12.8929 48.2481ZM12.8929 48.2481C12.9474 48.2481 12.8929 48.2481 12.8929 48.2481Z" stroke="#6D7BBA" stroke-width="2" stroke-miterlimit="10"/>
<path d="M28.4863 23.0652C29.2089 23.0652 29.7948 22.4845 29.7948 21.7682C29.7948 21.0519 29.2089 20.4712 28.4863 20.4712C27.7636 20.4712 27.1777 21.0519 27.1777 21.7682C27.1777 22.4845 27.7636 23.0652 28.4863 23.0652Z" fill="#FCB621"/>
<path d="M26.2508 37.116C26.9735 37.116 27.5593 36.5353 27.5593 35.819C27.5593 35.1027 26.9735 34.522 26.2508 34.522C25.5281 34.522 24.9423 35.1027 24.9423 35.819C24.9423 36.5353 25.5281 37.116 26.2508 37.116Z" fill="#ED4294"/>
<path d="M22.0525 41.9797C22.7752 41.9797 23.3611 41.399 23.3611 40.6827C23.3611 39.9664 22.7752 39.3857 22.0525 39.3857C21.3299 39.3857 20.744 39.9664 20.744 40.6827C20.744 41.399 21.3299 41.9797 22.0525 41.9797Z" fill="#45B878"/>
<path d="M28.8679 42.574C29.5905 42.574 30.1764 41.9933 30.1764 41.277C30.1764 40.5607 29.5905 39.98 28.8679 39.98C28.1452 39.98 27.5593 40.5607 27.5593 41.277C27.5593 41.9933 28.1452 42.574 28.8679 42.574Z" fill="#FCB621"/>
<path d="M19.7626 46.3567C20.4853 46.3567 21.0712 45.776 21.0712 45.0597C21.0712 44.3434 20.4853 43.7627 19.7626 43.7627C19.0399 43.7627 18.4541 44.3434 18.4541 45.0597C18.4541 45.776 19.0399 46.3567 19.7626 46.3567Z" fill="#FCB621"/>
<path d="M34.102 47.5456C34.8247 47.5456 35.4105 46.965 35.4105 46.2486C35.4105 45.5323 34.8247 44.9517 34.102 44.9517C33.3793 44.9517 32.7935 45.5323 32.7935 46.2486C32.7935 46.965 33.3793 47.5456 34.102 47.5456Z" fill="#45B878"/>
<path d="M26.9051 18.5256C27.6278 18.5256 28.2136 17.9449 28.2136 17.2286C28.2136 16.5123 27.6278 15.9316 26.9051 15.9316C26.1824 15.9316 25.5966 16.5123 25.5966 17.2286C25.5966 17.9449 26.1824 18.5256 26.9051 18.5256Z" fill="#45B878"/>
</svg>
