<svg width="62" height="62" viewBox="0 0 62 62" fill="none" xmlns="http://www.w3.org/2000/svg">
<path d="M7.0204 26.9845C8.05852 26.2732 9.48327 26.5277 10.1956 27.5793C18.0896 39.1285 32.5198 52.1401 41.7046 55.9878C45.4217 57.7231 48.1891 57.8304 50.244 56.3465C51.8453 55.3654 56.4057 50.8064 56.3235 48.4334C56.2961 48.1544 55.9795 47.6302 55.4407 47.0722C53.6871 45.2633 47.8055 40.781 46.5756 40.315C45.5953 40.1157 44.5967 40.6982 43.0593 41.6701L42.2678 42.1668C41.1871 42.8198 39.7806 42.4642 39.1352 41.3819C38.4837 40.2904 38.8338 38.8771 39.9145 38.224L40.6269 37.7795C42.3317 36.7003 44.6698 35.2317 47.638 35.848C49.9669 36.3324 57.3038 42.412 58.7042 43.8591C60.0224 45.2143 60.7561 46.6614 60.8809 48.1636C61.0788 53.8079 53.5654 59.7128 52.7069 60.2095C51.066 61.3991 49.145 62 46.9865 62C44.8372 62 42.4505 61.4052 39.8658 60.1973C29.923 56.0338 14.887 42.5531 6.43588 30.1822C5.72046 29.1398 5.98228 27.708 7.0204 26.9845ZM13.6355 0.663225C15.2033 0.791992 16.6402 1.53087 17.9919 2.8584C19.4258 4.26564 25.4627 11.6575 25.9468 14.006C26.4674 16.5231 25.344 18.4883 24.5251 19.9231C23.7183 21.3365 23.4382 21.9405 23.7153 22.7039C25.755 27.7258 28.9028 31.8249 33.0401 34.8019C34.066 35.5438 34.3035 36.9756 33.5698 38.0119C33.1253 38.6373 32.4251 38.9746 31.7128 38.9746C31.2531 38.9746 30.7873 38.8366 30.3854 38.5453C25.5358 35.0533 21.8582 30.2828 19.4532 24.3564C18.3968 21.4285 19.6511 19.2333 20.5674 17.6299C21.2554 16.428 21.636 15.7106 21.4746 14.9441C21.0484 13.8373 16.5946 7.91098 14.8014 6.15116C14.2474 5.60237 13.7268 5.28045 13.3402 5.24979C11.2883 5.15475 6.70348 9.54204 5.69276 11.2283C4.12492 13.3989 4.23452 16.1828 5.91804 19.9078C6.43862 21.0636 5.93326 22.4249 4.78555 22.9522C3.64087 23.4796 2.2831 22.9676 1.76251 21.8117C-0.630341 16.5169 -0.58772 12.0959 1.89646 8.68052C2.42009 7.79142 8.21348 0.304516 13.6355 0.663225ZM38.7178 10.9076C45.05 12.1493 49.9392 17.0731 51.1753 23.4501C51.4158 24.6949 50.609 25.9059 49.37 26.1481C49.2238 26.1757 49.0747 26.188 48.9285 26.188C47.86 26.188 46.904 25.4276 46.6909 24.33C45.8142 19.7987 42.3406 16.3035 37.8441 15.4236C36.6081 15.1814 35.7983 13.9704 36.0388 12.7257C36.2823 11.4809 37.497 10.696 38.7178 10.9076ZM38.5345 0.0184685C50.9494 1.40425 60.5938 11.1047 61.9851 23.6043C62.1282 24.8675 61.224 26.008 59.9728 26.146C59.8845 26.1552 59.7993 26.1613 59.714 26.1613C58.5694 26.1613 57.5799 25.2936 57.449 24.1194C56.2922 13.769 48.3099 5.73635 38.0292 4.58664C36.7749 4.44561 35.8738 3.31123 36.0108 2.04809C36.1539 0.78494 37.2833 -0.144024 38.5345 0.0184685Z" fill="#6D7BBA"/>
</svg>
