<svg width="52" height="39" viewBox="0 0 52 39" fill="none" xmlns="http://www.w3.org/2000/svg">
<g opacity="0.4">
<mask id="path-1-inside-1" fill="white">
<path fill-rule="evenodd" clip-rule="evenodd" d="M41.098 16.7214C44.6074 16.2283 47.3093 13.2195 47.3169 9.57428C47.3169 5.98184 44.698 3.00325 41.2641 2.43973"/>
</mask>
<path d="M40.7502 14.2457C39.3829 14.4378 38.4302 15.702 38.6223 17.0692C38.8144 18.4365 40.0786 19.3892 41.4459 19.1971L40.7502 14.2457ZM47.3169 9.57428L49.8169 9.57945V9.57428H47.3169ZM41.6689 -0.0272751C40.3064 -0.250863 39.0206 0.672398 38.7971 2.03489C38.5735 3.39737 39.4967 4.68314 40.8592 4.90673L41.6689 -0.0272751ZM41.4459 19.1971C46.1696 18.5334 49.8067 14.4871 49.8168 9.57945L44.8169 9.5691C44.8119 11.952 43.0453 13.9232 40.7502 14.2457L41.4459 19.1971ZM49.8169 9.57428C49.8169 4.73672 46.2906 0.731163 41.6689 -0.0272751L40.8592 4.90673C43.1054 5.27533 44.8169 7.22697 44.8169 9.57428H49.8169Z" fill="white" mask="url(#path-1-inside-1)"/>
</g>
<mask id="path-3-inside-2" fill="white">
<path fill-rule="evenodd" clip-rule="evenodd" d="M45.7289 25.1581C49.1276 25.6663 51.4999 26.8562 51.4999 29.309C51.4999 30.997 50.3829 32.0939 48.5767 32.7832"/>
</mask>
<path d="M46.0986 22.6856C44.733 22.4814 43.4605 23.4229 43.2564 24.7884C43.0522 26.1539 43.9937 27.4264 45.3592 27.6306L46.0986 22.6856ZM47.6853 30.4475C46.3953 30.9398 45.7487 32.3846 46.241 33.6745C46.7332 34.9645 48.178 35.6112 49.468 35.1189L47.6853 30.4475ZM45.3592 27.6306C46.924 27.8646 47.9464 28.22 48.5179 28.5948C48.9635 28.8871 48.9999 29.072 48.9999 29.309H53.9999C53.9999 27.0932 52.8502 25.4567 51.26 24.4138C49.7956 23.4533 47.9325 22.9598 46.0986 22.6856L45.3592 27.6306ZM48.9999 29.309C48.9999 29.5426 48.944 29.6501 48.8425 29.765C48.6947 29.9322 48.362 30.1892 47.6853 30.4475L49.468 35.1189C50.5976 34.6878 51.7265 34.0518 52.5888 33.0763C53.4974 32.0483 53.9999 30.7634 53.9999 29.309H48.9999Z" fill="white" mask="url(#path-3-inside-2)"/>
<path d="M12.2601 32.3165C12.2601 31.4235 12.5616 30.7385 13.1156 30.1637C13.6992 29.558 14.6095 29.0308 15.8711 28.6077C18.4069 27.7572 21.9852 27.4483 26.0012 27.4483C30.0369 27.4483 33.6131 27.7671 36.1413 28.6265C37.3989 29.0539 38.3054 29.5852 38.8866 30.1943C39.4389 30.7731 39.7398 31.4627 39.7398 32.3593C39.7398 33.2532 39.4383 33.9376 38.8851 34.5113C38.302 35.1159 37.3925 35.6419 36.1312 36.0637C33.5958 36.9115 30.0181 37.2174 26.0012 37.2174C21.9653 37.2174 18.3882 36.8999 15.859 36.0421C14.601 35.6155 13.6943 35.0851 13.113 34.477C12.5607 33.8993 12.2601 33.2113 12.2601 32.3165Z" stroke="white" stroke-width="2.5" stroke-linecap="round" stroke-linejoin="round"/>
<path opacity="0.4" d="M17.6437 9.61223H17.6437V9.60749C17.6437 4.99223 21.386 1.25 26.0013 1.25C30.6166 1.25 34.3588 4.99222 34.3588 9.60749C34.3588 14.2251 30.6168 17.965 26.0013 17.965H25.9328C21.3368 17.9485 17.6263 14.2093 17.6437 9.61223Z" stroke="white" stroke-width="2.5" stroke-linecap="round" stroke-linejoin="round"/>
<g opacity="0.4">
<mask id="path-7-inside-3" fill="white">
<path fill-rule="evenodd" clip-rule="evenodd" d="M10.9023 16.7214C7.39037 16.2283 4.69102 13.2195 4.68347 9.57428C4.68347 5.98184 7.30232 3.00325 10.7363 2.43973"/>
</mask>
<path d="M10.5547 19.1971C11.922 19.3891 13.186 18.4363 13.378 17.069C13.57 15.7017 12.6172 14.4377 11.2499 14.2457L10.5547 19.1971ZM4.68347 9.57428H2.18347L2.18348 9.57945L4.68347 9.57428ZM11.1411 4.90673C12.5036 4.68314 13.4269 3.39737 13.2033 2.03489C12.9797 0.672398 11.6939 -0.250863 10.3314 -0.0272751L11.1411 4.90673ZM11.2499 14.2457C8.9532 13.9232 7.1884 11.9527 7.18347 9.5691L2.18348 9.57945C2.19364 14.4864 5.82754 18.5334 10.5547 19.1971L11.2499 14.2457ZM7.18347 9.57428C7.18347 7.22697 8.89495 5.27533 11.1411 4.90673L10.3314 -0.0272751C5.70969 0.731163 2.18347 4.73672 2.18347 9.57428H7.18347Z" fill="white" mask="url(#path-7-inside-3)"/>
</g>
<mask id="path-9-inside-4" fill="white">
<path fill-rule="evenodd" clip-rule="evenodd" d="M6.27116 25.1581C2.87243 25.6663 0.500122 26.8562 0.500122 29.309C0.500122 30.997 1.6171 32.0939 3.42337 32.7832"/>
</mask>
<path d="M6.64084 27.6306C8.00638 27.4264 8.94784 26.1539 8.74367 24.7884C8.5395 23.4229 7.267 22.4814 5.90147 22.6856L6.64084 27.6306ZM2.53203 35.1189C3.82201 35.6112 5.2668 34.9645 5.75908 33.6745C6.25135 32.3846 5.60469 30.9398 4.31472 30.4475L2.53203 35.1189ZM5.90147 22.6856C4.06757 22.9598 2.20448 23.4533 0.740056 24.4138C-0.850121 25.4567 -1.99988 27.0932 -1.99988 29.309H3.00012C3.00012 29.072 3.03652 28.8871 3.48218 28.5948C4.05359 28.22 5.07602 27.8646 6.64084 27.6306L5.90147 22.6856ZM-1.99988 29.309C-1.99988 30.7634 -1.49735 32.0483 -0.588785 33.0763C0.273496 34.0518 1.40248 34.6878 2.53203 35.1189L4.31472 30.4475C3.63799 30.1892 3.30535 29.9322 3.15757 29.765C3.05608 29.6501 3.00012 29.5426 3.00012 29.309H-1.99988Z" fill="white" mask="url(#path-9-inside-4)"/>
</svg>
