<svg width="25" height="24" viewBox="0 0 25 24" fill="none" xmlns="http://www.w3.org/2000/svg">
<path opacity="0.1" fill-rule="evenodd" clip-rule="evenodd" d="M0.5 12C0.5 5.37258 5.87258 0 12.5 0C19.1274 0 24.5 5.37258 24.5 12C24.5 18.6274 19.1274 24 12.5 24C5.87258 24 0.5 18.6274 0.5 12Z" fill="white"/>
<path fill-rule="evenodd" clip-rule="evenodd" d="M18.9 11.9912C18.9 12.424 18.8559 12.8563 18.7694 13.2776C18.685 13.6889 18.56 14.0927 18.3962 14.4787C18.2362 14.8579 18.0378 15.2233 17.8059 15.5641C17.5774 15.9027 17.3143 16.2204 17.0252 16.5099C16.7355 16.7983 16.4167 17.0607 16.0783 17.2901C15.7364 17.5204 15.3705 17.7186 14.9911 17.8793C14.6045 18.0422 14.1997 18.167 13.7888 18.2513C13.3669 18.338 12.9331 18.3823 12.4997 18.3823C12.0659 18.3823 11.6321 18.338 11.2109 18.2513C10.7993 18.167 10.3946 18.0422 10.0083 17.8793C9.62893 17.7186 9.26264 17.5204 8.92076 17.2901C8.5823 17.0607 8.26354 16.7983 7.97446 16.5099C7.68508 16.2204 7.42193 15.9027 7.19317 15.5641C6.96253 15.2233 6.76376 14.8579 6.60313 14.4787C6.43936 14.0927 6.31405 13.6889 6.22936 13.2776C6.14374 12.8563 6.09998 12.424 6.09998 11.9912C6.09998 11.5581 6.14371 11.1249 6.22939 10.7045C6.31408 10.2932 6.43938 9.88882 6.60316 9.50342C6.76378 9.12396 6.96256 8.75823 7.19319 8.41744C7.42195 8.07854 7.68511 7.76147 7.97449 7.47155C8.26357 7.18319 8.58233 6.92139 8.92078 6.69234C9.26267 6.46108 9.62895 6.26295 10.0083 6.10191C10.3946 5.93866 10.7993 5.81354 11.2109 5.72992C11.6322 5.6438 12.0659 5.6001 12.4997 5.6001C12.9332 5.6001 13.3669 5.6438 13.7888 5.72992C14.1998 5.81357 14.6045 5.93869 14.9911 6.10191C15.3705 6.26292 15.7364 6.46108 16.0783 6.69234C16.4168 6.92139 16.7356 7.18319 17.0252 7.47155C17.3143 7.76147 17.5775 8.07854 17.8059 8.41744C18.0378 8.75823 18.2362 9.12398 18.3962 9.50342C18.56 9.88882 18.685 10.2932 18.7694 10.7045C18.8559 11.1249 18.9 11.5581 18.9 11.9912ZM10.1677 7.05463C8.64351 7.77334 7.50595 9.17575 7.15124 10.8659C7.29533 10.8672 9.57295 10.8959 12.1971 10.1996C11.2512 8.52133 10.2405 7.15171 10.1677 7.05463ZM12.65 11.0401C9.83577 11.8814 7.1353 11.8208 7.03844 11.8171C7.03686 11.8758 7.03405 11.9325 7.03405 11.9912C7.03405 13.3933 7.56376 14.6715 8.43444 15.638C8.43256 15.6352 9.92828 12.9855 12.8778 12.033C12.949 12.0093 13.0216 11.9881 13.0934 11.9675C12.9563 11.6573 12.8065 11.3465 12.65 11.0401ZM16.1092 7.89504C15.147 7.04776 13.8835 6.53382 12.4997 6.53382C12.0556 6.53382 11.6246 6.5875 11.2118 6.68673C11.2937 6.79659 12.3203 8.15656 13.255 9.8704C15.3173 9.09837 16.0958 7.915 16.1092 7.89504ZM13.466 12.8719C13.4538 12.8759 13.4416 12.8794 13.4297 12.8837C10.2049 14.0063 9.15184 16.2687 9.14045 16.2934C10.0683 17.0139 11.2321 17.4486 12.4997 17.4486C13.2566 17.4486 13.9776 17.2947 14.6335 17.0161C14.5526 16.5393 14.2351 14.8678 13.466 12.8719ZM15.5539 16.5174C16.7811 15.6905 17.6527 14.3773 17.8959 12.8562C17.7834 12.82 16.2542 12.3366 14.4901 12.6191C15.207 14.5864 15.4983 16.1885 15.5539 16.5174ZM13.6757 10.6837C13.8026 10.9439 13.9254 11.2088 14.0388 11.4751C14.0792 11.5706 14.1185 11.6642 14.157 11.7578C16.0346 11.5219 17.8843 11.9188 17.9634 11.935C17.9509 10.6412 17.4874 9.45379 16.7206 8.52416C16.7102 8.5388 15.8336 9.80361 13.6757 10.6837Z" fill="white"/>
</svg>
