<svg width="25" height="24" viewBox="0 0 25 24" fill="none" xmlns="http://www.w3.org/2000/svg">
<path opacity="0.1" fill-rule="evenodd" clip-rule="evenodd" d="M0.5 12C0.5 5.37258 5.87258 0 12.5 0C19.1274 0 24.5 5.37258 24.5 12C24.5 18.6274 19.1274 24 12.5 24C5.87258 24 0.5 18.6274 0.5 12Z" fill="white"/>
<path fill-rule="evenodd" clip-rule="evenodd" d="M12.5006 5.6001C10.7624 5.6001 10.5443 5.6077 9.86161 5.63876C9.18027 5.66997 8.7152 5.77783 8.30827 5.9361C7.88733 6.09957 7.53026 6.31824 7.17452 6.67411C6.81852 7.02985 6.59985 7.38692 6.43585 7.80772C6.27718 8.21479 6.16918 8.68 6.13851 9.36107C6.10798 10.0437 6.09998 10.262 6.09998 12.0002C6.09998 13.7383 6.10771 13.9558 6.13864 14.6385C6.16998 15.3198 6.27784 15.7849 6.43598 16.1918C6.59958 16.6127 6.81825 16.9698 7.17412 17.3256C7.52972 17.6816 7.88679 17.9008 8.30747 18.0642C8.71467 18.2225 9.17987 18.3304 9.86108 18.3616C10.5438 18.3926 10.7618 18.4002 12.4998 18.4002C14.2381 18.4002 14.4555 18.3926 15.1382 18.3616C15.8195 18.3304 16.2851 18.2225 16.6924 18.0642C17.1132 17.9008 17.4697 17.6816 17.8253 17.3256C18.1813 16.9698 18.4 16.6127 18.564 16.1919C18.7213 15.7849 18.8293 15.3197 18.8613 14.6386C18.892 13.9559 18.9 13.7383 18.9 12.0002C18.9 10.262 18.892 10.0439 18.8613 9.3612C18.8293 8.67986 18.7213 8.21479 18.564 7.80785C18.4 7.38692 18.1813 7.02985 17.8253 6.67411C17.4693 6.31811 17.1133 6.09944 16.692 5.9361C16.2839 5.77783 15.8186 5.66997 15.1373 5.63876C14.4546 5.6077 14.2373 5.6001 12.4986 5.6001H12.5006ZM11.9264 6.75343C12.0968 6.75316 12.2869 6.75343 12.5005 6.75343C14.2094 6.75343 14.4119 6.75956 15.0867 6.79023C15.7107 6.81876 16.0494 6.92303 16.275 7.01063C16.5737 7.12663 16.7866 7.2653 17.0105 7.4893C17.2345 7.7133 17.3731 7.92664 17.4894 8.22531C17.577 8.45064 17.6814 8.78931 17.7098 9.41332C17.7405 10.088 17.7471 10.2907 17.7471 11.9987C17.7471 13.7067 17.7405 13.9094 17.7098 14.584C17.6813 15.208 17.577 15.5467 17.4894 15.7721C17.3734 16.0707 17.2345 16.2834 17.0105 16.5073C16.7865 16.7313 16.5738 16.8699 16.275 16.9859C16.0497 17.0739 15.7107 17.1779 15.0867 17.2065C14.412 17.2371 14.2094 17.2438 12.5005 17.2438C10.7916 17.2438 10.5891 17.2371 9.91439 17.2065C9.29038 17.1777 8.95171 17.0734 8.72598 16.9858C8.42731 16.8698 8.21397 16.7311 7.98997 16.5071C7.76597 16.2831 7.6273 16.0703 7.51103 15.7715C7.42343 15.5462 7.31903 15.2075 7.29063 14.5835C7.25996 13.9088 7.25383 13.7062 7.25383 11.9971C7.25383 10.288 7.25996 10.0864 7.29063 9.41172C7.31916 8.78771 7.42343 8.44904 7.51103 8.22344C7.62703 7.92477 7.76597 7.71143 7.98997 7.48743C8.21397 7.26343 8.42731 7.12476 8.72598 7.00849C8.95158 6.92049 9.29038 6.81649 9.91439 6.78783C10.5048 6.76116 10.7336 6.75316 11.9264 6.75182V6.75343ZM15.9169 7.81611C15.4928 7.81611 15.1488 8.15971 15.1488 8.58385C15.1488 9.00785 15.4928 9.35185 15.9169 9.35185C16.3409 9.35185 16.6849 9.00785 16.6849 8.58385C16.6849 8.15984 16.3409 7.81611 15.9169 7.81611ZM12.5006 8.71345C10.6855 8.71345 9.21389 10.1851 9.21389 12.0001C9.21389 13.8152 10.6855 15.2862 12.5006 15.2862C14.3157 15.2862 15.7868 13.8152 15.7868 12.0001C15.7868 10.1851 14.3157 8.71345 12.5006 8.71345ZM12.5006 9.86679C13.6787 9.86679 14.6339 10.8219 14.6339 12.0001C14.6339 13.1783 13.6787 14.1335 12.5006 14.1335C11.3223 14.1335 10.3672 13.1783 10.3672 12.0001C10.3672 10.8219 11.3223 9.86679 12.5006 9.86679Z" fill="white"/>
</svg>
