<svg width="25" height="24" viewBox="0 0 25 24" fill="none" xmlns="http://www.w3.org/2000/svg">
<path opacity="0.1" fill-rule="evenodd" clip-rule="evenodd" d="M0.5 12C0.5 5.37258 5.87258 0 12.5 0C19.1274 0 24.5 5.37258 24.5 12C24.5 18.6274 19.1274 24 12.5 24C5.87258 24 0.5 18.6274 0.5 12Z" fill="white"/>
<path fill-rule="evenodd" clip-rule="evenodd" d="M12.1406 9.75395L12.1658 10.1692L11.7461 10.1183C10.2184 9.92343 8.88383 9.26245 7.75067 8.15236L7.19668 7.60154L7.05399 8.0083C6.75181 8.91502 6.94487 9.87258 7.5744 10.5166C7.91015 10.8725 7.83461 10.9234 7.25544 10.7115C7.05399 10.6437 6.87772 10.5929 6.86093 10.6183C6.80218 10.6776 7.00363 11.4488 7.16311 11.7538C7.38134 12.1775 7.82621 12.5927 8.31305 12.8385L8.72434 13.0334L8.23751 13.0419C7.76746 13.0419 7.75067 13.0503 7.80103 13.2283C7.96891 13.7791 8.63201 14.3638 9.37066 14.618L9.89108 14.796L9.43781 15.0672C8.76631 15.457 7.9773 15.6773 7.18829 15.6942C6.81057 15.7027 6.5 15.7366 6.5 15.762C6.5 15.8468 7.52404 16.3213 8.11999 16.5077C9.90786 17.0586 12.0315 16.8213 13.6263 15.8807C14.7595 15.2112 15.8926 13.8808 16.4214 12.5927C16.7068 11.9063 16.9922 10.6522 16.9922 10.0505C16.9922 9.66073 17.0174 9.60989 17.4874 9.14382C17.7644 8.87265 18.0246 8.57606 18.075 8.49132C18.1589 8.33031 18.1505 8.33031 17.7224 8.47437C17.009 8.72859 16.9083 8.69469 17.2608 8.31336C17.521 8.04219 17.8316 7.5507 17.8316 7.40664C17.8316 7.38122 17.7057 7.42359 17.563 7.49986C17.4119 7.5846 17.0761 7.71171 16.8243 7.78797L16.3711 7.93203L15.9598 7.65239C15.7331 7.49986 15.4142 7.33038 15.2463 7.27953C14.8182 7.16089 14.1635 7.17784 13.7774 7.31343C12.7282 7.69476 12.0651 8.67774 12.1406 9.75395Z" fill="white"/>
</svg>
