<svg width="25" height="24" viewBox="0 0 25 24" fill="none" xmlns="http://www.w3.org/2000/svg">
<path opacity="0.1" fill-rule="evenodd" clip-rule="evenodd" d="M0.5 12C0.5 5.37258 5.87258 0 12.5 0C19.1274 0 24.5 5.37258 24.5 12C24.5 18.6274 19.1274 24 12.5 24C5.87258 24 0.5 18.6274 0.5 12Z" fill="white"/>
<path fill-rule="evenodd" clip-rule="evenodd" d="M17.5008 7.87476C18.0515 8.02589 18.4853 8.4712 18.6325 9.03671C18.9 10.0616 18.9 12.2001 18.9 12.2001C18.9 12.2001 18.9 14.3385 18.6325 15.3635C18.4853 15.929 18.0515 16.3743 17.5008 16.5255C16.5027 16.8001 12.5 16.8001 12.5 16.8001C12.5 16.8001 8.49728 16.8001 7.4991 16.5255C6.94834 16.3743 6.51459 15.929 6.36739 15.3635C6.09998 14.3385 6.09998 12.2001 6.09998 12.2001C6.09998 12.2001 6.09998 10.0616 6.36739 9.03671C6.51459 8.4712 6.94834 8.02589 7.4991 7.87476C8.49728 7.6001 12.5 7.6001 12.5 7.6001C12.5 7.6001 16.5027 7.6001 17.5008 7.87476ZM11.3 10.4001V14.4001L14.5 12.4001L11.3 10.4001Z" fill="white"/>
</svg>
